<svg width="102" height="102" viewBox="0 0 102 102" fill="none" xmlns="http://www.w3.org/2000/svg">
<path d="M91.7619 56.4124H101.398V101.382H91.7619V56.4124Z" fill="#7CB5E8"/>
<g opacity="0.25">
<path opacity="0.25" d="M95.793 93.2555C95.793 95.52 97.6239 97.367 99.9045 97.367H101.398V56.4124H95.793V93.2555Z" fill="white"/>
</g>
<path d="M75.7012 66.0488H85.3376V101.382H75.7012V66.0488Z" fill="#3570D4"/>
<path d="M59.6406 75.6851H69.277V101.382H59.6406V75.6851Z" fill="#8FA1B0"/>
<path d="M43.58 85.3215H53.2164V101.382H43.58V85.3215Z" fill="#1B3692"/>
<path d="M1.82243 77.2912H11.4588V86.9275H1.82243V77.2912Z" fill="#7CB5E8"/>
<path d="M17.883 77.2912H27.5194V86.9275H17.883V77.2912Z" fill="#3570D4"/>
<g opacity="0.25">
<path opacity="0.25" d="M21.1433 80.2463C21.1433 82.8321 23.2312 84.92 25.817 84.92H27.5033V77.3073H21.1433V80.2463Z" fill="white"/>
</g>
<g opacity="0.25">
<path opacity="0.25" d="M5.08273 80.2463C5.08273 82.8321 7.1706 84.92 9.75636 84.92H11.4427V77.3073H5.08273V80.2463Z" fill="white"/>
</g>
<g opacity="0.25">
<path opacity="0.25" d="M79.7324 93.2554C79.7324 95.52 81.5633 97.367 83.844 97.367H85.3376V66.0488H79.7324V93.2554Z" fill="white"/>
</g>
<g opacity="0.25">
<path opacity="0.25" d="M63.6718 93.2554C63.6718 95.52 65.5027 97.367 67.7833 97.367H69.277V75.6851H63.6718V93.2554Z" fill="white"/>
</g>
<g opacity="0.25">
<path opacity="0.25" d="M47.6112 93.2555C47.6112 95.52 49.4421 97.367 51.7227 97.367H53.2164V85.3376H47.6112V93.2555Z" fill="#E2E2E2"/>
</g>
<path d="M21.0952 33.9275C21.0952 26.8288 26.8449 21.0791 33.9436 21.0791V1.80633C16.1967 1.80633 1.82244 16.1806 1.82244 33.9275C1.82244 42.793 5.42001 50.8233 11.234 56.6372L24.8694 43.0018C22.5246 40.6891 21.0952 37.4769 21.0952 33.9275V33.9275Z" fill="#1B3692"/>
<path d="M33.9436 46.776C30.3942 46.776 27.1821 45.3306 24.8533 43.0179L11.2179 56.6533C17.0318 62.4673 25.0621 66.0648 33.9276 66.0648C51.6746 66.0648 66.0488 51.6906 66.0488 33.9436H46.7761C46.7921 41.0263 41.0264 46.776 33.9436 46.776V46.776Z" fill="#8FA1B0"/>
<path d="M33.9436 1.80634V21.0791C41.0424 21.0791 46.7921 26.8288 46.7921 33.9275H66.0648C66.0648 16.1966 51.6745 1.80634 33.9436 1.80634V1.80634Z" fill="#3570D4"/>
<g opacity="0.25">
<path opacity="0.25" d="M66.0649 33.9436C66.0649 38.6012 65.053 43.0018 63.2703 47.0009C59.2712 48.7836 54.8706 49.7954 50.213 49.7954C45.1861 49.7954 40.4482 48.6391 36.2082 46.5994C42.247 45.5394 46.8243 40.2876 46.8243 33.9436C46.8243 26.8448 41.0746 21.0951 33.9758 21.0951C27.6318 21.0951 22.3639 25.6885 21.32 31.7273C19.2482 27.4873 18.0918 22.7173 18.0918 17.6742C18.0918 13.0167 19.1036 8.59999 20.8864 4.61696C24.8694 2.83424 29.2861 1.82242 33.9436 1.82242C51.6746 1.82242 66.0649 16.1967 66.0649 33.9436V33.9436Z" fill="white"/>
</g>
<g opacity="0.25">
<path opacity="0.25" d="M65.7115 29.543C63.7843 15.4579 52.7506 4.3118 38.7297 2.20786C37.2843 1.98301 35.9833 3.13937 35.9833 4.60089C35.9833 5.77331 36.8346 6.78513 37.9909 6.9618C49.9079 8.74452 59.3194 18.2685 60.9576 30.2336C61.1182 31.406 62.1461 32.2733 63.3185 32.2733C64.78 32.2733 65.9203 30.9885 65.7115 29.543Z" fill="white"/>
</g>
<path d="M51.5942 20.6936H74.0791C74.4003 20.6936 74.7055 20.5651 74.9303 20.3403L79.7485 15.5221C80.2142 15.0563 80.2142 14.2854 79.7485 13.8197C79.2827 13.3539 78.5118 13.3539 78.0461 13.8197L73.5812 18.2845H51.5942C50.9358 18.2845 50.3897 18.8306 50.3897 19.4891C50.3897 20.1476 50.9358 20.6936 51.5942 20.6936V20.6936Z" fill="#1B3692"/>
<path d="M72.473 3.02696H91.7458C92.4043 3.02696 92.9503 2.4809 92.9503 1.82241C92.9503 1.16393 92.4043 0.617867 91.7458 0.617867H72.473C71.8146 0.617867 71.2685 1.16393 71.2685 1.82241C71.2685 2.4809 71.8146 3.02696 72.473 3.02696Z" fill="#1B3692"/>
<path d="M72.473 9.45114H91.7458C92.4043 9.45114 92.9503 8.90508 92.9503 8.2466C92.9503 7.58811 92.4043 7.04205 91.7458 7.04205H72.473C71.8146 7.04205 71.2685 7.58811 71.2685 8.2466C71.2685 8.90508 71.8146 9.45114 72.473 9.45114Z" fill="#1B3692"/>
<path d="M93.3519 31.133H80.5034C79.8449 31.133 79.2988 31.6791 79.2988 32.3376C79.2988 32.9961 79.8449 33.5421 80.5034 33.5421H90.4449L47.531 76.44C47.0652 76.9058 47.0652 77.6767 47.531 78.1424C47.7719 78.3833 48.077 78.4958 48.3822 78.4958C48.6873 78.4958 48.9925 78.3833 49.2334 78.1424L92.1473 35.2285V45.17C92.1473 45.8285 92.6934 46.3745 93.3519 46.3745C94.0103 46.3745 94.5564 45.8285 94.5564 45.17V32.3215C94.5564 31.663 94.0264 31.133 93.3519 31.133V31.133Z" fill="#1B3692"/>
<path d="M17.867 98.5876H1.80635C1.14787 98.5876 0.601807 99.1337 0.601807 99.7922C0.601807 100.451 1.14787 100.997 1.80635 100.997H17.867C18.5254 100.997 19.0715 100.451 19.0715 99.7922C19.0715 99.1337 18.5415 98.5876 17.867 98.5876V98.5876Z" fill="#1B3692"/>
<path d="M27.5033 92.1634H1.80635C1.14787 92.1634 0.601807 92.7094 0.601807 93.3679C0.601807 94.0264 1.14787 94.5725 1.80635 94.5725H27.5033C28.1618 94.5725 28.7079 94.0264 28.7079 93.3679C28.7079 92.7094 28.1779 92.1634 27.5033 92.1634Z" fill="#1B3692"/>
</svg>
