<svg width="98" height="92" viewBox="0 0 98 92" fill="none" xmlns="http://www.w3.org/2000/svg">
<path d="M93.7785 0.919983H66.6401C64.6801 0.919983 63.1724 2.42768 63.1724 4.38768V77.9631C63.1724 79.9231 64.6801 81.4308 66.6401 81.4308H93.7785C95.7385 81.4308 97.2462 79.9231 97.2462 77.9631V4.38768C97.2462 2.42768 95.7385 0.919983 93.7785 0.919983Z" fill="#8FA1B0"/>
<path d="M67.3939 7.25232H93.0247V13.1323H67.3939V7.25232Z" fill="#DFDFED"/>
<path d="M67.3939 15.0923H93.0247V20.9723H67.3939V15.0923Z" fill="#DFDFED"/>
<path d="M67.3939 23.0831H93.0247V28.9631H67.3939V23.0831Z" fill="#DFDFED"/>
<path d="M82.9231 18.1077H63.1724V77.6615H82.9231C84.1293 77.6615 85.1847 76.6061 85.1847 75.4V20.3692C85.1847 19.1631 84.1293 18.1077 82.9231 18.1077Z" fill="#CACCCC"/>
<path d="M83.677 18.8615C83.677 17.6554 82.6216 16.6 81.4154 16.6H3.01544C1.80929 16.6 0.753906 17.6554 0.753906 18.8615V65.7507H83.677V18.8615Z" fill="#DCDCE1"/>
<path d="M0.754028 64.0923H83.6771V65.6H0.754028V64.0923Z" fill="#DFDFED"/>
<path d="M0.754028 65.6V73.8923C0.754028 75.0984 1.80941 76.1538 3.01557 76.1538H81.4156C82.6217 76.1538 83.6771 75.0984 83.6771 73.8923V65.6H0.754028Z" fill="#F2F2F7"/>
<path d="M81.4156 75.2492H3.01557C1.80941 75.2492 0.754028 74.1938 0.754028 72.9877V73.8923C0.754028 75.0984 1.80941 76.1538 3.01557 76.1538H81.4156C82.6217 76.1538 83.6771 75.0984 83.6771 73.8923V72.9877C83.6771 74.3446 82.6217 75.2492 81.4156 75.2492Z" fill="#E3E7E8"/>
<path d="M4.22168 20.2184H80.2094V65.6H4.22168V20.2184Z" fill="#166DBE"/>
<path d="M4.22168 64.0923H80.2094V65.6H4.22168V64.0923Z" fill="#D5D5DF"/>
<path d="M4.22168 20.2184H80.2094V21.2738H4.22168V20.2184Z" fill="#DFDFED"/>
<path d="M31.3601 76.1538H52.9201V86.1046H31.3601V76.1538Z" fill="#D5D5DF"/>
<path d="M54.1263 86.1046H30.3047C27.5909 86.1046 25.3293 88.3662 25.3293 91.08H59.1017C59.1017 88.3662 56.8401 86.1046 54.1263 86.1046Z" fill="#F2F2F7"/>
<path d="M25.4801 90.0247C25.3293 90.3262 25.3293 90.7785 25.3293 91.08H59.1017C59.1017 90.6277 59.1017 90.3262 58.9509 90.0247H25.4801Z" fill="#E2E6E8"/>
<path d="M42.2155 72.8369C43.3813 72.8369 44.3263 71.8919 44.3263 70.7261C44.3263 69.5604 43.3813 68.6154 42.2155 68.6154C41.0498 68.6154 40.1047 69.5604 40.1047 70.7261C40.1047 71.8919 41.0498 72.8369 42.2155 72.8369Z" fill="#8FA1B0"/>
</svg>
