<svg width="148" height="131" viewBox="0 0 148 131" fill="none" xmlns="http://www.w3.org/2000/svg">
<g clip-path="url(#clip0_3731_37707)">
<path d="M74.0203 73.4902C69.7818 73.4902 66.3459 76.9093 66.3459 81.1271C66.3459 85.3448 69.7818 88.7639 74.0203 88.7639C78.2588 88.7639 81.6948 85.3448 81.6948 81.1271C81.6948 76.9093 78.2588 73.4902 74.0203 73.4902Z" fill="#EA4235"/>
<path d="M91.7388 72.2198L75.142 65.3032C74.7869 65.1551 74.4057 65.0789 74.0206 65.0789C73.6356 65.0789 73.2544 65.1551 72.8992 65.3032L56.3045 72.2198C53.3624 73.4372 50.8688 69.7466 53.1238 67.5026L70.5239 50.1877C70.9833 49.7303 71.5287 49.3675 72.129 49.1199C72.7294 48.8723 73.3728 48.7449 74.0227 48.7449C74.6725 48.7449 75.316 48.8723 75.9163 49.1199C76.5167 49.3675 77.0621 49.7303 77.5215 50.1877L94.9236 67.5026C97.1745 69.7466 94.6789 73.4453 91.7388 72.2198Z" fill="#EA4235"/>
<path d="M74.0145 0.4753C75.5324 0.4753 77.0161 0.923194 78.2782 1.76235C79.5403 2.6015 80.5239 3.79421 81.1048 5.18967C81.6856 6.58513 81.8376 8.12065 81.5415 9.60206C81.2454 11.0835 80.5145 12.4442 79.4412 13.5123C78.3679 14.5803 77.0004 15.3077 75.5117 15.6023C74.023 15.897 72.4799 15.7458 71.0776 15.1677C69.6753 14.5897 68.4767 13.6109 67.6334 12.355C66.7901 11.0991 66.34 9.62261 66.34 8.11218C66.3422 6.08741 67.1514 4.14619 68.5902 2.71446C70.029 1.28274 71.9798 0.477448 74.0145 0.4753Z" fill="#34A853"/>
<path d="M75.1425 23.9376L91.7393 17.021C94.6794 15.8036 97.173 19.4922 94.92 21.7362L77.5179 39.0551C76.5896 39.9779 75.3312 40.4962 74.0191 40.4962C72.707 40.4962 71.4485 39.9779 70.5203 39.0551L53.1202 21.7382C50.8651 19.4942 53.3587 15.7955 56.3009 17.023L72.8956 23.9396C73.2517 24.0869 73.6336 24.1626 74.0193 24.1623C74.4049 24.1619 74.7867 24.0855 75.1425 23.9376Z" fill="#34A853"/>
<path d="M110.991 36.9594C112.508 36.9594 113.992 37.4073 115.254 38.2465C116.516 39.0856 117.5 40.2784 118.081 41.6738C118.662 43.0693 118.814 44.6048 118.518 46.0862C118.221 47.5676 117.491 48.9284 116.417 49.9964C115.344 51.0645 113.976 51.7918 112.488 52.0865C110.999 52.3811 109.456 52.2299 108.054 51.6519C106.651 51.0739 105.453 50.095 104.609 48.8391C103.766 47.5833 103.316 46.1068 103.316 44.5963C103.318 42.5716 104.127 40.6303 105.566 39.1986C107.005 37.7669 108.956 36.9616 110.991 36.9594V36.9594Z" fill="#4385F5"/>
<path d="M95.9731 45.714L102.649 61.5761C103.872 64.5039 100.165 66.9852 97.9101 64.7412L81.191 48.104C80.7313 47.6469 80.3667 47.1042 80.1179 46.5068C79.8691 45.9094 79.7411 45.2691 79.7411 44.6224C79.7411 43.9757 79.8691 43.3354 80.1179 42.738C80.3667 42.1406 80.7313 41.5979 81.191 41.1408L97.8693 24.5381C100.128 22.2941 103.845 24.7754 102.612 27.693L95.9731 43.4781C95.8247 43.8323 95.7483 44.2123 95.7483 44.596C95.7483 44.9798 95.8247 45.3597 95.9731 45.714V45.714Z" fill="#4385F5"/>
<path d="M37.0096 36.9594C38.5275 36.9594 40.0112 37.4073 41.2733 38.2465C42.5354 39.0856 43.519 40.2783 44.0999 41.6738C44.6808 43.0692 44.8327 44.6048 44.5366 46.0862C44.2405 47.5676 43.5096 48.9284 42.4363 49.9964C41.363 51.0644 39.9955 51.7918 38.5068 52.0865C37.0181 52.3811 35.475 52.2299 34.0727 51.6519C32.6704 51.0739 31.4718 50.095 30.6285 48.8391C29.7852 47.5833 29.3351 46.1067 29.3351 44.5963C29.3373 42.5715 30.1465 40.6303 31.5853 39.1986C33.0241 37.7668 34.9749 36.9616 37.0096 36.9594V36.9594Z" fill="#FABC05"/>
<path d="M66.8495 48.1023L50.0631 64.8064C47.8081 67.0504 44.0911 64.567 45.3247 61.6413L52.0266 45.7142C52.1754 45.3608 52.2521 44.9815 52.2521 44.5983C52.2521 44.2151 52.1754 43.8358 52.0266 43.4824L45.3593 27.6385C44.136 24.7108 47.8427 22.2294 50.0978 24.4734L66.8495 41.143C67.7766 42.0661 68.2974 43.3176 68.2974 44.6227C68.2974 45.9277 67.7766 47.1792 66.8495 48.1023V48.1023Z" fill="#FABC05"/>
</g>
<path d="M8.94828 117.586H4.26724V114.082H8.94828C9.58621 114.082 10.1034 113.974 10.5 113.759C10.8966 113.543 11.1853 113.246 11.3664 112.867C11.556 112.479 11.6509 112.043 11.6509 111.56C11.6509 111.043 11.556 110.565 11.3664 110.125C11.1853 109.685 10.8966 109.332 10.5 109.065C10.1034 108.789 9.58621 108.651 8.94828 108.651H5.97414V123.974H1.43534V105.147H8.94828C10.4569 105.147 11.7543 105.423 12.8405 105.974C13.9353 106.526 14.7759 107.285 15.3621 108.25C15.9483 109.207 16.2414 110.302 16.2414 111.535C16.2414 112.75 15.9483 113.81 15.3621 114.716C14.7759 115.621 13.9353 116.328 12.8405 116.836C11.7543 117.336 10.4569 117.586 8.94828 117.586ZM25.0733 124.233C23.9353 124.233 22.9181 124.056 22.0216 123.703C21.125 123.341 20.3664 122.845 19.7457 122.216C19.1336 121.586 18.6638 120.862 18.3362 120.043C18.0172 119.224 17.8578 118.358 17.8578 117.444V116.953C17.8578 115.927 18 114.979 18.2845 114.108C18.569 113.229 18.9914 112.461 19.5517 111.806C20.1121 111.151 20.8147 110.642 21.6595 110.28C22.5043 109.91 23.4871 109.724 24.6078 109.724C25.5991 109.724 26.4871 109.884 27.2715 110.203C28.056 110.522 28.7198 110.979 29.2629 111.573C29.8147 112.168 30.2328 112.888 30.5172 113.733C30.8103 114.578 30.9569 115.526 30.9569 116.578V118.349H19.5259V115.621H26.7026V115.285C26.7112 114.819 26.6293 114.423 26.4569 114.095C26.2931 113.767 26.0517 113.517 25.7328 113.345C25.4138 113.173 25.0259 113.086 24.569 113.086C24.0948 113.086 23.7026 113.19 23.3922 113.397C23.0905 113.604 22.8534 113.888 22.681 114.25C22.5172 114.604 22.4009 115.013 22.3319 115.479C22.2629 115.944 22.2284 116.435 22.2284 116.953V117.444C22.2284 117.961 22.2974 118.431 22.4353 118.854C22.5819 119.276 22.7888 119.638 23.056 119.94C23.3319 120.233 23.6595 120.461 24.0388 120.625C24.4267 120.789 24.8664 120.871 25.3578 120.871C25.9526 120.871 26.5388 120.759 27.1164 120.535C27.694 120.31 28.1897 119.94 28.6034 119.423L30.5819 121.776C30.2974 122.181 29.8922 122.573 29.3664 122.953C28.8491 123.332 28.2284 123.642 27.5043 123.884C26.7802 124.117 25.9698 124.233 25.0733 124.233ZM32.1853 117.121V116.849C32.1853 115.823 32.3319 114.879 32.625 114.017C32.9181 113.147 33.3491 112.392 33.9181 111.754C34.4871 111.117 35.1897 110.621 36.0259 110.267C36.8621 109.905 37.8276 109.724 38.9224 109.724C40.0259 109.724 40.9957 109.905 41.8319 110.267C42.6767 110.621 43.3836 111.117 43.9526 111.754C44.5215 112.392 44.9526 113.147 45.2457 114.017C45.5388 114.879 45.6853 115.823 45.6853 116.849V117.121C45.6853 118.138 45.5388 119.082 45.2457 119.953C44.9526 120.815 44.5215 121.569 43.9526 122.216C43.3836 122.854 42.681 123.349 41.8448 123.703C41.0086 124.056 40.0431 124.233 38.9483 124.233C37.8534 124.233 36.8836 124.056 36.0388 123.703C35.194 123.349 34.4871 122.854 33.9181 122.216C33.3491 121.569 32.9181 120.815 32.625 119.953C32.3319 119.082 32.1853 118.138 32.1853 117.121ZM36.5431 116.849V117.121C36.5431 117.647 36.5819 118.138 36.6595 118.595C36.7371 119.052 36.8664 119.453 37.0474 119.798C37.2284 120.134 37.4741 120.397 37.7845 120.586C38.0948 120.776 38.4828 120.871 38.9483 120.871C39.4052 120.871 39.7845 120.776 40.0862 120.586C40.3965 120.397 40.6422 120.134 40.8233 119.798C41.0043 119.453 41.1336 119.052 41.2112 118.595C41.2888 118.138 41.3276 117.647 41.3276 117.121V116.849C41.3276 116.341 41.2888 115.862 41.2112 115.414C41.1336 114.957 41.0043 114.556 40.8233 114.211C40.6422 113.858 40.3965 113.582 40.0862 113.384C39.7759 113.185 39.3879 113.086 38.9224 113.086C38.4655 113.086 38.0819 113.185 37.7715 113.384C37.4698 113.582 37.2284 113.858 37.0474 114.211C36.8664 114.556 36.7371 114.957 36.6595 115.414C36.5819 115.862 36.5431 116.341 36.5431 116.849ZM52.0215 112.673V129.354H47.6638V109.983H51.7241L52.0215 112.673ZM60.6078 116.81V117.082C60.6078 118.099 60.4914 119.043 60.2586 119.914C60.0259 120.785 59.681 121.543 59.2241 122.19C58.7672 122.836 58.1983 123.341 57.5172 123.703C56.8448 124.056 56.0647 124.233 55.1767 124.233C54.3405 124.233 53.6207 124.048 53.0172 123.677C52.4138 123.306 51.9095 122.793 51.5043 122.138C51.0991 121.483 50.7715 120.733 50.5215 119.888C50.2715 119.043 50.0733 118.151 49.9267 117.211V116.862C50.0733 115.854 50.2715 114.918 50.5215 114.056C50.7715 113.185 51.0991 112.427 51.5043 111.78C51.9095 111.134 52.4095 110.629 53.0043 110.267C53.6078 109.905 54.3276 109.724 55.1638 109.724C56.0517 109.724 56.8319 109.892 57.5043 110.229C58.1853 110.565 58.7543 111.048 59.2112 111.677C59.6767 112.298 60.0259 113.043 60.2586 113.914C60.4914 114.785 60.6078 115.75 60.6078 116.81ZM56.25 117.082V116.81C56.25 116.267 56.2112 115.772 56.1336 115.323C56.056 114.867 55.931 114.47 55.7586 114.134C55.5948 113.798 55.375 113.539 55.0991 113.358C54.8233 113.177 54.4828 113.086 54.0776 113.086C53.6121 113.086 53.2198 113.16 52.9009 113.306C52.5905 113.444 52.3405 113.66 52.1509 113.953C51.9698 114.237 51.8405 114.595 51.7629 115.026C51.694 115.448 51.6638 115.944 51.6724 116.513V117.573C51.6552 118.229 51.7198 118.806 51.8664 119.306C52.0129 119.798 52.2672 120.181 52.6293 120.457C52.9914 120.733 53.4828 120.871 54.1034 120.871C54.5172 120.871 54.8621 120.776 55.1379 120.586C55.4138 120.388 55.6336 120.117 55.7974 119.772C55.9612 119.418 56.0776 119.013 56.1465 118.556C56.2155 118.099 56.25 117.608 56.25 117.082ZM67.1509 104.112V123.974H62.7802V104.112H67.1509ZM76.6164 124.233C75.4784 124.233 74.4612 124.056 73.5647 123.703C72.6681 123.341 71.9095 122.845 71.2888 122.216C70.6767 121.586 70.2069 120.862 69.8793 120.043C69.5603 119.224 69.4009 118.358 69.4009 117.444V116.953C69.4009 115.927 69.5431 114.979 69.8276 114.108C70.1121 113.229 70.5345 112.461 71.0948 111.806C71.6552 111.151 72.3578 110.642 73.2026 110.28C74.0474 109.91 75.0302 109.724 76.1509 109.724C77.1422 109.724 78.0302 109.884 78.8147 110.203C79.5991 110.522 80.2629 110.979 80.806 111.573C81.3578 112.168 81.7759 112.888 82.0603 113.733C82.3534 114.578 82.5 115.526 82.5 116.578V118.349H71.069V115.621H78.2457V115.285C78.2543 114.819 78.1724 114.423 78 114.095C77.8362 113.767 77.5948 113.517 77.2759 113.345C76.9569 113.173 76.569 113.086 76.1121 113.086C75.6379 113.086 75.2457 113.19 74.9353 113.397C74.6336 113.604 74.3966 113.888 74.2241 114.25C74.0603 114.604 73.944 115.013 73.875 115.479C73.806 115.944 73.7716 116.435 73.7716 116.953V117.444C73.7716 117.961 73.8405 118.431 73.9784 118.854C74.125 119.276 74.3319 119.638 74.5991 119.94C74.875 120.233 75.2026 120.461 75.5819 120.625C75.9698 120.789 76.4095 120.871 76.9009 120.871C77.4957 120.871 78.0819 120.759 78.6595 120.535C79.2371 120.31 79.7328 119.94 80.1466 119.423L82.125 121.776C81.8405 122.181 81.4353 122.573 80.9095 122.953C80.3922 123.332 79.7716 123.642 79.0474 123.884C78.3233 124.117 77.5129 124.233 76.6164 124.233ZM90.5948 123.974H86.4181L86.444 120.483H90.5948C91.4569 120.483 92.1853 120.276 92.7802 119.862C93.3836 119.448 93.8405 118.832 94.1509 118.013C94.4698 117.185 94.6293 116.168 94.6293 114.961V114.147C94.6293 113.242 94.5388 112.448 94.3578 111.767C94.1853 111.078 93.9267 110.504 93.5819 110.048C93.2371 109.582 92.806 109.233 92.2888 109C91.7802 108.767 91.194 108.651 90.5302 108.651H86.3405V105.147H90.5302C91.806 105.147 92.9741 105.367 94.0345 105.806C95.1034 106.237 96.0259 106.858 96.8017 107.668C97.5862 108.47 98.1896 109.423 98.6121 110.526C99.0431 111.621 99.2586 112.836 99.2586 114.173V114.961C99.2586 116.289 99.0431 117.504 98.6121 118.608C98.1896 119.711 97.5905 120.664 96.8146 121.466C96.0388 122.267 95.1207 122.888 94.0603 123.328C93.0086 123.759 91.8534 123.974 90.5948 123.974ZM89.0172 105.147V123.974H84.4784V105.147H89.0172ZM108.194 124.233C107.056 124.233 106.039 124.056 105.142 123.703C104.246 123.341 103.487 122.845 102.866 122.216C102.254 121.586 101.784 120.862 101.457 120.043C101.138 119.224 100.978 118.358 100.978 117.444V116.953C100.978 115.927 101.121 114.979 101.405 114.108C101.69 113.229 102.112 112.461 102.672 111.806C103.233 111.151 103.935 110.642 104.78 110.28C105.625 109.91 106.608 109.724 107.728 109.724C108.72 109.724 109.608 109.884 110.392 110.203C111.177 110.522 111.841 110.979 112.384 111.573C112.935 112.168 113.353 112.888 113.638 113.733C113.931 114.578 114.078 115.526 114.078 116.578V118.349H102.647V115.621H109.823V115.285C109.832 114.819 109.75 114.423 109.578 114.095C109.414 113.767 109.172 113.517 108.853 113.345C108.534 113.173 108.147 113.086 107.69 113.086C107.216 113.086 106.823 113.19 106.513 113.397C106.211 113.604 105.974 113.888 105.802 114.25C105.638 114.604 105.522 115.013 105.453 115.479C105.384 115.944 105.349 116.435 105.349 116.953V117.444C105.349 117.961 105.418 118.431 105.556 118.854C105.703 119.276 105.909 119.638 106.177 119.94C106.453 120.233 106.78 120.461 107.159 120.625C107.547 120.789 107.987 120.871 108.478 120.871C109.073 120.871 109.659 120.759 110.237 120.535C110.815 120.31 111.31 119.94 111.724 119.423L113.703 121.776C113.418 122.181 113.013 122.573 112.487 122.953C111.97 123.332 111.349 123.642 110.625 123.884C109.901 124.117 109.091 124.233 108.194 124.233ZM123.181 120.043C123.181 119.802 123.099 119.595 122.935 119.423C122.78 119.242 122.504 119.078 122.108 118.931C121.711 118.776 121.155 118.621 120.44 118.466C119.759 118.319 119.116 118.125 118.513 117.884C117.918 117.642 117.397 117.349 116.948 117.004C116.5 116.66 116.147 116.25 115.888 115.776C115.638 115.302 115.513 114.759 115.513 114.147C115.513 113.552 115.638 112.992 115.888 112.466C116.147 111.931 116.522 111.461 117.013 111.056C117.513 110.642 118.121 110.319 118.836 110.086C119.552 109.845 120.366 109.724 121.28 109.724C122.539 109.724 123.625 109.918 124.539 110.306C125.453 110.685 126.155 111.22 126.647 111.91C127.147 112.591 127.397 113.379 127.397 114.276H123.039C123.039 113.923 122.978 113.621 122.858 113.371C122.746 113.121 122.56 112.931 122.302 112.802C122.043 112.664 121.698 112.595 121.267 112.595C120.966 112.595 120.69 112.651 120.44 112.763C120.198 112.875 120.004 113.03 119.858 113.229C119.711 113.427 119.638 113.66 119.638 113.927C119.638 114.117 119.681 114.289 119.767 114.444C119.862 114.591 120.004 114.729 120.194 114.858C120.384 114.979 120.625 115.091 120.918 115.194C121.211 115.289 121.565 115.375 121.978 115.453C122.918 115.625 123.797 115.871 124.616 116.19C125.435 116.509 126.099 116.961 126.608 117.548C127.125 118.134 127.384 118.923 127.384 119.914C127.384 120.535 127.241 121.108 126.957 121.634C126.672 122.151 126.263 122.608 125.728 123.004C125.194 123.392 124.552 123.694 123.802 123.91C123.052 124.125 122.207 124.233 121.267 124.233C119.931 124.233 118.802 123.996 117.879 123.522C116.957 123.039 116.259 122.435 115.784 121.711C115.319 120.979 115.086 120.237 115.086 119.487H119.147C119.164 119.918 119.267 120.272 119.457 120.548C119.655 120.823 119.918 121.026 120.246 121.155C120.573 121.285 120.953 121.349 121.384 121.349C121.78 121.349 122.108 121.293 122.366 121.181C122.634 121.069 122.836 120.918 122.974 120.729C123.112 120.53 123.181 120.302 123.181 120.043ZM133.823 104.099V123.974H129.466V104.099H133.823ZM142.772 109.983L136.694 117.108L133.513 120.289L131.612 117.522L134.263 114.069L137.547 109.983H142.772ZM138.103 123.974L134.366 117.599L137.586 115.31L143.095 123.974H138.103Z" fill="#475467"/>
<defs>
<clipPath id="clip0_3731_37707">
<rect width="89.331" height="88.2888" fill="white" transform="translate(118.665 88.764) rotate(-180)"/>
</clipPath>
</defs>
</svg>
