<svg width="24" height="24" viewBox="0 0 24 24" fill="none" xmlns="http://www.w3.org/2000/svg">
<rect width="24" height="24" rx="12" fill="#F79009"/>
<path d="M10.9148 17H7.61861V6.81818H11.0192C12.0168 6.81818 12.8736 7.02202 13.5895 7.42969C14.3054 7.83404 14.8539 8.41572 15.2351 9.17472C15.6196 9.9304 15.8118 10.8369 15.8118 11.8942C15.8118 12.9548 15.6179 13.8662 15.2301 14.6286C14.8456 15.3909 14.2888 15.9775 13.5597 16.3885C12.8305 16.7962 11.9489 17 10.9148 17ZM9.15483 15.6577H10.8303C11.6058 15.6577 12.2505 15.5118 12.7642 15.2202C13.2779 14.9252 13.6624 14.4993 13.9176 13.9425C14.1728 13.3823 14.3004 12.6996 14.3004 11.8942C14.3004 11.0954 14.1728 10.4176 13.9176 9.8608C13.6657 9.30398 13.2895 8.88139 12.7891 8.59304C12.2886 8.30469 11.6671 8.16051 10.9247 8.16051H9.15483V15.6577Z" fill="white"/>
</svg>
