<svg width="100" height="100" viewBox="0 0 100 100" fill="none" xmlns="http://www.w3.org/2000/svg">
<rect width="100" height="100" rx="50" fill="#E4F8DD"/>
<path d="M79.9448 44.2411H79.8686H21.1245L50.5337 25.6065L54.7151 28.2908H54.7187C54.4745 29.165 54.3453 30.0869 54.3453 31.0371C54.3453 36.7366 58.9939 41.3834 64.6898 41.3834C67.2626 41.3834 69.6198 40.435 71.4353 38.8707L79.9448 44.2411Z" fill="#E4E8EB"/>
<path d="M79.8682 44.2411V50.2575H77.391H69.2512H66.2431H58.1033H42.8855H34.9228H31.9146H23.7749H21.1206V44.2411H21.124H79.8682Z" fill="#CAD0D7"/>
<path d="M77.3912 50.2574V52.9117H75.6216H71.021H69.2514V50.2574H77.3912Z" fill="#E4E8EB"/>
<path d="M71.0211 52.9117H75.6217V78.9235H71.0211V52.9117Z" fill="#CAD0D7"/>
<path d="M71.4348 38.8707C69.6193 40.435 67.2621 41.3834 64.6894 41.3834C58.9934 41.3834 54.3448 36.7366 54.3448 31.0371C54.3448 30.0869 54.474 29.165 54.7182 28.2908C55.9249 23.9202 59.9434 20.6961 64.6894 20.6961C70.3855 20.6961 75.0357 25.3394 75.0357 31.0371C75.0357 34.1637 73.6361 36.9719 71.4348 38.8707Z" fill="#FDCD56"/>
<path d="M71.0212 52.9117V78.9235H64.4739V52.9117H66.2436V50.2574H69.2516V52.9117H71.0212Z" fill="#636C77"/>
<path d="M66.2431 50.2574V52.9117H64.4735H59.8729H58.1033V50.2574H66.2431Z" fill="#E4E8EB"/>
<path d="M59.8734 52.9117H64.474V78.9235H59.8734V52.9117Z" fill="#CAD0D7"/>
<path d="M59.8729 52.9117V78.9235H56.6877V62.2902H44.478V78.9235H41.116V52.9117H42.8855V50.2574H58.1033V52.9117H59.8729Z" fill="#636C77"/>
<path d="M44.4781 62.2902H56.6878V78.9235H44.4781V62.2902Z" fill="#424852"/>
<path d="M42.8853 50.2574V52.9117H41.1158H36.692H34.9225V50.2574H42.8853Z" fill="#E4E8EB"/>
<path d="M36.6927 52.9117H41.1165V78.9235H36.6927V52.9117Z" fill="#CAD0D7"/>
<path d="M36.6924 52.9117V78.9235H30.1452V52.9117H31.9147V50.2574H34.9229V52.9117H36.6924Z" fill="#636C77"/>
<path d="M31.9149 50.2574V52.9117H30.1454H25.5447H23.7752V50.2574H31.9149Z" fill="#E4E8EB"/>
<path d="M25.5445 52.9117H30.1452V78.9235H25.5445V52.9117Z" fill="#CAD0D7"/>
<path d="M79.8684 78.0273H62.1733H56.6879H44.4782H38.8157H21.1207C20.6321 78.0273 20.236 78.4274 20.236 78.916C20.236 79.4046 20.632 79.8047 21.1207 79.8047H38.8158H44.4783H56.688H62.1734H79.8685C80.3572 79.8047 80.7534 79.4046 80.7534 78.916C80.7534 78.4274 80.357 78.0273 79.8684 78.0273Z" fill="#424852"/>
<path d="M79.8684 82.9934H21.1207C20.6321 82.9934 20.236 82.5973 20.236 82.1085C20.236 81.6198 20.632 81.2237 21.1207 81.2237H79.8684C80.357 81.2237 80.7532 81.6198 80.7532 82.1085C80.7532 82.5973 80.357 82.9934 79.8684 82.9934Z" fill="#424852"/>
<path d="M65.3128 30.136C63.925 29.6431 63.5464 29.0232 63.5804 28.8002C63.6079 28.6199 63.9788 28.3535 64.7122 28.3257C65.203 28.3098 65.7506 28.3958 66.3407 28.5811C66.8066 28.7274 67.3034 28.468 67.4497 28.0018C67.596 27.5356 67.3621 27.039 66.8956 26.8927C66.4373 26.7489 65.859 26.6521 65.5856 26.6V25.4843C65.5856 24.9956 65.1855 24.5994 64.6969 24.5994C64.2083 24.5994 63.8082 24.9956 63.8082 25.4843V26.6817C62.7145 26.9498 61.9914 27.6247 61.8522 28.533C61.6952 29.562 62.3608 30.9618 64.7315 31.8037C65.6744 32.1381 66.0541 32.571 66.0172 32.8515C65.9812 33.1252 65.5759 33.5195 64.8917 33.6609C64.8152 33.6394 64.735 33.6241 64.6515 33.6241C64.5167 33.6241 64.3893 33.6568 64.2747 33.7109C63.8148 33.6972 63.3371 33.5719 62.8766 33.3378C62.4412 33.1167 61.9082 33.2902 61.6869 33.7258C61.4655 34.1614 61.6605 34.6941 62.0961 34.9154C62.6439 35.1938 63.2612 35.3716 63.8081 35.4451V36.4554C63.8081 36.944 64.2081 37.3401 64.6968 37.3401C65.1854 37.3401 65.5854 36.944 65.5854 36.4554V35.3206C66.8159 34.9764 67.6558 34.1149 67.7914 33.0819C67.8528 32.6166 67.8312 31.0293 65.3128 30.136Z" fill="white"/>
</svg>
