<svg width="105" height="111" viewBox="0 0 105 111" fill="none" xmlns="http://www.w3.org/2000/svg">
<path d="M53.3437 92.5001H8.09881C4.01197 92.5001 0.698883 89.187 0.698883 85.1004V77.7002H56.8187L53.3437 92.5001Z" fill="#DBDBDC"/>
<path d="M0.698883 20.3501V77.7C0.698883 81.7868 4.01197 85.0999 8.09881 85.0999H52.5008L96.9062 66.786V20.3501L48.8026 20.3501H0.698883Z" fill="#F2F2F7"/>
<path d="M91.7695 66.786H96.9063V26.1934L91.7695 26.1934L91.7695 66.786Z" fill="#DBDBDC"/>
<path d="M96.9062 26.1934V14.7999C96.9062 10.713 93.5931 7.39995 89.5065 7.39995H8.09881C4.01197 7.39995 0.698883 10.713 0.698883 14.7999L0.698883 26.1934H96.9062Z" fill="#3570D4"/>
<path d="M89.5065 7.39995H84.3678C88.4546 7.39995 91.7675 10.713 91.7675 14.7999V26.1934H96.9063V14.7999C96.9063 10.713 93.5934 7.39995 89.5065 7.39995Z" fill="#2C5BC0"/>
<path d="M32.1489 13.875C32.1489 16.4293 30.0783 18.4999 27.524 18.4999C24.9697 18.4999 22.8991 16.4293 22.8991 13.875V4.62493C22.8989 2.07063 24.9695 0 27.5238 0C30.0781 0 32.1487 2.07063 32.1487 4.62493V13.875H32.1489Z" fill="#1B3692"/>
<path d="M74.7014 13.875C74.7014 16.4293 72.6308 18.4999 70.0765 18.4999C67.5222 18.4999 65.4514 16.4293 65.4514 13.875V4.62493C65.4514 2.07063 67.5222 0 70.0765 0C72.6308 0 74.7014 2.07063 74.7014 4.62493V13.875Z" fill="#1B3692"/>
<path d="M28.5671 48.1001H24.636C23.6781 48.1001 22.9016 47.3235 22.9016 46.3657V42.4345C22.9016 41.4767 23.6781 40.7002 24.636 40.7002H28.5671C29.5249 40.7002 30.3015 41.4767 30.3015 42.4345V46.3657C30.3015 47.3235 29.5249 48.1001 28.5671 48.1001Z" fill="#8FA1B0"/>
<path d="M43.3671 48.1001H39.4357C38.4779 48.1001 37.7014 47.3235 37.7014 46.3657V42.4345C37.7014 41.4767 38.4779 40.7002 39.4357 40.7002H43.3669C44.3247 40.7002 45.1013 41.4767 45.1013 42.4345V46.3657C45.1015 47.3235 44.3249 48.1001 43.3671 48.1001V48.1001Z" fill="#8FA1B0"/>
<path d="M58.1671 48.1001H54.2359C53.2781 48.1001 52.5015 47.3235 52.5015 46.3657V42.4345C52.5015 41.4767 53.2781 40.7002 54.2359 40.7002H58.1671C59.1249 40.7002 59.9015 41.4767 59.9015 42.4345V46.3657C59.9015 47.3235 59.1251 48.1001 58.1671 48.1001Z" fill="#8FA1B0"/>
<path d="M72.9647 48.1001H69.0335C68.0757 48.1001 67.2991 47.3235 67.2991 46.3657V42.4345C67.2991 41.4767 68.0757 40.7002 69.0335 40.7002H72.9647C73.9225 40.7002 74.6991 41.4767 74.6991 42.4345V46.3657C74.6991 47.3235 73.9225 48.1001 72.9647 48.1001Z" fill="#3570D4"/>
<path d="M87.7647 48.1001H83.8336C82.8757 48.1001 82.0992 47.3235 82.0992 46.3657V42.4345C82.0992 41.4767 82.8757 40.7002 83.8336 40.7002H87.7647C88.7225 40.7002 89.4991 41.4767 89.4991 42.4345V46.3657C89.4991 47.3235 88.7225 48.1001 87.7647 48.1001Z" fill="#8FA1B0"/>
<path d="M82.099 59.4622V57.3501C82.099 56.3284 82.9272 55.5002 83.9489 55.5002H87.649C88.6708 55.5002 89.4989 56.3284 89.4989 57.3501V61.05C89.4989 61.2583 89.4645 61.4584 89.4012 61.6453" fill="#8FA1B0"/>
<path d="M13.767 62.9001H9.83582C8.87801 62.9001 8.10144 62.1236 8.10144 61.1658V57.2344C8.10144 56.2766 8.87801 55.5 9.83582 55.5H13.767C14.7248 55.5 15.5014 56.2766 15.5014 57.2344V61.1656C15.5014 62.1236 14.7248 62.9001 13.767 62.9001V62.9001Z" fill="#8FA1B0"/>
<path d="M28.5671 62.9001H24.636C23.6781 62.9001 22.9016 62.1236 22.9016 61.1658V57.2344C22.9016 56.2766 23.6781 55.5 24.636 55.5H28.5671C29.5249 55.5 30.3015 56.2766 30.3015 57.2344V61.1656C30.3015 62.1236 29.5249 62.9001 28.5671 62.9001V62.9001Z" fill="#3570D4"/>
<path d="M43.367 62.9001H39.4356C38.4778 62.9001 37.7012 62.1236 37.7012 61.1658V57.2344C37.7012 56.2766 38.4778 55.5 39.4356 55.5H43.3668C44.3246 55.5 45.1012 56.2766 45.1012 57.2344V61.1656C45.1014 62.1236 44.3248 62.9001 43.367 62.9001V62.9001Z" fill="#8FA1B0"/>
<path d="M13.7669 77.7002H9.83572C8.87792 77.7002 8.10135 76.9237 8.10135 75.9659V72.0347C8.10135 71.0769 8.87792 70.3003 9.83572 70.3003H13.7669C14.7247 70.3003 15.5013 71.0769 15.5013 72.0347V75.9659C15.5013 76.9237 14.7247 77.7002 13.7669 77.7002Z" fill="#8FA1B0"/>
<path d="M28.5669 77.7002H24.6357C23.6779 77.7002 22.9014 76.9237 22.9014 75.9659V72.0347C22.9014 71.0769 23.6779 70.3003 24.6357 70.3003H28.5669C29.5247 70.3003 30.3013 71.0769 30.3013 72.0347V75.9659C30.3013 76.9237 29.5247 77.7002 28.5669 77.7002Z" fill="#8FA1B0"/>
<path d="M43.367 77.7002H39.4356C38.4778 77.7002 37.7012 76.9237 37.7012 75.9659V72.0347C37.7012 71.0769 38.4778 70.3003 39.4356 70.3003H43.3668C44.3246 70.3003 45.1012 71.0769 45.1012 72.0347V75.9659C45.1014 76.9237 44.3248 77.7002 43.367 77.7002V77.7002Z" fill="#8FA1B0"/>
<path d="M58.1669 62.9001H54.2357C53.2779 62.9001 52.5014 62.1236 52.5014 61.1658V57.2344C52.5014 56.2766 53.2779 55.5 54.2357 55.5H58.1669C59.1247 55.5 59.9013 56.2766 59.9013 57.2344V61.1656C59.9013 62.1236 59.125 62.9001 58.1669 62.9001V62.9001Z" fill="#8FA1B0"/>
<path d="M67.3989 61.6462C67.3353 61.4591 67.3007 61.2588 67.3007 61.0502V57.3501C67.3007 56.3284 68.129 55.5002 69.1506 55.5002H72.8507C73.8724 55.5002 74.7006 56.3284 74.7006 57.3501V59.4617" fill="#8FA1B0"/>
<path d="M70.0763 0C69.1268 0 68.2449 0.287039 67.5106 0.777867C68.7517 1.60733 69.5697 3.02041 69.5697 4.62514V13.875C69.5697 15.4797 68.7517 16.8928 67.5106 17.7223C68.2449 18.2129 69.127 18.4999 70.0763 18.4999C72.6306 18.4999 74.7015 16.4293 74.7015 13.875V4.62493C74.7015 2.07063 72.6309 0 70.0763 0Z" fill="#1B3692"/>
<path d="M27.5238 0C26.5743 0 25.6923 0.287039 24.9578 0.777867C26.199 1.60733 27.017 3.02041 27.017 4.62514V13.875C27.017 15.4797 26.199 16.8928 24.9578 17.7223C25.6921 18.2129 26.5743 18.4999 27.5238 18.4999C30.0781 18.4999 32.1488 16.4293 32.1488 13.875V4.62493C32.149 2.07063 30.0781 0 27.5238 0Z" fill="#1B3692"/>
<path d="M78.4008 111C92.7051 111 104.301 99.4041 104.301 85.0999C104.301 70.7957 92.7051 59.1999 78.4008 59.1999C64.0966 59.1999 52.5008 70.7957 52.5008 85.0999C52.5008 99.4041 64.0966 111 78.4008 111Z" fill="#F4C94B"/>
<path d="M78.401 59.1999C77.5342 59.1999 76.6774 59.2432 75.8326 59.3265C88.931 60.616 99.1643 71.6625 99.1643 85.1C99.1643 98.5375 88.931 109.584 75.8326 110.873C76.6774 110.957 77.5342 111 78.401 111C92.7052 111 104.301 99.4042 104.301 85.1C104.301 70.7957 92.7052 59.1999 78.401 59.1999Z" fill="#EFB100"/>
<path d="M78.4008 59.1999C77.838 59.1999 77.2798 59.2198 76.7259 59.2552V66.6C76.7259 67.5251 77.4758 68.275 78.4008 68.275C79.3259 68.275 80.0758 67.5251 80.0758 66.6V59.2554C79.5219 59.22 78.9639 59.1999 78.4008 59.1999V59.1999Z" fill="#FFF5D0"/>
<path d="M58.9417 68.0096L64.135 73.203C64.4622 73.5302 64.8908 73.6936 65.3194 73.6936C65.748 73.6936 66.1768 73.5302 66.5038 73.203C67.1581 72.5489 67.1581 71.4884 66.5038 70.8341L61.3104 65.6407C60.471 66.3787 59.6797 67.17 58.9417 68.0096V68.0096Z" fill="#FFF5D0"/>
<path d="M59.9009 83.425H52.5563C52.521 83.9789 52.5008 84.5372 52.5008 85.1C52.5008 85.6628 52.5207 86.221 52.5563 86.7752H59.9009C60.826 86.7752 61.5759 86.0253 61.5759 85.1002C61.5759 84.1749 60.826 83.425 59.9009 83.425Z" fill="#FFF5D0"/>
<path d="M64.135 96.9971L58.9417 102.19C59.6797 103.03 60.471 103.821 61.3106 104.559L66.504 99.3661C67.1583 98.712 67.1583 97.6512 66.504 96.9971C65.8497 96.3428 64.7891 96.3428 64.135 96.9971Z" fill="#FFF5D0"/>
<path d="M78.4008 101.925C77.4758 101.925 76.7259 102.675 76.7259 103.6V110.945C77.2798 110.98 77.838 111 78.4008 111C78.9639 111 79.5219 110.98 80.076 110.945V103.6C80.076 102.675 79.3259 101.925 78.4008 101.925Z" fill="#FFF5D0"/>
<path d="M97.8601 102.19L92.6668 96.9971C92.0127 96.343 90.9521 96.343 90.298 96.9971C89.6438 97.6512 89.6438 98.712 90.298 99.3661L95.4914 104.559C96.3309 103.821 97.1222 103.03 97.8601 102.19Z" fill="#FFF5D0"/>
<path d="M95.4912 65.6407L90.2978 70.8341C89.6436 71.4882 89.6436 72.5487 90.2978 73.203C90.6248 73.5302 91.0536 73.6936 91.4822 73.6936C91.9108 73.6936 92.3396 73.5302 92.6666 73.203L97.8599 68.0096C97.1222 67.17 96.3309 66.3787 95.4912 65.6407V65.6407Z" fill="#FFF5D0"/>
<path d="M104.245 83.425H96.9008C95.9758 83.425 95.2259 84.1749 95.2259 85.1C95.2259 86.025 95.9758 86.7749 96.9008 86.7749H104.245C104.281 86.221 104.301 85.6628 104.301 85.0998C104.301 84.5367 104.281 83.9789 104.245 83.425Z" fill="#FFF5D0"/>
<path d="M78.4009 103.6C88.6181 103.6 96.9008 95.3172 96.9008 85.1C96.9008 74.8827 88.6181 66.6001 78.4009 66.6001C68.1837 66.6001 59.901 74.8827 59.901 85.1C59.901 95.3172 68.1837 103.6 78.4009 103.6Z" fill="#EFB100"/>
<path d="M78.4009 83.425C76.8762 83.425 75.6359 82.1847 75.6359 80.66C75.6359 79.1354 76.8762 77.8949 78.4009 77.8949C79.9254 77.8949 81.1659 79.1352 81.1659 80.66C81.1659 81.585 81.9158 82.3349 82.8409 82.3349C83.766 82.3349 84.5159 81.585 84.5159 80.66C84.5159 77.8689 82.6356 75.5104 80.0759 74.78V74C80.0759 73.0749 79.326 72.325 78.4009 72.325C77.4758 72.325 76.7259 73.0749 76.7259 74V74.78C74.1662 75.5104 72.2859 77.8689 72.2859 80.66C72.2859 84.0318 75.0291 86.7751 78.4011 86.7751C79.9256 86.7751 81.1662 88.0154 81.1662 89.5402C81.1662 91.0647 79.9259 92.305 78.4011 92.305C76.8764 92.305 75.6361 91.0647 75.6361 89.5402C75.6361 88.6151 74.8862 87.8652 73.9611 87.8652C73.0361 87.8652 72.2862 88.6151 72.2862 89.5402C72.2862 92.3312 74.1664 94.6897 76.7262 95.4201V96.2002C76.7262 97.1252 77.4761 97.8751 78.4011 97.8751C79.3262 97.8751 80.0761 97.1252 80.0761 96.2002V95.4201C82.6358 94.6897 84.5161 92.3312 84.5161 89.5402C84.5159 86.1681 81.7728 83.425 78.4009 83.425Z" fill="#FFF5D0"/>
<path d="M78.401 66.6001C77.529 66.6001 76.6725 66.6649 75.8326 66.7815C84.8336 68.0324 91.7641 75.7547 91.7641 85.1C91.7641 94.4452 84.8336 102.168 75.8326 103.418C76.6725 103.535 77.529 103.6 78.401 103.6C88.6182 103.6 96.9009 95.3172 96.9009 85.1C96.9009 74.8828 88.6182 66.6001 78.401 66.6001V66.6001Z" fill="#E8AC00"/>
</svg>
