<svg width="42" height="45" viewBox="0 0 42 45" fill="none" xmlns="http://www.w3.org/2000/svg">
<path d="M4.2275 3.75049H37.7723C39.8374 3.75049 41.5 5.42307 41.5 7.50072V16.8753H0.5V7.50072C0.5 5.42307 2.1624 3.75049 4.2275 3.75049Z" fill="#F79009"/>
<path d="M0.5 15V18.75V30V41.25C0.5 43.3277 2.16221 45 4.22727 45H37.7727C39.8378 45 41.5 43.3277 41.5 41.25V30V18.75V15H37.7727H4.22727H0.5Z" fill="#E5E7EB"/>
<path d="M11.6814 1.875C11.6814 0.839466 10.847 0 9.81774 0C8.78848 0 7.9541 0.839466 7.9541 1.875V9.375C7.9541 10.4105 8.78848 11.25 9.81774 11.25C10.847 11.25 11.6814 10.4105 11.6814 9.375V1.875Z" fill="#667085"/>
<path d="M34.0456 1.875C34.0456 0.839466 33.2113 0 32.182 0C31.1527 0 30.3184 0.839466 30.3184 1.875V9.375C30.3184 10.4105 31.1527 11.25 32.182 11.25C33.2113 11.25 34.0456 10.4105 34.0456 9.375V1.875Z" fill="#667085"/>
<path d="M34.0456 18.75H30.3184V22.5H34.0456V18.75Z" fill="#98A2B3"/>
<path d="M26.5906 18.75H22.8633V22.5H26.5906V18.75Z" fill="#98A2B3"/>
<path d="M19.1365 18.75H15.4092V22.5H19.1365V18.75Z" fill="#98A2B3"/>
<path d="M11.6814 18.75H7.9541V22.5H11.6814V18.75Z" fill="#98A2B3"/>
<path d="M34.0456 26.25H30.3184V30H34.0456V26.25Z" fill="#98A2B3"/>
<path d="M26.5906 26.25H22.8633V30H26.5906V26.25Z" fill="#98A2B3"/>
<path d="M19.1365 26.25H15.4092V30H19.1365V26.25Z" fill="#98A2B3"/>
<path d="M11.6814 26.25H7.9541V30H11.6814V26.25Z" fill="#98A2B3"/>
<path d="M26.5906 33.75H22.8633V37.5H26.5906V33.75Z" fill="#98A2B3"/>
<path d="M19.1365 33.75H15.4092V37.5H19.1365V33.75Z" fill="#98A2B3"/>
<path d="M11.6814 33.75H7.9541V37.5H11.6814V33.75Z" fill="#98A2B3"/>
</svg>
