<svg width="45" height="45" viewBox="0 0 45 45" fill="none" xmlns="http://www.w3.org/2000/svg">
<path d="M22.5 45C34.9264 45 45 34.9264 45 22.5C45 10.0736 34.9264 0 22.5 0C10.0736 0 0 10.0736 0 22.5C0 34.9264 10.0736 45 22.5 45Z" fill="#34A853"/>
<path d="M22.5 39.5625C31.9234 39.5625 39.5625 31.9234 39.5625 22.5C39.5625 13.0766 31.9234 5.4375 22.5 5.4375C13.0766 5.4375 5.4375 13.0766 5.4375 22.5C5.4375 31.9234 13.0766 39.5625 22.5 39.5625Z" fill="#E6F9E9"/>
<path d="M22.5 7.3125C31.5938 7.3125 39 14.4375 39.5625 23.4375C39.5625 23.1562 39.6563 22.7812 39.6563 22.5C39.6563 13.0312 31.9688 5.4375 22.5938 5.4375C13.0313 5.4375 5.4375 13.0312 5.4375 22.5C5.4375 22.7812 5.4375 23.1562 5.53125 23.4375C6 14.4375 13.4063 7.3125 22.5 7.3125Z" fill="#E4EAEF"/>
<path d="M22.5 9.5625C23.0695 9.5625 23.5313 9.10079 23.5313 8.53125C23.5313 7.96171 23.0695 7.5 22.5 7.5C21.9305 7.5 21.4688 7.96171 21.4688 8.53125C21.4688 9.10079 21.9305 9.5625 22.5 9.5625Z" fill="#ACB3BA"/>
<path d="M22.5 37.5C23.0695 37.5 23.5313 37.0383 23.5313 36.4688C23.5313 35.8992 23.0695 35.4375 22.5 35.4375C21.9305 35.4375 21.4688 35.8992 21.4688 36.4688C21.4688 37.0383 21.9305 37.5 22.5 37.5Z" fill="#ACB3BA"/>
<path d="M36.4697 23.5313C37.0393 23.5313 37.501 23.0695 37.501 22.5C37.501 21.9305 37.0393 21.4688 36.4697 21.4688C35.9002 21.4688 35.4385 21.9305 35.4385 22.5C35.4385 23.0695 35.9002 23.5313 36.4697 23.5313Z" fill="#ACB3BA"/>
<path d="M9.46875 24.4688C10.0383 24.4688 10.5 24.0071 10.5 23.4376C10.5 22.868 10.0383 22.4063 9.46875 22.4063C8.89921 22.4063 8.4375 22.868 8.4375 23.4376C8.4375 24.0071 8.89921 24.4688 9.46875 24.4688Z" fill="#ACB3BA"/>
<path d="M22.5006 23.7188C22.2193 23.7188 21.8443 23.625 21.6568 23.3438L15.0943 16.125C14.6256 15.6563 14.7193 14.9063 15.1881 14.4375C15.6568 13.9688 16.4068 14.0625 16.8756 14.5313L23.4381 21.75C23.9068 22.2188 23.8131 22.9688 23.3443 23.4375C23.0631 23.5313 22.7818 23.7188 22.5006 23.7188V23.7188Z" fill="#34A853"/>
<path d="M21.75 23.1562V31.7812C21.75 32.1562 22.0312 32.5312 22.5 32.5312C22.9687 32.5312 23.25 32.25 23.25 31.7812V23.1562H21.75Z" fill="#40596B"/>
<path d="M15.375 29.8125C15.2812 29.8125 15.2813 29.8125 15.1875 29.7187C15.0937 29.625 15.0937 29.4375 15.1875 29.3437L22.7812 21.75C22.875 21.6563 23.0625 21.6563 23.1563 21.75C23.25 21.8437 23.25 22.0312 23.1563 22.125L15.5625 29.7187C15.4687 29.8125 15.4687 29.8125 15.375 29.8125V29.8125Z" fill="#40596B"/>
<path d="M22.5 25.5C24.1569 25.5 25.5 24.1569 25.5 22.5C25.5 20.8431 24.1569 19.5 22.5 19.5C20.8431 19.5 19.5 20.8431 19.5 22.5C19.5 24.1569 20.8431 25.5 22.5 25.5Z" fill="#40596B"/>
<path d="M22.501 23.625C23.1223 23.625 23.626 23.1213 23.626 22.5C23.626 21.8787 23.1223 21.375 22.501 21.375C21.8797 21.375 21.376 21.8787 21.376 22.5C21.376 23.1213 21.8797 23.625 22.501 23.625Z" fill="white"/>
</svg>
