<svg width="227" height="62" viewBox="0 0 227 62" fill="none" xmlns="http://www.w3.org/2000/svg">
<g filter="url(#filter0_d)">
<mask id="path-1-inside-1" fill="white">
<path fill-rule="evenodd" clip-rule="evenodd" d="M3.27294 6.93231C1.80209 4.26639 3.7305 1 6.77525 1H221C223.209 1 225 2.79086 225 5V55C225 57.2091 223.209 59 221 59H6.77525C3.7305 59 1.80209 55.7336 3.27294 53.0677L14.9338 31.9323C15.5974 30.7296 15.5974 29.2704 14.9338 28.0677L3.27294 6.93231Z"/>
</mask>
<path fill-rule="evenodd" clip-rule="evenodd" d="M3.27294 6.93231C1.80209 4.26639 3.7305 1 6.77525 1H221C223.209 1 225 2.79086 225 5V55C225 57.2091 223.209 59 221 59H6.77525C3.7305 59 1.80209 55.7336 3.27294 53.0677L14.9338 31.9323C15.5974 30.7296 15.5974 29.2704 14.9338 28.0677L3.27294 6.93231Z" fill="white"/>
<path d="M14.9338 31.9323L15.8094 32.4154L14.9338 31.9323ZM14.9338 28.0677L15.8094 27.5846L14.9338 28.0677ZM221 0H6.77525V2H221V0ZM226 55V5H224V55H226ZM6.77525 60H221V58H6.77525V60ZM14.0583 31.4492L2.39736 52.5846L4.14851 53.5508L15.8094 32.4154L14.0583 31.4492ZM14.0583 28.5508C14.5559 29.4528 14.5559 30.5472 14.0583 31.4492L15.8094 32.4154C16.6389 30.9119 16.6389 29.088 15.8094 27.5846L14.0583 28.5508ZM2.39736 7.41539L14.0583 28.5508L15.8094 27.5846L4.14852 6.44923L2.39736 7.41539ZM6.77525 58C4.49168 58 3.04538 55.5502 4.14851 53.5508L2.39736 52.5846C0.558794 55.917 2.96931 60 6.77525 60V58ZM224 55C224 56.6569 222.657 58 221 58V60C223.761 60 226 57.7614 226 55H224ZM6.77525 0C2.96932 0 0.558797 4.08299 2.39736 7.41539L4.14852 6.44923C3.04538 4.4498 4.49169 2 6.77525 2V0ZM221 2C222.657 2 224 3.34314 224 5H226C226 2.23857 223.761 0 221 0V2Z" fill="#50DB00" mask="url(#path-1-inside-1)"/>
</g>
<path d="M38.2139 22.4365C38.2139 21.999 38.0589 21.6618 37.749 21.4248C37.4437 21.1878 36.89 20.9486 36.0879 20.707C35.2858 20.4655 34.6478 20.1966 34.1738 19.9004C33.2669 19.3307 32.8135 18.5879 32.8135 17.6719C32.8135 16.8698 33.1393 16.209 33.791 15.6895C34.4473 15.1699 35.2972 14.9102 36.3408 14.9102C37.0335 14.9102 37.651 15.0378 38.1934 15.293C38.7357 15.5482 39.1618 15.9128 39.4717 16.3867C39.7816 16.8561 39.9365 17.3779 39.9365 17.9521H38.2139C38.2139 17.4326 38.0498 17.027 37.7217 16.7354C37.3981 16.4391 36.9333 16.291 36.3271 16.291C35.762 16.291 35.3223 16.4118 35.0078 16.6533C34.6979 16.8949 34.543 17.2321 34.543 17.665C34.543 18.0296 34.7116 18.335 35.0488 18.5811C35.3861 18.8226 35.9421 19.0596 36.7168 19.292C37.4915 19.5199 38.1136 19.7819 38.583 20.0781C39.0524 20.3698 39.3965 20.707 39.6152 21.0898C39.834 21.4681 39.9434 21.9124 39.9434 22.4229C39.9434 23.2523 39.6243 23.9131 38.9863 24.4053C38.3529 24.8929 37.4915 25.1367 36.4023 25.1367C35.6823 25.1367 35.0192 25.0046 34.4131 24.7402C33.8115 24.4714 33.3421 24.1022 33.0049 23.6328C32.6722 23.1634 32.5059 22.6165 32.5059 21.9922H34.2354C34.2354 22.5573 34.4222 22.9948 34.7959 23.3047C35.1696 23.6146 35.7051 23.7695 36.4023 23.7695C37.0039 23.7695 37.4551 23.6488 37.7559 23.4072C38.0612 23.1611 38.2139 22.8376 38.2139 22.4365ZM43.3818 15.8057V17.6035H44.6875V18.834H43.3818V22.9629C43.3818 23.2454 43.4365 23.4505 43.5459 23.5781C43.6598 23.7012 43.8604 23.7627 44.1475 23.7627C44.3389 23.7627 44.5326 23.7399 44.7285 23.6943V24.9795C44.3503 25.0843 43.9857 25.1367 43.6348 25.1367C42.3587 25.1367 41.7207 24.4326 41.7207 23.0244V18.834H40.5039V17.6035H41.7207V15.8057H43.3818ZM49.2197 25.1367C48.167 25.1367 47.3125 24.8063 46.6562 24.1455C46.0046 23.4801 45.6787 22.596 45.6787 21.4932V21.2881C45.6787 20.5498 45.82 19.8913 46.1025 19.3125C46.3896 18.7292 46.7907 18.2757 47.3057 17.9521C47.8206 17.6286 48.3949 17.4668 49.0283 17.4668C50.0355 17.4668 50.8125 17.7881 51.3594 18.4307C51.9108 19.0732 52.1865 19.9824 52.1865 21.1582V21.8281H47.3535C47.4036 22.4388 47.6064 22.9219 47.9619 23.2773C48.3219 23.6328 48.7731 23.8105 49.3154 23.8105C50.0765 23.8105 50.6963 23.5029 51.1748 22.8877L52.0703 23.7422C51.7741 24.1842 51.3776 24.5283 50.8809 24.7744C50.3887 25.016 49.835 25.1367 49.2197 25.1367ZM49.0215 18.7998C48.5658 18.7998 48.1966 18.9593 47.9141 19.2783C47.6361 19.5973 47.4583 20.0417 47.3809 20.6113H50.5459V20.4883C50.5094 19.9323 50.3613 19.513 50.1016 19.2305C49.8418 18.9434 49.4818 18.7998 49.0215 18.7998ZM59.959 21.377C59.959 22.5208 59.6992 23.4346 59.1797 24.1182C58.6602 24.7972 57.9629 25.1367 57.0879 25.1367C56.2767 25.1367 55.6273 24.8701 55.1396 24.3369V27.8438H53.4785V17.6035H55.0098L55.0781 18.3555C55.5658 17.763 56.2288 17.4668 57.0674 17.4668C57.9697 17.4668 58.6761 17.804 59.1865 18.4785C59.7015 19.1484 59.959 20.0804 59.959 21.2744V21.377ZM58.3047 21.2334C58.3047 20.4951 58.1566 19.9095 57.8604 19.4766C57.5687 19.0436 57.1494 18.8271 56.6025 18.8271C55.9235 18.8271 55.4359 19.1074 55.1396 19.668V22.9492C55.4404 23.5234 55.9326 23.8105 56.6162 23.8105C57.1449 23.8105 57.5573 23.5986 57.8535 23.1748C58.1543 22.7464 58.3047 22.0993 58.3047 21.2334ZM71.4434 25H64.751V23.8584L68.0664 20.2422C68.5449 19.709 68.8844 19.2646 69.085 18.9092C69.29 18.5492 69.3926 18.1891 69.3926 17.8291C69.3926 17.3551 69.2581 16.9723 68.9893 16.6807C68.7249 16.389 68.3672 16.2432 67.916 16.2432C67.3783 16.2432 66.9613 16.4072 66.665 16.7354C66.3688 17.0635 66.2207 17.5124 66.2207 18.082H64.5596C64.5596 17.4759 64.6963 16.9313 64.9697 16.4482C65.2477 15.9606 65.6419 15.5824 66.1523 15.3135C66.6673 15.0446 67.2598 14.9102 67.9297 14.9102C68.8958 14.9102 69.6569 15.154 70.2129 15.6416C70.7734 16.1247 71.0537 16.7946 71.0537 17.6514C71.0537 18.1481 70.9124 18.6699 70.6299 19.2168C70.3519 19.7591 69.8939 20.3766 69.2559 21.0693L66.8223 23.6738H71.4434V25Z" fill="#008900"/>
<path d="M34.1152 42.6602V46H32.9902V37.4688H36.1367C37.0703 37.4688 37.8008 37.707 38.3281 38.1836C38.8594 38.6602 39.125 39.291 39.125 40.0762C39.125 40.9043 38.8652 41.543 38.3457 41.9922C37.8301 42.4375 37.0898 42.6602 36.125 42.6602H34.1152ZM34.1152 41.7402H36.1367C36.7383 41.7402 37.1992 41.5996 37.5195 41.3184C37.8398 41.0332 38 40.623 38 40.0879C38 39.5801 37.8398 39.1738 37.5195 38.8691C37.1992 38.5645 36.7598 38.4062 36.2012 38.3945H34.1152V41.7402ZM42.9395 46.1172C42.0801 46.1172 41.3809 45.8359 40.8418 45.2734C40.3027 44.707 40.0332 43.9512 40.0332 43.0059V42.8066C40.0332 42.1777 40.1523 41.6172 40.3906 41.125C40.6328 40.6289 40.9688 40.2422 41.3984 39.9648C41.832 39.6836 42.3008 39.543 42.8047 39.543C43.6289 39.543 44.2695 39.8145 44.7266 40.3574C45.1836 40.9004 45.4121 41.6777 45.4121 42.6895V43.1406H41.1172C41.1328 43.7656 41.3145 44.2715 41.6621 44.6582C42.0137 45.041 42.459 45.2324 42.998 45.2324C43.3809 45.2324 43.7051 45.1543 43.9707 44.998C44.2363 44.8418 44.4688 44.6348 44.668 44.377L45.3301 44.8926C44.7988 45.709 44.002 46.1172 42.9395 46.1172ZM42.8047 40.4336C42.3672 40.4336 42 40.5938 41.7031 40.9141C41.4062 41.2305 41.2227 41.6758 41.1523 42.25H44.3281V42.168C44.2969 41.6172 44.1484 41.1914 43.8828 40.8906C43.6172 40.5859 43.2578 40.4336 42.8047 40.4336ZM49.7363 40.6328C49.5723 40.6055 49.3945 40.5918 49.2031 40.5918C48.4922 40.5918 48.0098 40.8945 47.7559 41.5V46H46.6719V39.6602H47.7266L47.7441 40.3926C48.0996 39.8262 48.6035 39.543 49.2559 39.543C49.4668 39.543 49.627 39.5703 49.7363 39.625V40.6328ZM54.4297 44.3184C54.4297 44.0254 54.3184 43.7988 54.0957 43.6387C53.877 43.4746 53.4922 43.334 52.9414 43.2168C52.3945 43.0996 51.959 42.959 51.6348 42.7949C51.3145 42.6309 51.0762 42.4355 50.9199 42.209C50.7676 41.9824 50.6914 41.7129 50.6914 41.4004C50.6914 40.8809 50.9102 40.4414 51.3477 40.082C51.7891 39.7227 52.3516 39.543 53.0352 39.543C53.7539 39.543 54.3359 39.7285 54.7812 40.0996C55.2305 40.4707 55.4551 40.9453 55.4551 41.5234H54.3652C54.3652 41.2266 54.2383 40.9707 53.9844 40.7559C53.7344 40.541 53.418 40.4336 53.0352 40.4336C52.6406 40.4336 52.332 40.5195 52.1094 40.6914C51.8867 40.8633 51.7754 41.0879 51.7754 41.3652C51.7754 41.627 51.8789 41.8242 52.0859 41.957C52.293 42.0898 52.666 42.2168 53.2051 42.3379C53.748 42.459 54.1875 42.6035 54.5234 42.7715C54.8594 42.9395 55.1074 43.1426 55.2676 43.3809C55.4316 43.6152 55.5137 43.9023 55.5137 44.2422C55.5137 44.8086 55.2871 45.2637 54.834 45.6074C54.3809 45.9473 53.793 46.1172 53.0703 46.1172C52.5625 46.1172 52.1133 46.0273 51.7227 45.8477C51.332 45.668 51.0254 45.418 50.8027 45.0977C50.584 44.7734 50.4746 44.4238 50.4746 44.0488H51.5586C51.5781 44.4121 51.7227 44.7012 51.9922 44.916C52.2656 45.127 52.625 45.2324 53.0703 45.2324C53.4805 45.2324 53.8086 45.1504 54.0547 44.9863C54.3047 44.8184 54.4297 44.5957 54.4297 44.3184ZM56.6387 42.7715C56.6387 42.1504 56.7598 41.5918 57.002 41.0957C57.248 40.5996 57.5879 40.2168 58.0215 39.9473C58.459 39.6777 58.957 39.543 59.5156 39.543C60.3789 39.543 61.0762 39.8418 61.6074 40.4395C62.1426 41.0371 62.4102 41.832 62.4102 42.8242V42.9004C62.4102 43.5176 62.291 44.0723 62.0527 44.5645C61.8184 45.0527 61.4805 45.4336 61.0391 45.707C60.6016 45.9805 60.0977 46.1172 59.5273 46.1172C58.668 46.1172 57.9707 45.8184 57.4355 45.2207C56.9043 44.623 56.6387 43.832 56.6387 42.8477V42.7715ZM57.7285 42.9004C57.7285 43.6035 57.8906 44.168 58.2148 44.5938C58.543 45.0195 58.9805 45.2324 59.5273 45.2324C60.0781 45.2324 60.5156 45.0176 60.8398 44.5879C61.1641 44.1543 61.3262 43.5488 61.3262 42.7715C61.3262 42.0762 61.1602 41.5137 60.8281 41.084C60.5 40.6504 60.0625 40.4336 59.5156 40.4336C58.9805 40.4336 58.5488 40.6465 58.2207 41.0723C57.8926 41.498 57.7285 42.1074 57.7285 42.9004ZM64.7949 39.6602L64.8301 40.457C65.3145 39.8477 65.9473 39.543 66.7285 39.543C68.0684 39.543 68.7441 40.2988 68.7559 41.8105V46H67.6719V41.8047C67.668 41.3477 67.5625 41.0098 67.3555 40.791C67.1523 40.5723 66.834 40.4629 66.4004 40.4629C66.0488 40.4629 65.7402 40.5566 65.4746 40.7441C65.209 40.9316 65.002 41.1777 64.8535 41.4824V46H63.7695V39.6602H64.7949ZM74.3047 46C74.2422 45.875 74.1914 45.6523 74.1523 45.332C73.6484 45.8555 73.0469 46.1172 72.3477 46.1172C71.7227 46.1172 71.209 45.9414 70.8066 45.5898C70.4082 45.2344 70.209 44.7852 70.209 44.2422C70.209 43.582 70.459 43.0703 70.959 42.707C71.4629 42.3398 72.1699 42.1562 73.0801 42.1562H74.1348V41.6582C74.1348 41.2793 74.0215 40.9785 73.7949 40.7559C73.5684 40.5293 73.2344 40.416 72.793 40.416C72.4062 40.416 72.082 40.5137 71.8203 40.709C71.5586 40.9043 71.4277 41.1406 71.4277 41.418H70.3379C70.3379 41.1016 70.4492 40.7969 70.6719 40.5039C70.8984 40.207 71.2031 39.9727 71.5859 39.8008C71.9727 39.6289 72.3965 39.543 72.8574 39.543C73.5879 39.543 74.1602 39.7266 74.5742 40.0938C74.9883 40.457 75.2031 40.959 75.2188 41.5996V44.5176C75.2188 45.0996 75.293 45.5625 75.4414 45.9062V46H74.3047ZM72.5059 45.1738C72.8457 45.1738 73.168 45.0859 73.4727 44.9102C73.7773 44.7344 73.998 44.5059 74.1348 44.2246V42.9238H73.2852C71.957 42.9238 71.293 43.3125 71.293 44.0898C71.293 44.4297 71.4062 44.6953 71.6328 44.8867C71.8594 45.0781 72.1504 45.1738 72.5059 45.1738ZM78.0957 46H77.0117V37H78.0957V46ZM82.5488 42.7773C82.5488 41.8047 82.7793 41.0234 83.2402 40.4336C83.7012 39.8398 84.3047 39.543 85.0508 39.543C85.793 39.543 86.3809 39.7969 86.8145 40.3047V37H87.8984V46H86.9023L86.8496 45.3203C86.416 45.8516 85.8125 46.1172 85.0391 46.1172C84.3047 46.1172 83.7051 45.8164 83.2402 45.2148C82.7793 44.6133 82.5488 43.8281 82.5488 42.8594V42.7773ZM83.6328 42.9004C83.6328 43.6191 83.7812 44.1816 84.0781 44.5879C84.375 44.9941 84.7852 45.1973 85.3086 45.1973C85.9961 45.1973 86.498 44.8887 86.8145 44.2715V41.3594C86.4902 40.7617 85.9922 40.4629 85.3203 40.4629C84.7891 40.4629 84.375 40.668 84.0781 41.0781C83.7812 41.4883 83.6328 42.0957 83.6328 42.9004ZM92.2168 46.1172C91.3574 46.1172 90.6582 45.8359 90.1191 45.2734C89.5801 44.707 89.3105 43.9512 89.3105 43.0059V42.8066C89.3105 42.1777 89.4297 41.6172 89.668 41.125C89.9102 40.6289 90.2461 40.2422 90.6758 39.9648C91.1094 39.6836 91.5781 39.543 92.082 39.543C92.9062 39.543 93.5469 39.8145 94.0039 40.3574C94.4609 40.9004 94.6895 41.6777 94.6895 42.6895V43.1406H90.3945C90.4102 43.7656 90.5918 44.2715 90.9395 44.6582C91.291 45.041 91.7363 45.2324 92.2754 45.2324C92.6582 45.2324 92.9824 45.1543 93.248 44.998C93.5137 44.8418 93.7461 44.6348 93.9453 44.377L94.6074 44.8926C94.0762 45.709 93.2793 46.1172 92.2168 46.1172ZM92.082 40.4336C91.6445 40.4336 91.2773 40.5938 90.9805 40.9141C90.6836 41.2305 90.5 41.6758 90.4297 42.25H93.6055V42.168C93.5742 41.6172 93.4258 41.1914 93.1602 40.8906C92.8945 40.5859 92.5352 40.4336 92.082 40.4336ZM97.4199 38.125V39.6602H98.6035V40.498H97.4199V44.4297C97.4199 44.6836 97.4727 44.875 97.5781 45.0039C97.6836 45.1289 97.8633 45.1914 98.1172 45.1914C98.2422 45.1914 98.4141 45.168 98.6328 45.1211V46C98.3477 46.0781 98.0703 46.1172 97.8008 46.1172C97.3164 46.1172 96.9512 45.9707 96.7051 45.6777C96.459 45.3848 96.3359 44.9688 96.3359 44.4297V40.498H95.1816V39.6602H96.3359V38.125H97.4199ZM103.789 46C103.727 45.875 103.676 45.6523 103.637 45.332C103.133 45.8555 102.531 46.1172 101.832 46.1172C101.207 46.1172 100.693 45.9414 100.291 45.5898C99.8926 45.2344 99.6934 44.7852 99.6934 44.2422C99.6934 43.582 99.9434 43.0703 100.443 42.707C100.947 42.3398 101.654 42.1562 102.564 42.1562H103.619V41.6582C103.619 41.2793 103.506 40.9785 103.279 40.7559C103.053 40.5293 102.719 40.416 102.277 40.416C101.891 40.416 101.566 40.5137 101.305 40.709C101.043 40.9043 100.912 41.1406 100.912 41.418H99.8223C99.8223 41.1016 99.9336 40.7969 100.156 40.5039C100.383 40.207 100.688 39.9727 101.07 39.8008C101.457 39.6289 101.881 39.543 102.342 39.543C103.072 39.543 103.645 39.7266 104.059 40.0938C104.473 40.457 104.688 40.959 104.703 41.5996V44.5176C104.703 45.0996 104.777 45.5625 104.926 45.9062V46H103.789ZM101.99 45.1738C102.33 45.1738 102.652 45.0859 102.957 44.9102C103.262 44.7344 103.482 44.5059 103.619 44.2246V42.9238H102.77C101.441 42.9238 100.777 43.3125 100.777 44.0898C100.777 44.4297 100.891 44.6953 101.117 44.8867C101.344 45.0781 101.635 45.1738 101.99 45.1738ZM107.58 46H106.496V39.6602H107.58V46ZM106.408 37.9785C106.408 37.8027 106.461 37.6543 106.566 37.5332C106.676 37.4121 106.836 37.3516 107.047 37.3516C107.258 37.3516 107.418 37.4121 107.527 37.5332C107.637 37.6543 107.691 37.8027 107.691 37.9785C107.691 38.1543 107.637 38.3008 107.527 38.418C107.418 38.5352 107.258 38.5938 107.047 38.5938C106.836 38.5938 106.676 38.5352 106.566 38.418C106.461 38.3008 106.408 38.1543 106.408 37.9785ZM110.498 46H109.414V37H110.498V46ZM115.93 44.3184C115.93 44.0254 115.818 43.7988 115.596 43.6387C115.377 43.4746 114.992 43.334 114.441 43.2168C113.895 43.0996 113.459 42.959 113.135 42.7949C112.814 42.6309 112.576 42.4355 112.42 42.209C112.268 41.9824 112.191 41.7129 112.191 41.4004C112.191 40.8809 112.41 40.4414 112.848 40.082C113.289 39.7227 113.852 39.543 114.535 39.543C115.254 39.543 115.836 39.7285 116.281 40.0996C116.73 40.4707 116.955 40.9453 116.955 41.5234H115.865C115.865 41.2266 115.738 40.9707 115.484 40.7559C115.234 40.541 114.918 40.4336 114.535 40.4336C114.141 40.4336 113.832 40.5195 113.609 40.6914C113.387 40.8633 113.275 41.0879 113.275 41.3652C113.275 41.627 113.379 41.8242 113.586 41.957C113.793 42.0898 114.166 42.2168 114.705 42.3379C115.248 42.459 115.688 42.6035 116.023 42.7715C116.359 42.9395 116.607 43.1426 116.768 43.3809C116.932 43.6152 117.014 43.9023 117.014 44.2422C117.014 44.8086 116.787 45.2637 116.334 45.6074C115.881 45.9473 115.293 46.1172 114.57 46.1172C114.062 46.1172 113.613 46.0273 113.223 45.8477C112.832 45.668 112.525 45.418 112.303 45.0977C112.084 44.7734 111.975 44.4238 111.975 44.0488H113.059C113.078 44.4121 113.223 44.7012 113.492 44.916C113.766 45.127 114.125 45.2324 114.57 45.2324C114.98 45.2324 115.309 45.1504 115.555 44.9863C115.805 44.8184 115.93 44.5957 115.93 44.3184Z" fill="#008900"/>
<defs>
<filter id="filter0_d" x="0.769531" y="0" width="226.23" height="62" filterUnits="userSpaceOnUse" color-interpolation-filters="sRGB">
<feFlood flood-opacity="0" result="BackgroundImageFix"/>
<feColorMatrix in="SourceAlpha" type="matrix" values="0 0 0 0 0 0 0 0 0 0 0 0 0 0 0 0 0 0 127 0" result="hardAlpha"/>
<feOffset dy="1"/>
<feGaussianBlur stdDeviation="1"/>
<feColorMatrix type="matrix" values="0 0 0 0 0.215686 0 0 0 0 0.254902 0 0 0 0 0.317647 0 0 0 0.08 0"/>
<feBlend mode="normal" in2="BackgroundImageFix" result="effect1_dropShadow"/>
<feBlend mode="normal" in="SourceGraphic" in2="effect1_dropShadow" result="shape"/>
</filter>
</defs>
</svg>
