<svg width="245" height="62" viewBox="0 0 245 62" fill="none" xmlns="http://www.w3.org/2000/svg">
<g filter="url(#filter0_d)">
<path fill-rule="evenodd" clip-rule="evenodd" d="M2 5C2 2.79086 3.79087 1 6.00001 1H224.638C226.095 1 227.437 1.79209 228.141 3.06769L241.934 28.0677C242.597 29.2704 242.597 30.7296 241.934 31.9323L228.141 56.9323C227.437 58.2079 226.095 59 224.638 59H6C3.79086 59 2 57.2091 2 55V5Z" fill="#E2FDE9"/>
</g>
<path d="M32.2139 22.4365C32.2139 21.999 32.0589 21.6618 31.749 21.4248C31.4437 21.1878 30.89 20.9486 30.0879 20.707C29.2858 20.4655 28.6478 20.1966 28.1738 19.9004C27.2669 19.3307 26.8135 18.5879 26.8135 17.6719C26.8135 16.8698 27.1393 16.209 27.791 15.6895C28.4473 15.1699 29.2972 14.9102 30.3408 14.9102C31.0335 14.9102 31.651 15.0378 32.1934 15.293C32.7357 15.5482 33.1618 15.9128 33.4717 16.3867C33.7816 16.8561 33.9365 17.3779 33.9365 17.9521H32.2139C32.2139 17.4326 32.0498 17.027 31.7217 16.7354C31.3981 16.4391 30.9333 16.291 30.3271 16.291C29.762 16.291 29.3223 16.4118 29.0078 16.6533C28.6979 16.8949 28.543 17.2321 28.543 17.665C28.543 18.0296 28.7116 18.335 29.0488 18.5811C29.3861 18.8226 29.9421 19.0596 30.7168 19.292C31.4915 19.5199 32.1136 19.7819 32.583 20.0781C33.0524 20.3698 33.3965 20.707 33.6152 21.0898C33.834 21.4681 33.9434 21.9124 33.9434 22.4229C33.9434 23.2523 33.6243 23.9131 32.9863 24.4053C32.3529 24.8929 31.4915 25.1367 30.4023 25.1367C29.6823 25.1367 29.0192 25.0046 28.4131 24.7402C27.8115 24.4714 27.3421 24.1022 27.0049 23.6328C26.6722 23.1634 26.5059 22.6165 26.5059 21.9922H28.2354C28.2354 22.5573 28.4222 22.9948 28.7959 23.3047C29.1696 23.6146 29.7051 23.7695 30.4023 23.7695C31.0039 23.7695 31.4551 23.6488 31.7559 23.4072C32.0612 23.1611 32.2139 22.8376 32.2139 22.4365ZM37.3818 15.8057V17.6035H38.6875V18.834H37.3818V22.9629C37.3818 23.2454 37.4365 23.4505 37.5459 23.5781C37.6598 23.7012 37.8604 23.7627 38.1475 23.7627C38.3389 23.7627 38.5326 23.7399 38.7285 23.6943V24.9795C38.3503 25.0843 37.9857 25.1367 37.6348 25.1367C36.3587 25.1367 35.7207 24.4326 35.7207 23.0244V18.834H34.5039V17.6035H35.7207V15.8057H37.3818ZM43.2197 25.1367C42.167 25.1367 41.3125 24.8063 40.6562 24.1455C40.0046 23.4801 39.6787 22.596 39.6787 21.4932V21.2881C39.6787 20.5498 39.82 19.8913 40.1025 19.3125C40.3896 18.7292 40.7907 18.2757 41.3057 17.9521C41.8206 17.6286 42.3949 17.4668 43.0283 17.4668C44.0355 17.4668 44.8125 17.7881 45.3594 18.4307C45.9108 19.0732 46.1865 19.9824 46.1865 21.1582V21.8281H41.3535C41.4036 22.4388 41.6064 22.9219 41.9619 23.2773C42.3219 23.6328 42.7731 23.8105 43.3154 23.8105C44.0765 23.8105 44.6963 23.5029 45.1748 22.8877L46.0703 23.7422C45.7741 24.1842 45.3776 24.5283 44.8809 24.7744C44.3887 25.016 43.835 25.1367 43.2197 25.1367ZM43.0215 18.7998C42.5658 18.7998 42.1966 18.9593 41.9141 19.2783C41.6361 19.5973 41.4583 20.0417 41.3809 20.6113H44.5459V20.4883C44.5094 19.9323 44.3613 19.513 44.1016 19.2305C43.8418 18.9434 43.4818 18.7998 43.0215 18.7998ZM53.959 21.377C53.959 22.5208 53.6992 23.4346 53.1797 24.1182C52.6602 24.7972 51.9629 25.1367 51.0879 25.1367C50.2767 25.1367 49.6273 24.8701 49.1396 24.3369V27.8438H47.4785V17.6035H49.0098L49.0781 18.3555C49.5658 17.763 50.2288 17.4668 51.0674 17.4668C51.9697 17.4668 52.6761 17.804 53.1865 18.4785C53.7015 19.1484 53.959 20.0804 53.959 21.2744V21.377ZM52.3047 21.2334C52.3047 20.4951 52.1566 19.9095 51.8604 19.4766C51.5687 19.0436 51.1494 18.8271 50.6025 18.8271C49.9235 18.8271 49.4359 19.1074 49.1396 19.668V22.9492C49.4404 23.5234 49.9326 23.8105 50.6162 23.8105C51.1449 23.8105 51.5573 23.5986 51.8535 23.1748C52.1543 22.7464 52.3047 22.0993 52.3047 21.2334ZM63.249 25H61.5947V17.0088L59.1543 17.8428V16.4414L63.0371 15.0127H63.249V25Z" fill="#008900"/>
<path d="M33.2656 43.293C33.1602 44.1953 32.8262 44.8926 32.2637 45.3848C31.7051 45.873 30.9609 46.1172 30.0312 46.1172C29.0234 46.1172 28.2148 45.7559 27.6055 45.0332C27 44.3105 26.6973 43.3438 26.6973 42.1328V41.3125C26.6973 40.5195 26.8379 39.8223 27.1191 39.2207C27.4043 38.6191 27.8066 38.1582 28.3262 37.8379C28.8457 37.5137 29.4473 37.3516 30.1309 37.3516C31.0371 37.3516 31.7637 37.6055 32.3105 38.1133C32.8574 38.6172 33.1758 39.3164 33.2656 40.2109H32.1348C32.0371 39.5312 31.8242 39.0391 31.4961 38.7344C31.1719 38.4297 30.7168 38.2773 30.1309 38.2773C29.4121 38.2773 28.8477 38.543 28.4375 39.0742C28.0312 39.6055 27.8281 40.3613 27.8281 41.3418V42.168C27.8281 43.0938 28.0215 43.8301 28.4082 44.377C28.7949 44.9238 29.3359 45.1973 30.0312 45.1973C30.6562 45.1973 31.1348 45.0566 31.4668 44.7754C31.8027 44.4902 32.0254 43.9961 32.1348 43.293H33.2656ZM34.3496 42.7715C34.3496 42.1504 34.4707 41.5918 34.7129 41.0957C34.959 40.5996 35.2988 40.2168 35.7324 39.9473C36.1699 39.6777 36.668 39.543 37.2266 39.543C38.0898 39.543 38.7871 39.8418 39.3184 40.4395C39.8535 41.0371 40.1211 41.832 40.1211 42.8242V42.9004C40.1211 43.5176 40.002 44.0723 39.7637 44.5645C39.5293 45.0527 39.1914 45.4336 38.75 45.707C38.3125 45.9805 37.8086 46.1172 37.2383 46.1172C36.3789 46.1172 35.6816 45.8184 35.1465 45.2207C34.6152 44.623 34.3496 43.832 34.3496 42.8477V42.7715ZM35.4395 42.9004C35.4395 43.6035 35.6016 44.168 35.9258 44.5938C36.2539 45.0195 36.6914 45.2324 37.2383 45.2324C37.7891 45.2324 38.2266 45.0176 38.5508 44.5879C38.875 44.1543 39.0371 43.5488 39.0371 42.7715C39.0371 42.0762 38.8711 41.5137 38.5391 41.084C38.2109 40.6504 37.7734 40.4336 37.2266 40.4336C36.6914 40.4336 36.2598 40.6465 35.9316 41.0723C35.6035 41.498 35.4395 42.1074 35.4395 42.9004ZM42.5 39.6602L42.5293 40.3633C42.9941 39.8164 43.6211 39.543 44.4102 39.543C45.2969 39.543 45.9004 39.8828 46.2207 40.5625C46.4316 40.2578 46.7051 40.0117 47.041 39.8242C47.3809 39.6367 47.7812 39.543 48.2422 39.543C49.6328 39.543 50.3398 40.2793 50.3633 41.752V46H49.2793V41.8164C49.2793 41.3633 49.1758 41.0254 48.9688 40.8027C48.7617 40.5762 48.4141 40.4629 47.9258 40.4629C47.5234 40.4629 47.1895 40.584 46.9238 40.8262C46.6582 41.0645 46.5039 41.3867 46.4609 41.793V46H45.3711V41.8457C45.3711 40.9238 44.9199 40.4629 44.0176 40.4629C43.3066 40.4629 42.8203 40.7656 42.5586 41.3711V46H41.4746V39.6602H42.5ZM57.3594 42.9004C57.3594 43.8652 57.1387 44.6426 56.6973 45.2324C56.2559 45.8223 55.6582 46.1172 54.9043 46.1172C54.1348 46.1172 53.5293 45.873 53.0879 45.3848V48.4375H52.0039V39.6602H52.9941L53.0469 40.3633C53.4883 39.8164 54.1016 39.543 54.8867 39.543C55.6484 39.543 56.25 39.8301 56.6914 40.4043C57.1367 40.9785 57.3594 41.7773 57.3594 42.8008V42.9004ZM56.2754 42.7773C56.2754 42.0625 56.123 41.498 55.8184 41.084C55.5137 40.6699 55.0957 40.4629 54.5645 40.4629C53.9082 40.4629 53.416 40.7539 53.0879 41.3359V44.3652C53.4121 44.9434 53.9082 45.2324 54.5762 45.2324C55.0957 45.2324 55.5078 45.0273 55.8125 44.6172C56.1211 44.2031 56.2754 43.5898 56.2754 42.7773ZM62.6562 46C62.5938 45.875 62.543 45.6523 62.5039 45.332C62 45.8555 61.3984 46.1172 60.6992 46.1172C60.0742 46.1172 59.5605 45.9414 59.1582 45.5898C58.7598 45.2344 58.5605 44.7852 58.5605 44.2422C58.5605 43.582 58.8105 43.0703 59.3105 42.707C59.8145 42.3398 60.5215 42.1562 61.4316 42.1562H62.4863V41.6582C62.4863 41.2793 62.373 40.9785 62.1465 40.7559C61.9199 40.5293 61.5859 40.416 61.1445 40.416C60.7578 40.416 60.4336 40.5137 60.1719 40.709C59.9102 40.9043 59.7793 41.1406 59.7793 41.418H58.6895C58.6895 41.1016 58.8008 40.7969 59.0234 40.5039C59.25 40.207 59.5547 39.9727 59.9375 39.8008C60.3242 39.6289 60.748 39.543 61.209 39.543C61.9395 39.543 62.5117 39.7266 62.9258 40.0938C63.3398 40.457 63.5547 40.959 63.5703 41.5996V44.5176C63.5703 45.0996 63.6445 45.5625 63.793 45.9062V46H62.6562ZM60.8574 45.1738C61.1973 45.1738 61.5195 45.0859 61.8242 44.9102C62.1289 44.7344 62.3496 44.5059 62.4863 44.2246V42.9238H61.6367C60.3086 42.9238 59.6445 43.3125 59.6445 44.0898C59.6445 44.4297 59.7578 44.6953 59.9844 44.8867C60.2109 45.0781 60.502 45.1738 60.8574 45.1738ZM66.2949 39.6602L66.3301 40.457C66.8145 39.8477 67.4473 39.543 68.2285 39.543C69.5684 39.543 70.2441 40.2988 70.2559 41.8105V46H69.1719V41.8047C69.168 41.3477 69.0625 41.0098 68.8555 40.791C68.6523 40.5723 68.334 40.4629 67.9004 40.4629C67.5488 40.4629 67.2402 40.5566 66.9746 40.7441C66.709 40.9316 66.502 41.1777 66.3535 41.4824V46H65.2695V39.6602H66.2949ZM73.9648 44.4121L75.4414 39.6602H76.6016L74.0527 46.9785C73.6582 48.0332 73.0312 48.5605 72.1719 48.5605L71.9668 48.543L71.5625 48.4668V47.5879L71.8555 47.6113C72.2227 47.6113 72.5078 47.5371 72.7109 47.3887C72.918 47.2402 73.0879 46.9688 73.2207 46.5742L73.4609 45.9297L71.1992 39.6602H72.3828L73.9648 44.4121ZM81.7285 46H80.6445V39.6602H81.7285V46ZM80.5566 37.9785C80.5566 37.8027 80.6094 37.6543 80.7148 37.5332C80.8242 37.4121 80.9844 37.3516 81.1953 37.3516C81.4062 37.3516 81.5664 37.4121 81.6758 37.5332C81.7852 37.6543 81.8398 37.8027 81.8398 37.9785C81.8398 38.1543 81.7852 38.3008 81.6758 38.418C81.5664 38.5352 81.4062 38.5938 81.1953 38.5938C80.9844 38.5938 80.8242 38.5352 80.7148 38.418C80.6094 38.3008 80.5566 38.1543 80.5566 37.9785ZM84.4941 39.6602L84.5293 40.457C85.0137 39.8477 85.6465 39.543 86.4277 39.543C87.7676 39.543 88.4434 40.2988 88.4551 41.8105V46H87.3711V41.8047C87.3672 41.3477 87.2617 41.0098 87.0547 40.791C86.8516 40.5723 86.5332 40.4629 86.0996 40.4629C85.748 40.4629 85.4395 40.5566 85.1738 40.7441C84.9082 40.9316 84.7012 41.1777 84.5527 41.4824V46H83.4688V39.6602H84.4941ZM90.623 46V40.498H89.6211V39.6602H90.623V39.0098C90.623 38.3301 90.8047 37.8047 91.168 37.4336C91.5312 37.0625 92.0449 36.877 92.709 36.877C92.959 36.877 93.207 36.9102 93.4531 36.9766L93.3945 37.8555C93.2109 37.8203 93.0156 37.8027 92.8086 37.8027C92.457 37.8027 92.1855 37.9062 91.9941 38.1133C91.8027 38.3164 91.707 38.6094 91.707 38.9922V39.6602H93.0605V40.498H91.707V46H90.623ZM93.9746 42.7715C93.9746 42.1504 94.0957 41.5918 94.3379 41.0957C94.584 40.5996 94.9238 40.2168 95.3574 39.9473C95.7949 39.6777 96.293 39.543 96.8516 39.543C97.7148 39.543 98.4121 39.8418 98.9434 40.4395C99.4785 41.0371 99.7461 41.832 99.7461 42.8242V42.9004C99.7461 43.5176 99.627 44.0723 99.3887 44.5645C99.1543 45.0527 98.8164 45.4336 98.375 45.707C97.9375 45.9805 97.4336 46.1172 96.8633 46.1172C96.0039 46.1172 95.3066 45.8184 94.7715 45.2207C94.2402 44.623 93.9746 43.832 93.9746 42.8477V42.7715ZM95.0645 42.9004C95.0645 43.6035 95.2266 44.168 95.5508 44.5938C95.8789 45.0195 96.3164 45.2324 96.8633 45.2324C97.4141 45.2324 97.8516 45.0176 98.1758 44.5879C98.5 44.1543 98.6621 43.5488 98.6621 42.7715C98.6621 42.0762 98.4961 41.5137 98.1641 41.084C97.8359 40.6504 97.3984 40.4336 96.8516 40.4336C96.3164 40.4336 95.8848 40.6465 95.5566 41.0723C95.2285 41.498 95.0645 42.1074 95.0645 42.9004ZM104.17 40.6328C104.006 40.6055 103.828 40.5918 103.637 40.5918C102.926 40.5918 102.443 40.8945 102.189 41.5V46H101.105V39.6602H102.16L102.178 40.3926C102.533 39.8262 103.037 39.543 103.689 39.543C103.9 39.543 104.061 39.5703 104.17 39.625V40.6328ZM106.191 39.6602L106.221 40.3633C106.686 39.8164 107.312 39.543 108.102 39.543C108.988 39.543 109.592 39.8828 109.912 40.5625C110.123 40.2578 110.396 40.0117 110.732 39.8242C111.072 39.6367 111.473 39.543 111.934 39.543C113.324 39.543 114.031 40.2793 114.055 41.752V46H112.971V41.8164C112.971 41.3633 112.867 41.0254 112.66 40.8027C112.453 40.5762 112.105 40.4629 111.617 40.4629C111.215 40.4629 110.881 40.584 110.615 40.8262C110.35 41.0645 110.195 41.3867 110.152 41.793V46H109.062V41.8457C109.062 40.9238 108.611 40.4629 107.709 40.4629C106.998 40.4629 106.512 40.7656 106.25 41.3711V46H105.166V39.6602H106.191ZM119.609 46C119.547 45.875 119.496 45.6523 119.457 45.332C118.953 45.8555 118.352 46.1172 117.652 46.1172C117.027 46.1172 116.514 45.9414 116.111 45.5898C115.713 45.2344 115.514 44.7852 115.514 44.2422C115.514 43.582 115.764 43.0703 116.264 42.707C116.768 42.3398 117.475 42.1562 118.385 42.1562H119.439V41.6582C119.439 41.2793 119.326 40.9785 119.1 40.7559C118.873 40.5293 118.539 40.416 118.098 40.416C117.711 40.416 117.387 40.5137 117.125 40.709C116.863 40.9043 116.732 41.1406 116.732 41.418H115.643C115.643 41.1016 115.754 40.7969 115.977 40.5039C116.203 40.207 116.508 39.9727 116.891 39.8008C117.277 39.6289 117.701 39.543 118.162 39.543C118.893 39.543 119.465 39.7266 119.879 40.0938C120.293 40.457 120.508 40.959 120.523 41.5996V44.5176C120.523 45.0996 120.598 45.5625 120.746 45.9062V46H119.609ZM117.811 45.1738C118.15 45.1738 118.473 45.0859 118.777 44.9102C119.082 44.7344 119.303 44.5059 119.439 44.2246V42.9238H118.59C117.262 42.9238 116.598 43.3125 116.598 44.0898C116.598 44.4297 116.711 44.6953 116.938 44.8867C117.164 45.0781 117.455 45.1738 117.811 45.1738ZM123.693 38.125V39.6602H124.877V40.498H123.693V44.4297C123.693 44.6836 123.746 44.875 123.852 45.0039C123.957 45.1289 124.137 45.1914 124.391 45.1914C124.516 45.1914 124.688 45.168 124.906 45.1211V46C124.621 46.0781 124.344 46.1172 124.074 46.1172C123.59 46.1172 123.225 45.9707 122.979 45.6777C122.732 45.3848 122.609 44.9688 122.609 44.4297V40.498H121.455V39.6602H122.609V38.125H123.693ZM127.326 46H126.242V39.6602H127.326V46ZM126.154 37.9785C126.154 37.8027 126.207 37.6543 126.312 37.5332C126.422 37.4121 126.582 37.3516 126.793 37.3516C127.004 37.3516 127.164 37.4121 127.273 37.5332C127.383 37.6543 127.438 37.8027 127.438 37.9785C127.438 38.1543 127.383 38.3008 127.273 38.418C127.164 38.5352 127.004 38.5938 126.793 38.5938C126.582 38.5938 126.422 38.5352 126.312 38.418C126.207 38.3008 126.154 38.1543 126.154 37.9785ZM128.779 42.7715C128.779 42.1504 128.9 41.5918 129.143 41.0957C129.389 40.5996 129.729 40.2168 130.162 39.9473C130.6 39.6777 131.098 39.543 131.656 39.543C132.52 39.543 133.217 39.8418 133.748 40.4395C134.283 41.0371 134.551 41.832 134.551 42.8242V42.9004C134.551 43.5176 134.432 44.0723 134.193 44.5645C133.959 45.0527 133.621 45.4336 133.18 45.707C132.742 45.9805 132.238 46.1172 131.668 46.1172C130.809 46.1172 130.111 45.8184 129.576 45.2207C129.045 44.623 128.779 43.832 128.779 42.8477V42.7715ZM129.869 42.9004C129.869 43.6035 130.031 44.168 130.355 44.5938C130.684 45.0195 131.121 45.2324 131.668 45.2324C132.219 45.2324 132.656 45.0176 132.98 44.5879C133.305 44.1543 133.467 43.5488 133.467 42.7715C133.467 42.0762 133.301 41.5137 132.969 41.084C132.641 40.6504 132.203 40.4336 131.656 40.4336C131.121 40.4336 130.689 40.6465 130.361 41.0723C130.033 41.498 129.869 42.1074 129.869 42.9004ZM136.936 39.6602L136.971 40.457C137.455 39.8477 138.088 39.543 138.869 39.543C140.209 39.543 140.885 40.2988 140.896 41.8105V46H139.812V41.8047C139.809 41.3477 139.703 41.0098 139.496 40.791C139.293 40.5723 138.975 40.4629 138.541 40.4629C138.189 40.4629 137.881 40.5566 137.615 40.7441C137.35 40.9316 137.143 41.1777 136.994 41.4824V46H135.91V39.6602H136.936Z" fill="#008900"/>
<defs>
<filter id="filter0_d" x="0" y="0" width="244.432" height="62" filterUnits="userSpaceOnUse" color-interpolation-filters="sRGB">
<feFlood flood-opacity="0" result="BackgroundImageFix"/>
<feColorMatrix in="SourceAlpha" type="matrix" values="0 0 0 0 0 0 0 0 0 0 0 0 0 0 0 0 0 0 127 0" result="hardAlpha"/>
<feOffset dy="1"/>
<feGaussianBlur stdDeviation="1"/>
<feColorMatrix type="matrix" values="0 0 0 0 0.215686 0 0 0 0 0.254902 0 0 0 0 0.317647 0 0 0 0.08 0"/>
<feBlend mode="normal" in2="BackgroundImageFix" result="effect1_dropShadow"/>
<feBlend mode="normal" in="SourceGraphic" in2="effect1_dropShadow" result="shape"/>
</filter>
</defs>
</svg>
