<svg xmlns="http://www.w3.org/2000/svg" enable-background="new 0 0 512 512" viewBox="0 0 512 512"><path fill="#5AC8AE" d="M321.2,2H88.8C72.7,2,59.7,15,59.7,31.1v449.8c0,16.1,13,29.1,29.1,29.1h334.4c16.1,0,29.1-13,29.1-29.1   V133.1L321.2,2z"/><path fill="#52AFA8" d="M321.2 104c0 16.1 13 29.1 29.1 29.1l102 0L321.2 2 321.2 104zM367.7 285.2c10.5 0 20.1 4.8 26.3 13.3 2.8 3.8 8.1 4.5 11.8 1.8 3.8-2.8 4.5-8.1 1.8-11.8-9.3-12.6-24.2-20.1-39.9-20.1-27.3 0-49.6 22.2-49.6 49.6 0 27.3 22.2 49.6 49.6 49.6 13.8 0 27.1-5.8 36.5-16 3.2-3.4 2.9-8.8-.5-11.9-3.4-3.2-8.8-2.9-11.9.5-6.2 6.7-14.9 10.6-24.1 10.6-18 0-32.7-14.7-32.7-32.7C335 299.9 349.6 285.2 367.7 285.2zM257.6 267.2c-27.9 0-50.7 22.7-50.7 50.7s22.7 50.7 50.7 50.7 50.7-22.7 50.7-50.7S285.5 267.2 257.6 267.2zM257.6 351.7c-18.6 0-33.8-15.1-33.8-33.8 0-18.6 15.1-33.8 33.8-33.8s33.8 15.1 33.8 33.8C291.3 336.5 276.2 351.7 257.6 351.7zM147 267.2h-22.2c-4.7 0-8.5 3.8-8.5 8.5v84.4c0 4.7 3.8 8.5 8.5 8.5H147c27.9 0 50.7-22.7 50.7-50.7S175 267.2 147 267.2zM147 351.7h-13.8v-67.5H147c18.6 0 33.8 15.1 33.8 33.8C180.8 336.5 165.7 351.7 147 351.7z"/><g><path fill="#EFF3F5" d="M360.9 278.4c10.5 0 20.1 4.8 26.3 13.3 2.8 3.8 8.1 4.5 11.8 1.8 3.8-2.8 4.5-8.1 1.8-11.8-9.3-12.6-24.2-20.1-39.9-20.1-27.3 0-49.6 22.2-49.6 49.6 0 27.3 22.2 49.6 49.6 49.6 13.8 0 27.1-5.8 36.5-16 3.2-3.4 2.9-8.8-.5-11.9-3.4-3.2-8.8-2.9-11.9.5-6.2 6.7-14.9 10.6-24.1 10.6-18 0-32.7-14.7-32.7-32.7S342.8 278.4 360.9 278.4zM250.8 260.4c-27.9 0-50.7 22.7-50.7 50.7s22.7 50.7 50.7 50.7 50.7-22.7 50.7-50.7S278.7 260.4 250.8 260.4zM250.8 344.9c-18.6 0-33.8-15.1-33.8-33.8s15.1-33.8 33.8-33.8 33.8 15.1 33.8 33.8S269.4 344.9 250.8 344.9zM140.2 260.4H118c-4.7 0-8.5 3.8-8.5 8.5v84.4c0 4.7 3.8 8.5 8.5 8.5h22.2c27.9 0 50.7-22.7 50.7-50.7S168.2 260.4 140.2 260.4zM140.2 344.9h-13.8v-67.5h13.8c18.6 0 33.8 15.1 33.8 33.8C174 329.7 158.9 344.9 140.2 344.9z"/></g></svg>