<svg width="90" height="96" viewBox="0 0 90 96" fill="none" xmlns="http://www.w3.org/2000/svg">
<path d="M88.8187 36.8973L86.6709 50.0698L86.2543 52.5986C86.2414 54.5562 81.9845 80.3472 79.7766 80.3472L44.8647 56.674L6.12978 83.0508C3.92188 83.0508 1.60229 55.3001 1.60229 53.3382L1.44765 50.0635L0.818359 36.9373L7.04687 31.6565L42.3755 1.70153C43.1051 1.19965 43.9747 0.93042 44.8658 0.93042C45.7569 0.93042 46.6264 1.19965 47.3561 1.70153L82.6482 31.6544L88.8187 36.8973Z" fill="#236A35"/>
<path d="M72.0702 36.817V77.1018H17.3774V25.1848H60.0965L72.0702 36.817Z" fill="white"/>
<path d="M72.0703 36.8173V38.1743H58.7112V25.1345L60.0965 25.1851L72.0703 36.8173Z" fill="#236A35"/>
<path d="M72.0702 36.817H60.0964V25.1848L72.0702 36.817Z" fill="white"/>
<path d="M45.715 64.3592L65.7386 44.3127C70.9963 39.0445 78.5006 36.0437 86.3786 36.0437C88.23 36.0437 89.7291 37.2385 89.7291 38.7136V92.2827C89.7291 93.7578 87.227 95.9978 85.3777 95.9978H73.9989L45.715 67.6866C45.4904 67.4692 45.312 67.2101 45.1903 66.9245C45.0685 66.6389 45.0059 66.3324 45.0059 66.0229C45.0059 65.7133 45.0685 65.4068 45.1903 65.1212C45.312 64.8356 45.4904 64.5766 45.715 64.3592Z" fill="#34A853"/>
<path d="M44.0141 64.332L23.9927 44.2918C18.7328 39.0236 11.2285 36.0208 3.35051 36.0208C1.50129 36.0208 0 37.2177 0 38.6928V92.5695C0 94.0446 2.14776 96.0001 3.99699 96.0001L15.7281 95.9643L44.0141 67.6531C44.238 67.4359 44.4158 67.1773 44.5371 66.8923C44.6584 66.6073 44.7209 66.3014 44.7209 65.9925C44.7209 65.6836 44.6584 65.3778 44.5371 65.0928C44.4158 64.8077 44.238 64.5491 44.0141 64.332Z" fill="#34A853"/>
<path d="M89.7293 81.3206V92.8706C89.7293 94.5986 87.9402 95.9978 85.7323 95.9978H3.99699C1.79124 95.9978 0 94.5986 0 92.8706V81.3206L42.3754 54.9228C43.0821 54.4951 43.8927 54.2608 44.7229 54.2442C45.6531 54.21 46.5728 54.446 47.3668 54.9228L89.7293 81.3206Z" fill="#34A853"/>
<path d="M0 76.5036L36.875 57.1777L37.5966 57.9005L0 81.3208V76.5036Z" fill="#26773B"/>
<path d="M89.7294 76.5036L52.8545 57.1777L52.1328 57.9005L89.7294 81.3208V76.5036Z" fill="#26773B"/>
<path d="M44.7231 42.2158C42.6627 42.2158 40.6868 43.0189 39.2299 44.4483C37.7731 45.8777 36.9546 47.8164 36.9546 49.8378H52.4937C52.4937 48.8367 52.2927 47.8454 51.9021 46.9205C51.5116 45.9957 50.9392 45.1553 50.2176 44.4475C49.496 43.7397 48.6393 43.1783 47.6966 42.7954C46.7538 42.4125 45.7434 42.2155 44.7231 42.2158Z" fill="#A8D9B5"/>
<path d="M44.7233 41.6409C46.9438 41.6409 48.7439 39.8747 48.7439 37.696C48.7439 35.5174 46.9438 33.7512 44.7233 33.7512C42.5027 33.7512 40.7026 35.5174 40.7026 37.696C40.7026 39.8747 42.5027 41.6409 44.7233 41.6409Z" fill="#A8D9B5"/>
</svg>
