<svg width="95" height="79" viewBox="0 0 95 79" fill="none" xmlns="http://www.w3.org/2000/svg">
<path fill-rule="evenodd" clip-rule="evenodd" d="M43.8004 74.1863C41.3017 74.1863 39.4133 71.9256 39.865 69.4681C40.8929 63.8751 42.5889 54.6466 43.5636 49.3424C44.0313 46.7992 45.7872 44.6823 48.2003 43.7531C52.5852 42.0647 59.1159 39.5499 59.1159 39.5499C59.1159 39.5499 60.8464 45.7403 66.8535 45.7403C73.0796 45.7403 74.5912 39.5499 74.5912 39.5499C74.5912 39.5499 81.0302 42.0667 85.3503 43.7554C87.7287 44.6847 89.4625 46.7708 89.9422 49.2789C90.9537 54.5687 92.7264 63.8398 93.8017 69.4633C94.2731 71.929 92.3788 74.2098 89.8684 74.2084C81.1184 74.2034 76.2016 74.1863 66.8649 74.1863C57.8762 74.1863 51.0546 74.1863 43.8004 74.1863Z" fill="#34A853"/>
<path fill-rule="evenodd" clip-rule="evenodd" d="M83.9061 73.4156V63.1558C83.9061 62.5587 83.0708 62.0739 82.0424 62.0739C81.0139 62.0739 80.179 62.5587 80.179 63.1558V73.4156C81 73.4156 81.0139 73.4156 82.0424 73.4156C83.0708 73.4156 83 73.4156 83.9061 73.4156Z" fill="#23893C"/>
<path fill-rule="evenodd" clip-rule="evenodd" d="M54.4732 19.432C55.1748 14.0088 58.698 8.59927 66.8535 8.59927C75.009 8.59927 78.5322 14.0088 79.2339 19.432C79.8386 24.1057 80.7815 28.7173 80.7815 28.7173H76.1389C73.9437 32.2432 71.4962 36.455 66.8535 36.455C62.2109 36.455 59.7633 32.2432 57.5682 28.7173H52.9255C52.9255 28.7173 53.8685 24.1057 54.4732 19.432Z" fill="#F3D2AB"/>
<path fill-rule="evenodd" clip-rule="evenodd" d="M66.8535 45.7403C72.97 45.7403 74.5912 39.5499 74.5912 39.5499L83.567 43.5685C83.567 43.5685 78.7181 48.4175 76.8555 50.28C76.4089 50.7269 76.2197 51.3701 76.3538 51.9875C76.6346 53.2801 77.1256 55.5397 77.4268 56.926C77.5842 57.6507 77.2951 58.4001 76.6914 58.8313C74.0136 60.744 66.8535 65.8583 66.8535 65.8583L56.0205 58.1206L50.14 43.5685L59.1158 39.5499C59.1158 39.5499 60.7367 45.7403 66.8535 45.7403Z" fill="#4E3D7C"/>
<path fill-rule="evenodd" clip-rule="evenodd" d="M4.82018 78.8527C2.31544 78.8527 0.425071 76.5851 0.886946 74.1233C2.15821 67.3475 4.47406 55.0041 5.6518 48.7266C6.10808 46.2948 7.745 44.2498 10.018 43.2724C14.7122 41.2537 22.2844 37.9976 22.2844 37.9976C22.2844 37.9976 25.2139 43.5685 31.438 43.5685C37.6621 43.5685 40.8547 37.9976 40.8547 37.9976C40.8547 37.9976 48.3106 41.2577 52.9266 43.276C55.1608 44.2531 56.7733 46.2644 57.241 48.6578C58.4613 54.9046 60.8802 67.2872 62.2099 74.0941C62.6925 76.5643 60.799 78.8527 58.2821 78.8527C50.1184 78.8527 42.5606 78.8527 31.5831 78.8527C20.6079 78.8527 12.9072 78.8527 4.82018 78.8527Z" fill="#3570D4"/>
<path fill-rule="evenodd" clip-rule="evenodd" d="M51.6041 78.2402V63.3008C51.6041 62.6237 50.7692 62.0739 49.7407 62.0739C48.7122 62.0739 47.877 62.6237 47.877 63.3008V78.2402C48.4981 78.2402 48.7122 78.2402 49.7407 78.2402C50.7692 78.2402 50.3617 78.2402 51.6041 78.2402Z" fill="#2C5BC0"/>
<path fill-rule="evenodd" clip-rule="evenodd" d="M10.6053 63.3008V78.2402C11.2265 78.2402 11.4406 78.2402 12.4691 78.2402C13.4976 78.2402 13.7113 78.2402 14.3325 78.2402V63.3008C14.3325 62.6237 13.4976 62.0739 12.4691 62.0739C11.4406 62.0739 10.6053 62.6237 10.6053 63.3008Z" fill="#2C5BC0"/>
<path fill-rule="evenodd" clip-rule="evenodd" d="M18.6147 17.9227V15.4762C18.6147 15.4762 17.4183 0.856216 31.5693 0.856216C45.7206 0.856216 44.5584 15.4762 44.5584 15.4762V17.9227C44.5584 25.3495 36.7582 34.2832 31.5693 34.2832C26.3808 34.2832 18.6147 25.3495 18.6147 17.9227Z" fill="#F3D2AB"/>
<path fill-rule="evenodd" clip-rule="evenodd" d="M33.4266 43.5685H29.7125C29.7125 43.5685 26.8291 59.427 26.1435 63.1985C26.0509 63.707 26.1746 64.2314 26.4848 64.6449C27.2797 65.7046 28.8879 67.8489 30.0839 69.4437C30.4345 69.9113 30.9851 70.1864 31.5694 70.1864C32.154 70.1864 32.7045 69.9113 33.0552 69.4437C34.2512 67.8489 35.8594 65.7046 36.6543 64.6449C36.9645 64.2314 37.0882 63.707 36.9956 63.1985C36.31 59.427 33.4266 43.5685 33.4266 43.5685Z" fill="#4E3D7C"/>
</svg>
