<svg width="123" height="27" viewBox="0 0 123 27" fill="none" xmlns="http://www.w3.org/2000/svg">
<g clip-path="url(#clip0_3723_37533)">
<path d="M13.5653 22.2219C12.2786 22.2219 11.2356 23.2625 11.2356 24.5462C11.2356 25.8298 12.2786 26.8704 13.5653 26.8704C14.852 26.8704 15.895 25.8298 15.895 24.5462C15.895 23.2625 14.852 22.2219 13.5653 22.2219Z" fill="#EA4235"/>
<path d="M18.9439 21.8353L13.9057 19.7302C13.7979 19.6851 13.6822 19.6619 13.5653 19.6619C13.4484 19.6619 13.3326 19.6851 13.2248 19.7302L8.1872 21.8353C7.29406 22.2058 6.53708 21.0825 7.22164 20.3996L12.5038 15.1299C12.6432 14.9906 12.8088 14.8802 12.991 14.8049C13.1733 14.7295 13.3686 14.6907 13.5659 14.6907C13.7632 14.6907 13.9585 14.7295 14.1407 14.8049C14.323 14.8802 14.4886 14.9906 14.628 15.1299L19.9107 20.3996C20.5941 21.0825 19.8365 22.2082 18.9439 21.8353Z" fill="#EA4235"/>
<path d="M13.5633 2.50687e-05C14.0241 2.5109e-05 14.4745 0.13634 14.8577 0.391734C15.2408 0.647127 15.5394 1.01013 15.7157 1.43483C15.8921 1.85953 15.9382 2.32687 15.8483 2.77773C15.7584 3.22859 15.5365 3.64274 15.2107 3.96779C14.8849 4.29284 14.4698 4.51421 14.0178 4.60389C13.5659 4.69357 13.0975 4.64754 12.6718 4.47163C12.2461 4.29571 11.8822 3.9978 11.6262 3.61558C11.3702 3.23336 11.2336 2.78398 11.2336 2.32429C11.2343 1.70805 11.4799 1.11725 11.9167 0.681508C12.3535 0.245766 12.9457 0.000678758 13.5633 2.50687e-05Z" fill="#34A853"/>
<path d="M13.9059 7.14069L18.9442 5.03565C19.8367 4.66515 20.5937 5.78776 19.9098 6.47071L14.627 11.7417C14.3452 12.0225 13.9632 12.1803 13.5649 12.1803C13.1666 12.1803 12.7846 12.0225 12.5028 11.7417L7.22064 6.47133C6.53608 5.78837 7.29306 4.66268 8.1862 5.03626L13.2238 7.14131C13.3319 7.18615 13.4479 7.20919 13.565 7.20908C13.682 7.20898 13.7979 7.18573 13.9059 7.14069Z" fill="#34A853"/>
<path d="M24.7884 11.1039C25.2492 11.1039 25.6996 11.2402 26.0828 11.4956C26.4659 11.751 26.7645 12.114 26.9408 12.5387C27.1172 12.9634 27.1633 13.4307 27.0734 13.8816C26.9835 14.3324 26.7616 14.7466 26.4358 15.0716C26.11 15.3967 25.6949 15.6181 25.2429 15.7077C24.791 15.7974 24.3226 15.7514 23.8969 15.5755C23.4712 15.3996 23.1073 15.1016 22.8513 14.7194C22.5953 14.3372 22.4587 13.8878 22.4587 13.4281C22.4594 12.8119 22.705 12.2211 23.1418 11.7854C23.5786 11.3496 24.1708 11.1045 24.7884 11.1039Z" fill="#4385F5"/>
<path d="M20.2293 13.7683L22.2558 18.5959C22.6271 19.4869 21.5019 20.2421 20.8173 19.5592L15.7419 14.4957C15.6024 14.3566 15.4917 14.1914 15.4162 14.0096C15.3406 13.8278 15.3018 13.6329 15.3018 13.4361C15.3018 13.2393 15.3406 13.0444 15.4162 12.8626C15.4917 12.6807 15.6024 12.5156 15.7419 12.3764L20.8049 7.32345C21.4907 6.6405 22.6191 7.3957 22.2446 8.28366L20.2293 13.0878C20.1843 13.1956 20.1611 13.3112 20.1611 13.428C20.1611 13.5448 20.1843 13.6605 20.2293 13.7683Z" fill="#4385F5"/>
<path d="M2.32994 11.1039C2.79071 11.1039 3.24114 11.2402 3.62426 11.4956C4.00739 11.751 4.30599 12.114 4.48233 12.5387C4.65866 12.9634 4.7048 13.4307 4.6149 13.8816C4.52501 14.3324 4.30312 14.7466 3.9773 15.0716C3.65148 15.3967 3.23637 15.618 2.78444 15.7077C2.33252 15.7974 1.86409 15.7514 1.43839 15.5755C1.01268 15.3995 0.648826 15.1016 0.392832 14.7194C0.136838 14.3372 0.000201865 13.8878 0.000201905 13.4281C0.000857133 12.8119 0.246521 12.2211 0.683289 11.7853C1.12006 11.3496 1.71225 11.1045 2.32994 11.1039Z" fill="#FABC05"/>
<path d="M11.3886 14.4952L6.29278 19.579C5.60822 20.262 4.47987 19.5062 4.85433 18.6157L6.88883 13.7684C6.93401 13.6608 6.95728 13.5454 6.95728 13.4287C6.95728 13.3121 6.93401 13.1967 6.88883 13.0891L4.86486 8.26707C4.49349 7.37602 5.61874 6.62082 6.3033 7.30377L11.3886 12.3771C11.67 12.6581 11.8281 13.039 11.8281 13.4361C11.8281 13.8333 11.67 14.2142 11.3886 14.4952Z" fill="#FABC05"/>
</g>
<path d="M40.6787 15.0758H37.8506V12.9586H40.6787C41.0641 12.9586 41.3766 12.8935 41.6162 12.7633C41.8558 12.6331 42.0303 12.4534 42.1396 12.2243C42.2542 11.9899 42.3115 11.7269 42.3115 11.4352C42.3115 11.1227 42.2542 10.8336 42.1396 10.568C42.0303 10.3024 41.8558 10.0889 41.6162 9.9274C41.3766 9.76073 41.0641 9.6774 40.6787 9.6774H38.8818V18.9352H36.1396V7.56021H40.6787C41.5902 7.56021 42.374 7.72688 43.0303 8.06021C43.6917 8.39354 44.1995 8.85188 44.5537 9.43521C44.9079 10.0133 45.085 10.6748 45.085 11.4196C45.085 12.154 44.9079 12.7946 44.5537 13.3415C44.1995 13.8883 43.6917 14.3154 43.0303 14.6227C42.374 14.9248 41.5902 15.0758 40.6787 15.0758ZM50.4209 19.0915C49.7334 19.0915 49.1188 18.9847 48.5771 18.7711C48.0355 18.5524 47.5771 18.2529 47.2021 17.8727C46.8324 17.4925 46.5485 17.055 46.3506 16.5602C46.1579 16.0654 46.0615 15.542 46.0615 14.9899V14.693C46.0615 14.0732 46.1475 13.5003 46.3193 12.9743C46.4912 12.443 46.7464 11.9795 47.085 11.5836C47.4235 11.1878 47.848 10.8805 48.3584 10.6618C48.8688 10.4378 49.4626 10.3258 50.1396 10.3258C50.7386 10.3258 51.2751 10.4222 51.749 10.6149C52.223 10.8076 52.624 11.0836 52.9521 11.443C53.2855 11.8024 53.5381 12.2373 53.71 12.7477C53.887 13.2581 53.9756 13.831 53.9756 14.4665V15.5368H47.0693V13.8883H51.4053V13.6852C51.4105 13.404 51.361 13.1644 51.2568 12.9665C51.1579 12.7685 51.012 12.6175 50.8193 12.5133C50.6266 12.4092 50.3923 12.3571 50.1162 12.3571C49.8298 12.3571 49.5928 12.4196 49.4053 12.5446C49.223 12.6696 49.0798 12.8415 48.9756 13.0602C48.8766 13.2738 48.8063 13.5211 48.7646 13.8024C48.723 14.0836 48.7021 14.3805 48.7021 14.693V14.9899C48.7021 15.3024 48.7438 15.5863 48.8271 15.8415C48.9157 16.0967 49.0407 16.3154 49.2021 16.4977C49.3688 16.6748 49.5667 16.8128 49.7959 16.9118C50.0303 17.0107 50.2959 17.0602 50.5928 17.0602C50.9521 17.0602 51.3063 16.9925 51.6553 16.8571C52.0042 16.7217 52.3037 16.4977 52.5537 16.1852L53.749 17.6071C53.5771 17.8519 53.3324 18.0889 53.0146 18.318C52.7021 18.5472 52.3271 18.7347 51.8896 18.8805C51.4521 19.0211 50.9626 19.0915 50.4209 19.0915ZM54.7178 14.7946V14.6305C54.7178 14.0107 54.8063 13.4404 54.9834 12.9196C55.1605 12.3935 55.4209 11.9378 55.7646 11.5524C56.1084 11.167 56.5329 10.8675 57.0381 10.654C57.5433 10.4352 58.1266 10.3258 58.7881 10.3258C59.4548 10.3258 60.0407 10.4352 60.5459 10.654C61.0563 10.8675 61.4834 11.167 61.8271 11.5524C62.1709 11.9378 62.4313 12.3935 62.6084 12.9196C62.7855 13.4404 62.874 14.0107 62.874 14.6305V14.7946C62.874 15.4092 62.7855 15.9795 62.6084 16.5055C62.4313 17.0264 62.1709 17.4821 61.8271 17.8727C61.4834 18.2581 61.0589 18.5576 60.5537 18.7711C60.0485 18.9847 59.4652 19.0915 58.8037 19.0915C58.1423 19.0915 57.5563 18.9847 57.0459 18.7711C56.5355 18.5576 56.1084 18.2581 55.7646 17.8727C55.4209 17.4821 55.1605 17.0264 54.9834 16.5055C54.8063 15.9795 54.7178 15.4092 54.7178 14.7946ZM57.3506 14.6305V14.7946C57.3506 15.1123 57.374 15.4092 57.4209 15.6852C57.4678 15.9613 57.5459 16.2034 57.6553 16.4118C57.7646 16.6149 57.9131 16.7738 58.1006 16.8883C58.2881 17.0029 58.5225 17.0602 58.8037 17.0602C59.0798 17.0602 59.3089 17.0029 59.4912 16.8883C59.6787 16.7738 59.8271 16.6149 59.9365 16.4118C60.0459 16.2034 60.124 15.9613 60.1709 15.6852C60.2178 15.4092 60.2412 15.1123 60.2412 14.7946V14.6305C60.2412 14.3232 60.2178 14.0342 60.1709 13.7633C60.124 13.4873 60.0459 13.2451 59.9365 13.0368C59.8271 12.8232 59.6787 12.6566 59.4912 12.5368C59.3037 12.417 59.0693 12.3571 58.7881 12.3571C58.512 12.3571 58.2803 12.417 58.0928 12.5368C57.9105 12.6566 57.7646 12.8232 57.6553 13.0368C57.5459 13.2451 57.4678 13.4873 57.4209 13.7633C57.374 14.0342 57.3506 14.3232 57.3506 14.6305ZM66.7021 12.1071V22.1852H64.0693V10.4821H66.5225L66.7021 12.1071ZM71.8896 14.6071V14.7711C71.8896 15.3857 71.8193 15.956 71.6787 16.4821C71.5381 17.0081 71.3298 17.4665 71.0537 17.8571C70.7777 18.2477 70.4339 18.5524 70.0225 18.7711C69.6162 18.9847 69.1449 19.0915 68.6084 19.0915C68.1032 19.0915 67.6683 18.9795 67.3037 18.7555C66.9391 18.5316 66.6344 18.2217 66.3896 17.8258C66.1449 17.43 65.9469 16.9769 65.7959 16.4665C65.6449 15.956 65.5251 15.417 65.4365 14.8493V14.6383C65.5251 14.029 65.6449 13.4639 65.7959 12.943C65.9469 12.417 66.1449 11.9586 66.3896 11.568C66.6344 11.1774 66.9365 10.8727 67.2959 10.654C67.6605 10.4352 68.0954 10.3258 68.6006 10.3258C69.137 10.3258 69.6084 10.4274 70.0146 10.6305C70.4261 10.8336 70.7699 11.1253 71.0459 11.5055C71.3271 11.8805 71.5381 12.331 71.6787 12.8571C71.8193 13.3831 71.8896 13.9665 71.8896 14.6071ZM69.2568 14.7711V14.6071C69.2568 14.279 69.2334 13.9795 69.1865 13.7086C69.1396 13.4326 69.0641 13.193 68.96 12.9899C68.861 12.7868 68.7282 12.6305 68.5615 12.5211C68.3949 12.4118 68.1891 12.3571 67.9443 12.3571C67.6631 12.3571 67.4261 12.4014 67.2334 12.4899C67.0459 12.5732 66.8949 12.7034 66.7803 12.8805C66.6709 13.0524 66.5928 13.2685 66.5459 13.529C66.5042 13.7842 66.486 14.0836 66.4912 14.4274V15.068C66.4808 15.4639 66.5199 15.8128 66.6084 16.1149C66.6969 16.4118 66.8506 16.6435 67.0693 16.8102C67.2881 16.9769 67.585 17.0602 67.96 17.0602C68.21 17.0602 68.4183 17.0029 68.585 16.8883C68.7516 16.7685 68.8844 16.6045 68.9834 16.3961C69.0824 16.1826 69.1527 15.9378 69.1943 15.6618C69.236 15.3857 69.2568 15.0889 69.2568 14.7711ZM75.8428 6.93521V18.9352H73.2021V6.93521H75.8428ZM81.5615 19.0915C80.874 19.0915 80.2594 18.9847 79.7178 18.7711C79.1761 18.5524 78.7178 18.2529 78.3428 17.8727C77.973 17.4925 77.6891 17.055 77.4912 16.5602C77.2985 16.0654 77.2021 15.542 77.2021 14.9899V14.693C77.2021 14.0732 77.2881 13.5003 77.46 12.9743C77.6318 12.443 77.887 11.9795 78.2256 11.5836C78.5641 11.1878 78.9886 10.8805 79.499 10.6618C80.0094 10.4378 80.6032 10.3258 81.2803 10.3258C81.8792 10.3258 82.4157 10.4222 82.8896 10.6149C83.3636 10.8076 83.7646 11.0836 84.0928 11.443C84.4261 11.8024 84.6787 12.2373 84.8506 12.7477C85.0277 13.2581 85.1162 13.831 85.1162 14.4665V15.5368H78.21V13.8883H82.5459V13.6852C82.5511 13.404 82.5016 13.1644 82.3975 12.9665C82.2985 12.7685 82.1527 12.6175 81.96 12.5133C81.7673 12.4092 81.5329 12.3571 81.2568 12.3571C80.9704 12.3571 80.7334 12.4196 80.5459 12.5446C80.3636 12.6696 80.2204 12.8415 80.1162 13.0602C80.0173 13.2738 79.9469 13.5211 79.9053 13.8024C79.8636 14.0836 79.8428 14.3805 79.8428 14.693V14.9899C79.8428 15.3024 79.8844 15.5863 79.9678 15.8415C80.0563 16.0967 80.1813 16.3154 80.3428 16.4977C80.5094 16.6748 80.7074 16.8128 80.9365 16.9118C81.1709 17.0107 81.4365 17.0602 81.7334 17.0602C82.0928 17.0602 82.4469 16.9925 82.7959 16.8571C83.1449 16.7217 83.4443 16.4977 83.6943 16.1852L84.8896 17.6071C84.7178 17.8519 84.473 18.0889 84.1553 18.318C83.8428 18.5472 83.4678 18.7347 83.0303 18.8805C82.5928 19.0211 82.1032 19.0915 81.5615 19.0915ZM90.0068 18.9352H87.4834L87.499 16.8258H90.0068C90.5277 16.8258 90.9678 16.7008 91.3271 16.4508C91.6917 16.2008 91.9678 15.8284 92.1553 15.3336C92.348 14.8336 92.4443 14.2191 92.4443 13.4899V12.9977C92.4443 12.4508 92.3896 11.9717 92.2803 11.5602C92.1761 11.1435 92.0199 10.7972 91.8115 10.5211C91.6032 10.2399 91.3428 10.029 91.0303 9.88834C90.723 9.74771 90.3688 9.6774 89.9678 9.6774H87.4365V7.56021H89.9678C90.7386 7.56021 91.4443 7.69302 92.085 7.95865C92.7308 8.21907 93.2881 8.59407 93.7568 9.08365C94.2308 9.56802 94.5954 10.1435 94.8506 10.8102C95.111 11.4717 95.2412 12.206 95.2412 13.0133V13.4899C95.2412 14.292 95.111 15.0264 94.8506 15.693C94.5954 16.3597 94.2334 16.9352 93.7646 17.4196C93.2959 17.904 92.7412 18.279 92.1006 18.5446C91.4652 18.805 90.7673 18.9352 90.0068 18.9352ZM89.0537 7.56021V18.9352H86.3115V7.56021H89.0537ZM100.64 19.0915C99.9521 19.0915 99.3376 18.9847 98.7959 18.7711C98.2542 18.5524 97.7959 18.2529 97.4209 17.8727C97.0511 17.4925 96.7673 17.055 96.5693 16.5602C96.3766 16.0654 96.2803 15.542 96.2803 14.9899V14.693C96.2803 14.0732 96.3662 13.5003 96.5381 12.9743C96.71 12.443 96.9652 11.9795 97.3037 11.5836C97.6423 11.1878 98.0667 10.8805 98.5771 10.6618C99.0876 10.4378 99.6813 10.3258 100.358 10.3258C100.957 10.3258 101.494 10.4222 101.968 10.6149C102.442 10.8076 102.843 11.0836 103.171 11.443C103.504 11.8024 103.757 12.2373 103.929 12.7477C104.106 13.2581 104.194 13.831 104.194 14.4665V15.5368H97.2881V13.8883H101.624V13.6852C101.629 13.404 101.58 13.1644 101.476 12.9665C101.377 12.7685 101.231 12.6175 101.038 12.5133C100.845 12.4092 100.611 12.3571 100.335 12.3571C100.049 12.3571 99.8115 12.4196 99.624 12.5446C99.4417 12.6696 99.2985 12.8415 99.1943 13.0602C99.0954 13.2738 99.0251 13.5211 98.9834 13.8024C98.9417 14.0836 98.9209 14.3805 98.9209 14.693V14.9899C98.9209 15.3024 98.9626 15.5863 99.0459 15.8415C99.1344 16.0967 99.2594 16.3154 99.4209 16.4977C99.5876 16.6748 99.7855 16.8128 100.015 16.9118C100.249 17.0107 100.515 17.0602 100.812 17.0602C101.171 17.0602 101.525 16.9925 101.874 16.8571C102.223 16.7217 102.522 16.4977 102.772 16.1852L103.968 17.6071C103.796 17.8519 103.551 18.0889 103.233 18.318C102.921 18.5472 102.546 18.7347 102.108 18.8805C101.671 19.0211 101.181 19.0915 100.64 19.0915ZM109.694 16.5602C109.694 16.4144 109.645 16.2894 109.546 16.1852C109.452 16.0758 109.285 15.9769 109.046 15.8883C108.806 15.7946 108.47 15.7008 108.038 15.6071C107.627 15.5185 107.239 15.4014 106.874 15.2555C106.515 15.1097 106.2 14.9326 105.929 14.7243C105.658 14.5159 105.444 14.2685 105.288 13.9821C105.137 13.6956 105.062 13.3675 105.062 12.9977C105.062 12.6383 105.137 12.2998 105.288 11.9821C105.444 11.6592 105.671 11.3753 105.968 11.1305C106.27 10.8805 106.637 10.6852 107.069 10.5446C107.502 10.3988 107.994 10.3258 108.546 10.3258C109.306 10.3258 109.963 10.443 110.515 10.6774C111.067 10.9066 111.491 11.2295 111.788 11.6461C112.09 12.0576 112.241 12.5342 112.241 13.0758H109.608C109.608 12.8623 109.572 12.68 109.499 12.529C109.431 12.3779 109.319 12.2633 109.163 12.1852C109.007 12.1019 108.799 12.0602 108.538 12.0602C108.356 12.0602 108.189 12.0941 108.038 12.1618C107.892 12.2295 107.775 12.3232 107.687 12.443C107.598 12.5628 107.554 12.7034 107.554 12.8649C107.554 12.9795 107.58 13.0836 107.632 13.1774C107.689 13.2659 107.775 13.3493 107.89 13.4274C108.004 13.5003 108.15 13.568 108.327 13.6305C108.504 13.6878 108.718 13.7399 108.968 13.7868C109.535 13.8909 110.067 14.0394 110.562 14.2321C111.056 14.4248 111.457 14.6982 111.765 15.0524C112.077 15.4066 112.233 15.8831 112.233 16.4821C112.233 16.8571 112.147 17.2034 111.976 17.5211C111.804 17.8336 111.556 18.1097 111.233 18.3493C110.91 18.5836 110.522 18.7659 110.069 18.8961C109.616 19.0264 109.106 19.0915 108.538 19.0915C107.731 19.0915 107.049 18.9482 106.491 18.6618C105.934 18.3701 105.512 18.0055 105.226 17.568C104.944 17.1253 104.804 16.6774 104.804 16.2243H107.257C107.267 16.4847 107.33 16.6982 107.444 16.8649C107.564 17.0316 107.723 17.154 107.921 17.2321C108.119 17.3102 108.348 17.3493 108.608 17.3493C108.848 17.3493 109.046 17.3154 109.202 17.2477C109.364 17.18 109.486 17.0889 109.569 16.9743C109.653 16.8545 109.694 16.7165 109.694 16.5602ZM116.124 6.9274V18.9352H113.491V6.9274H116.124ZM121.53 10.4821L117.858 14.7868L115.937 16.7086L114.788 15.0368L116.39 12.9508L118.374 10.4821H121.53ZM118.71 18.9352L116.452 15.0836L118.397 13.7008L121.726 18.9352H118.71Z" fill="#475467"/>
<defs>
<clipPath id="clip0_3723_37533">
<rect width="27.1181" height="26.8704" fill="white" transform="translate(27.1182 26.8704) rotate(-180)"/>
</clipPath>
</defs>
</svg>
