<svg width="130" height="130" viewBox="0 0 130 130" fill="none" xmlns="http://www.w3.org/2000/svg">
<path d="M95.3178 45.1229H106.498V70.9843H95.3178V45.1229Z" fill="#E8C193"/>
<path d="M119.495 63.9909C118.636 63.045 117.624 62.2476 116.502 61.6332L106.498 56.9404C106.497 56.941 106.497 56.941 106.496 56.9416C106.387 58.1054 105.864 59.2207 104.973 59.9762C102.67 61.929 99.1994 61.9442 96.8781 60.0205C95.9949 59.2885 95.4591 58.2169 95.3191 57.0783L95.3178 57.0681L85.3101 61.6332C84.1882 62.2476 83.1768 63.045 82.3207 63.9909C80.3979 66.1069 79.3347 68.8616 79.3347 71.7199V80.6141C79.3347 82.8743 81.167 84.7066 83.4272 84.7066H118.389C120.649 84.7066 122.481 82.8743 122.481 80.6141V71.7199C122.481 68.8616 121.418 66.1069 119.495 63.9909Z" fill="#4E3D7C"/>
<path d="M100.908 58.7127C105.949 58.7127 110.036 53.1988 110.036 46.397C110.036 39.5952 105.949 34.0813 100.908 34.0813C95.8676 34.0813 91.7812 39.5952 91.7812 46.397C91.7812 53.1988 95.8676 58.7127 100.908 58.7127Z" fill="#F3D2AB"/>
<path d="M111.331 40.5025C110.605 35.1992 109.43 32.1722 108.355 30.6225C107.28 29.0729 106.893 30.5141 106.893 30.5141C106.893 30.5141 106.443 28.1008 100.005 29.0228C93.5668 29.9448 90.2863 38.3105 89.5713 43.2269C89.1087 46.4085 90.0023 49.1202 90.6916 50.6431C90.7186 51.1394 90.9441 52.8602 90.9066 53.29C90.7969 54.5497 91.7312 55.6535 92.9922 55.7472C94.224 55.8386 95.274 54.8644 95.275 53.6292C95.1326 52.8367 94.8448 52.0759 94.424 51.3894C93.9879 50.6781 93.6154 50.0365 93.6154 50.0365C93.6154 50.0365 91.8557 42.6266 96.0969 41.1216C100.338 39.6166 101.847 39.0986 101.847 39.0986C101.87 39.7303 98.1833 42.911 98.1833 42.911C105.965 41.8314 107.756 38.6973 107.756 38.6973C107.756 38.6973 109.013 42.5003 108.817 46.0837C108.621 49.6672 107.234 53.1375 107.304 53.6843C107.484 55.0833 108.919 56.0513 110.382 55.6692C111.397 55.404 112.101 54.4781 112.181 53.4318C112.208 53.08 112.237 52.7161 112.273 52.3392C112.605 48.8022 112.058 45.806 111.331 40.5025Z" fill="#3A556A"/>
<path d="M23.5019 45.1229H34.6822V70.9843H23.5019V45.1229Z" fill="#E8C193"/>
<path d="M47.6794 63.9909C46.8198 63.0451 45.8084 62.2476 44.6865 61.6332L34.6822 56.9405C34.6812 56.941 34.6811 56.9411 34.6801 56.9417C34.5708 58.1054 34.0485 59.2207 33.1575 59.9762C30.8542 61.929 27.3835 61.9443 25.0622 60.0206C24.179 59.2886 23.6432 58.2169 23.5032 57.0784L23.5019 57.0681L13.4942 61.6332C12.3723 62.2476 11.3609 63.0451 10.5048 63.9909C8.58199 66.1069 7.51874 68.8617 7.51874 71.7199V80.6141C7.51874 82.8743 9.35102 84.7066 11.6113 84.7066H46.5728C48.8331 84.7066 50.6653 82.8743 50.6653 80.6141V71.7199C50.6653 68.8617 49.6022 66.1069 47.6794 63.9909Z" fill="#34A853"/>
<path d="M38.2196 46.3967C38.2196 53.1985 34.1331 58.7124 29.0921 58.7124C24.0511 58.7124 19.9645 53.1985 19.9645 46.3967C19.9645 39.595 24.4901 32.7132 29.5311 32.7132C34.5721 32.7132 38.2196 39.595 38.2196 46.3967Z" fill="#F3D2AB"/>
<path d="M46.8821 48.0597C45.087 50.5393 41.123 49.1026 41.3676 46.0513C41.4793 44.6563 41.4695 43.0664 41.1959 41.0689C40.4697 35.7655 39.2946 32.7385 38.2196 31.1889C37.1448 29.6392 35.0774 30.5141 35.0774 30.5141C35.0774 30.5141 34.6266 28.1008 28.1887 29.0228C21.7509 29.9448 18.4704 38.3105 17.7553 43.2269C17.6066 44.2498 17.5982 45.2222 17.6781 46.1218C17.9429 49.1008 14.0487 50.615 12.2462 48.2285C11.924 47.802 11.6014 47.3041 11.2812 46.725C11.2812 46.725 12.0959 66.3429 24.6215 57.1712L23.2798 54.4798C22.0507 51.8834 21.7995 50.0365 21.7995 50.0365C21.7995 50.0365 19.7864 40.8922 24.281 41.1216C34.1083 41.6231 35.011 36.7046 35.011 36.7046C35.011 36.7046 37.1073 42.4965 37.0014 46.0838C36.8948 49.6912 36.6987 51.3474 36.2405 52.8455C35.8617 54.0839 35.2324 55.2312 34.4313 56.2488L34.0361 56.7508C46.5617 65.9225 47.7223 46.725 47.7223 46.725C47.4434 47.2293 47.1627 47.6721 46.8821 48.0597Z" fill="#3A556A"/>
<path d="M72.3301 68.3171L65.0249 70.7692L58.2847 68.3171V49.2088H72.3301V68.3171Z" fill="#E8C193"/>
<path d="M88.6583 72.9118C87.5785 71.7237 86.3079 70.7219 84.8985 69.9499L75.8524 64.9932L74.3735 64.1823L73.5105 64.3514C73.4926 64.4948 73.4731 64.6496 73.452 64.8135L65.0778 70.539L57.1773 64.8567C57.1544 64.6783 57.1331 64.5104 57.1138 64.3558L56.2421 64.1823L54.785 64.9802L45.7129 69.9499C44.3035 70.7219 43.0328 71.7237 41.9574 72.9118C39.5419 75.5701 38.2063 79.0308 38.2063 82.6215V99.6866C38.2063 102.527 40.5087 104.829 43.3489 104.829H87.2667C90.107 104.829 92.4095 102.527 92.4095 99.6866V82.6215C92.4095 79.0308 91.0738 75.5701 88.6583 72.9118Z" fill="#3570D4"/>
<path d="M72.3301 60.5974L66.5477 68.5538L71.1446 73.5097L74.3726 64.1841L72.3301 60.5974Z" fill="#4E3D7C"/>
<path d="M58.2368 60.5974L64.0192 68.5538L59.4223 73.5097L56.1943 64.1841L58.2368 60.5974Z" fill="#4E3D7C"/>
<path d="M77.4699 46.176C77.7182 44.6637 77.3315 43.3412 76.6062 43.2222C75.881 43.1031 75.0918 44.2326 74.8436 45.7449C74.5954 47.2572 74.9821 48.5797 75.7073 48.6987C76.4326 48.8177 77.2217 47.6883 77.4699 46.176Z" fill="#F3D2AB"/>
<path d="M54.9081 48.6722C55.6408 48.6193 56.1454 47.3378 56.035 45.8098C55.9247 44.2819 55.2412 43.0861 54.5085 43.1391C53.7758 43.192 53.2712 44.4735 53.3816 46.0014C53.4919 47.5294 54.1754 48.7251 54.9081 48.6722Z" fill="#F3D2AB"/>
<path d="M75.6095 48.8688L75.1955 36.6507L73.7468 32.7112L65.2803 30.4274L56.8139 32.7112L55.3651 36.6507L54.9512 48.8688C54.9512 48.8688 54.4683 51.8377 55.5721 54.0073C56.6759 56.1768 57.7107 57.1676 59.1594 58.6134C60.6082 60.0592 62.5019 60.5076 65.2803 60.5974C68.0588 60.5076 69.9525 60.0592 71.4013 58.6134C72.85 57.1676 73.8848 56.1768 74.9886 54.0073C76.0924 51.8377 75.6095 48.8688 75.6095 48.8688Z" fill="#F3D2AB"/>
<path d="M63.9701 74.4641V92.3688H66.0798V74.4641C66.3549 70.0873 67.8848 68.851 67.8848 68.851L66.997 67.8938L65.1113 70.1457L63.5255 67.8938L62.165 68.851C62.165 68.851 63.6949 70.0873 63.9701 74.4641Z" fill="#4E3D7C"/>
<path d="M65.8129 35.0898C66.318 35.0011 68.702 34.5973 70.7093 35.0898C72.7166 35.5822 74.1664 38.0444 74.1071 38.3257C74.0477 38.6071 73.1658 39.592 73.5106 41.0693C73.8554 42.5466 74.3876 46.5128 74.3876 46.5128C74.3876 46.5128 74.6534 42.9687 75.6904 44.0239C76.7274 45.0791 76.7086 46.3454 76.1135 47.4006C75.5183 48.4558 75.3837 50.5818 75.3837 50.5818C75.3837 50.5818 78.5059 46.9082 78.5608 44.7977C78.6157 42.6873 80.4014 42.9687 78.3548 39.803C78.3548 39.803 79.6696 37.2705 77.5695 34.527C77.5695 34.527 77.0783 31.2206 75.7965 29.3916C74.5147 27.5626 71.7369 25.5928 70.3235 25.7335C68.91 25.8742 69.1648 25.1707 67.6037 25.1707C66.0425 25.1707 65.7847 25.8039 64.6609 26.0853C63.5371 26.3666 61.7137 25.1707 59.5068 26.7184C57.2998 28.266 57.3823 28.5474 56.5004 29.5323C55.6185 30.5172 57.4332 31.502 54.2863 32.6276C51.1394 33.7531 53.1572 39.6623 53.1572 39.6623C53.1572 39.6623 51.9007 41.6321 52.8021 42.9687C53.2386 43.616 52.8168 46.2518 53.3685 47.6518C53.956 49.1427 54.8557 49.9468 54.8557 49.9468C54.8557 49.9468 55.2162 49.2245 55.1309 48.0072C54.9856 45.9342 54.5032 42.9714 55.6757 43.6529C56.834 44.3261 57.1057 47.2205 57.1057 47.2205C57.1057 47.2205 57.1675 42.2652 57.9465 40.5065C57.9465 40.5065 56.8689 38.4664 58.5646 36.5671C60.2604 34.6677 59.7056 33.2607 61.5855 34.1049C63.4653 34.9491 64.9684 35.238 65.8129 35.0898Z" fill="#3A556A"/>
</svg>
