<svg width="40" height="40" viewBox="0 0 40 40" fill="none" xmlns="http://www.w3.org/2000/svg">
<rect width="40" height="40" rx="3.63636" fill="#EAECF5"/>
<g clip-path="url(#clip0_1054_25760)">
<path d="M15.129 22.2379H10.7178V32.6513H15.129V22.2379Z" fill="#CDD3DA"/>
<path d="M18.4384 12.6797H7.41211V22.2378H18.4384V12.6797Z" fill="#717BBC"/>
<path d="M18.4384 17.4575H7.41211V22.238H18.4384V17.4575Z" fill="#3E4784"/>
<path d="M30.9978 17.4575V26.6474L18.4375 22.238V17.4575H30.9978Z" fill="#CDD3DA"/>
<path d="M32.126 15.0352V19.8804C33.4633 19.8804 34.5465 18.7948 34.5465 17.4574C34.5465 16.1204 33.4634 15.0352 32.126 15.0352Z" fill="#363F72"/>
<path d="M32.4706 7.34866H30.999V28.1842H32.4706V7.34866Z" fill="#FDB022"/>
<path d="M7.4123 13.8717H6.43164V21.0429H7.4123V13.8717Z" fill="#FDB022"/>
<path d="M6.43122 15.1745H5.45508V19.7402H6.43122V15.1745Z" fill="#E6EAEE"/>
<path d="M30.9978 8.26703V17.4574H18.4375V12.6785L30.9978 8.26703Z" fill="#E6EAEE"/>
<path d="M16.7605 25.4969H15.1289V22.2379L16.7605 25.4969Z" fill="#3E4784"/>
</g>
<defs>
<clipPath id="clip0_1054_25760">
<rect width="29.0909" height="29.0909" fill="white" transform="translate(5.45508 5.45453)"/>
</clipPath>
</defs>
</svg>
