<svg width="64" height="64" viewBox="0 0 70 70" fill="none" xmlns="http://www.w3.org/2000/svg">
<rect width="64" height="64" rx="32" fill="#F2F4F7"/>
<g clip-path="url(#clip0_1942_28252)">
<path d="M32.5101 47.8691C30.28 47.8691 28.4723 49.6893 28.4723 51.9346C28.4723 54.1798 30.28 56 32.5101 56C34.7401 56 36.5479 54.1798 36.5479 51.9346C36.5479 49.6893 34.7401 47.8691 32.5101 47.8691Z" fill="#F11014"/>
<path d="M41.8335 47.1928L33.1014 43.5107C32.9146 43.4319 32.714 43.3913 32.5114 43.3913C32.3088 43.3913 32.1082 43.4319 31.9214 43.5107L23.1904 47.1928C21.6424 47.8408 20.3304 45.8761 21.5169 44.6816L30.6716 35.4641C30.9133 35.2206 31.2003 35.0274 31.5162 34.8957C31.832 34.7639 32.1706 34.696 32.5125 34.696C32.8544 34.696 33.1929 34.7639 33.5088 34.8957C33.8246 35.0274 34.1116 35.2206 34.3533 35.4641L43.5091 44.6816C44.6934 45.8761 43.3804 47.8451 41.8335 47.1928Z" fill="#F11014"/>
<path d="M32.5071 8.99996C33.3057 8.99996 34.0864 9.23839 34.7504 9.68511C35.4144 10.1318 35.932 10.7668 36.2376 11.5096C36.5432 12.2525 36.6231 13.0699 36.4673 13.8585C36.3115 14.6472 35.927 15.3716 35.3623 15.9401C34.7976 16.5087 34.0781 16.8959 33.2949 17.0527C32.5116 17.2096 31.6997 17.1291 30.9619 16.8214C30.2241 16.5137 29.5935 15.9926 29.1498 15.3241C28.7061 14.6555 28.4693 13.8695 28.4693 13.0654C28.4705 11.9875 28.8962 10.9541 29.6532 10.192C30.4102 9.42979 31.4366 9.0011 32.5071 8.99996Z" fill="#1084F1"/>
<path d="M33.1007 21.49L41.8328 17.808C43.3797 17.16 44.6917 19.1236 43.5063 20.3182L34.3505 29.5378C33.8621 30.029 33.2 30.3049 32.5096 30.3049C31.8193 30.3049 31.1572 30.029 30.6688 29.5378L21.514 20.3192C20.3276 19.1247 21.6395 17.1557 23.1875 17.8091L31.9186 21.4911C32.1059 21.5696 32.3068 21.6098 32.5098 21.6097C32.7127 21.6095 32.9135 21.5688 33.1007 21.49Z" fill="#1084F1"/>
<path d="M51.9622 28.4221C52.7608 28.4221 53.5415 28.6605 54.2055 29.1072C54.8695 29.554 55.387 30.1889 55.6926 30.9317C55.9983 31.6746 56.0782 32.492 55.9224 33.2807C55.7666 34.0693 55.3821 34.7937 54.8174 35.3622C54.2527 35.9308 53.5332 36.318 52.7499 36.4749C51.9667 36.6317 51.1548 36.5512 50.417 36.2435C49.6792 35.9358 49.0486 35.4147 48.6049 34.7462C48.1612 34.0776 47.9244 33.2916 47.9244 32.4875C47.9255 31.4097 48.3513 30.3763 49.1083 29.6141C49.8653 28.8519 50.8917 28.4232 51.9622 28.4221V28.4221Z" fill="#50DB00"/>
<path d="M44.0599 33.0825L47.5721 41.5266C48.2157 43.0852 46.2655 44.4061 45.079 43.2115L36.2826 34.3548C36.0407 34.1115 35.8489 33.8225 35.718 33.5045C35.5871 33.1865 35.5197 32.8456 35.5197 32.5014C35.5197 32.1571 35.5871 31.8163 35.718 31.4982C35.8489 31.1802 36.0407 30.8913 36.2826 30.648L45.0576 21.8096C46.2462 20.615 48.2018 21.936 47.5528 23.4891L44.0599 31.8922C43.9819 32.0808 43.9417 32.2831 43.9417 32.4873C43.9417 32.6916 43.9819 32.8939 44.0599 33.0825V33.0825Z" fill="#50DB00"/>
<path d="M13.0384 28.4221C13.837 28.4221 14.6176 28.6605 15.2817 29.1072C15.9457 29.5539 16.4632 30.1889 16.7688 30.9317C17.0744 31.6746 17.1544 32.492 16.9986 33.2807C16.8428 34.0693 16.4582 34.7937 15.8935 35.3622C15.3288 35.9308 14.6094 36.318 13.8261 36.4749C13.0429 36.6317 12.231 36.5512 11.4932 36.2435C10.7554 35.9358 10.1247 35.4147 9.68106 34.7462C9.23738 34.0776 9.00057 33.2916 9.00057 32.4875C9.0017 31.4096 9.42748 30.3762 10.1845 29.6141C10.9415 28.8519 11.9678 28.4232 13.0384 28.4221V28.4221Z" fill="#F78C12"/>
<path d="M28.7382 34.354L19.9064 43.2464C18.7199 44.4409 16.7643 43.1189 17.4133 41.5614L20.9394 33.0827C21.0177 32.8946 21.058 32.6927 21.058 32.4887C21.058 32.2847 21.0177 32.0828 20.9394 31.8947L17.4315 23.4603C16.7879 21.9017 18.7381 20.5807 19.9246 21.7753L28.7382 30.6493C29.226 31.1407 29.5 31.8069 29.5 32.5017C29.5 33.1964 29.226 33.8626 28.7382 34.354V34.354Z" fill="#F78C12"/>
</g>
<defs>
<clipPath id="clip0_1942_28252">
<rect width="47" height="47" fill="white" transform="translate(56 56) rotate(-180)"/>
</clipPath>
</defs>
</svg>
