<svg width="40" height="40" viewBox="0 0 40 40" fill="none" xmlns="http://www.w3.org/2000/svg">
<path d="M35.5777 17.7576L32.8325 15.7284H32.8045V10.6604H32.8029L24.0041 2.05042L24.0001 2.05482H7.18925V15.7412L4.42285 17.8316V28.6668V29.2836H5.03965H7.18925V37.95H32.8045V29.2832H34.9541H35.5709V28.6664V25.708L35.5777 17.7576ZM13.4697 26.3788V21.3272H15.1757C15.5213 21.3272 15.8201 21.3684 16.0721 21.4492C16.3241 21.5308 16.5309 21.6436 16.6937 21.7892C16.8561 21.934 16.9761 22.1064 17.0537 22.3064C17.1317 22.5056 17.1705 22.7228 17.1705 22.9572C17.1705 23.2056 17.1301 23.4328 17.0485 23.64C16.9673 23.8464 16.8441 24.0236 16.6793 24.172C16.5145 24.3204 16.3069 24.436 16.0561 24.518C15.8057 24.6008 15.5121 24.6424 15.1753 24.6424H14.5137V26.3796L13.4697 26.3788ZM18.0669 26.3788V21.3272H20.0093C20.3969 21.3272 20.7497 21.3896 21.0677 21.5156C21.3857 21.6408 21.6585 21.8156 21.8841 22.04C22.1097 22.2644 22.2857 22.5304 22.4097 22.8392C22.5341 23.1476 22.5957 23.4848 22.5957 23.852C22.5957 24.2208 22.5341 24.5604 22.4097 24.87C22.2849 25.18 22.1097 25.4464 21.8841 25.6692C21.6585 25.8924 21.3857 26.0656 21.0677 26.1916C20.7497 26.3168 20.3969 26.3796 20.0093 26.3796L18.0669 26.3788ZM26.8137 22.1456H24.6481V23.5412H26.4657V24.3632H24.6481V26.3788H23.5969V21.3272H26.8137V22.1456ZM22.7665 3.28841L22.7581 11.8828L31.5705 11.8928V17.764H8.42245V3.28841H22.7665ZM31.5709 36.716H8.42245V29.2832H31.5709V36.716Z" fill="#D9434D"/>
<path d="M21.4189 24.5688C21.4893 24.358 21.5237 24.1188 21.5237 23.852C21.5237 23.5872 21.4893 23.3492 21.4189 23.138C21.3493 22.9276 21.2497 22.748 21.1197 22.602C20.9901 22.4556 20.8309 22.3432 20.6445 22.264C20.4577 22.1848 20.2461 22.1456 20.0093 22.1456H19.1181V25.5608H20.0093C20.2461 25.5608 20.4581 25.5216 20.6445 25.4436C20.8313 25.3668 20.9897 25.2536 21.1197 25.106C21.2497 24.9592 21.3493 24.78 21.4189 24.5688ZM15.8941 23.6044C16.0461 23.4464 16.1221 23.2308 16.1221 22.9572C16.1221 22.832 16.1033 22.7176 16.0649 22.6148C16.0265 22.5112 15.9685 22.4232 15.8905 22.35C15.8129 22.2768 15.7149 22.2208 15.5965 22.1812C15.4781 22.1416 15.3377 22.1224 15.1753 22.1224H14.5137V23.842H15.1753C15.5025 23.8416 15.7421 23.762 15.8941 23.6044Z" fill="#D9434D"/>
</svg>
