<svg width="118" height="106" viewBox="0 0 118 106" fill="none" xmlns="http://www.w3.org/2000/svg">
<path d="M17.246 27.7395L27.7694 38.2629C35.7621 30.2703 46.8036 25.3267 59 25.3267V10.4444C42.6941 10.4444 27.9319 17.0538 17.246 27.7395V27.7395Z" fill="#DFDFED"/>
<path d="M100.754 27.7395L90.2304 38.2629C82.2377 30.2703 71.1962 25.3267 58.9998 25.3267V10.4444C75.3059 10.4444 90.0681 17.0538 100.754 27.7395V27.7395Z" fill="#CCCCD1"/>
<path d="M100.75 27.7431L90.2306 38.2626C97.7236 45.7556 102.537 55.9285 103.109 67.2204C103.173 68.4902 104.209 69.4932 105.48 69.4932H115.622C116.973 69.4932 118.054 68.3667 117.998 67.0162C117.365 51.696 110.892 37.8851 100.75 27.7431V27.7431Z" fill="#A8A8AF"/>
<path d="M105.93 33.6658C106.096 35.0928 106.185 36.537 106.185 37.9972C106.185 44.6329 104.439 50.9539 101.283 56.7021C102.297 60.0595 102.924 63.5848 103.109 67.2271C103.173 68.4949 104.212 69.4935 105.481 69.4935H115.622C116.973 69.4935 118.053 68.3675 117.998 67.0172C117.481 54.4988 113.062 42.9906 105.93 33.6658V33.6658Z" fill="#A8A8AF"/>
<path d="M17.2499 27.7431L27.7694 38.2626C20.2764 45.7556 15.4631 55.9285 14.8908 67.2204C14.8265 68.4902 13.7915 69.4932 12.52 69.4932H2.3782C1.0265 69.4932 -0.0537067 68.3667 0.00206671 67.0162C0.634703 51.696 7.10788 37.8851 17.2499 27.7431V27.7431Z" fill="#F2F2F7"/>
<path d="M106.185 24.0905C105.729 24.0905 105.273 23.9165 104.925 23.5687C92.6581 11.3013 76.3483 4.54535 59 4.54535C58.0157 4.54535 57.2178 3.74747 57.2178 2.76313C57.2178 1.7788 58.0157 0.980919 59 0.980919C77.3004 0.980919 94.5053 8.10747 107.445 21.0478C108.141 21.7441 108.141 22.8722 107.445 23.5685C107.097 23.9165 106.641 24.0905 106.185 24.0905V24.0905Z" fill="#F2F2F7"/>
<path d="M107.445 21.048C106.825 20.4285 105.847 20.3513 105.138 20.8667L50.4842 60.5836C50.0627 60.8901 49.7962 61.3658 49.7552 61.8857C49.7144 62.4052 49.9032 62.9171 50.2717 63.2856L65.2079 78.222C65.5432 78.5574 65.9973 78.7438 66.4679 78.7438C66.5144 78.7438 66.561 78.742 66.6078 78.7383C67.1275 78.6975 67.6032 78.4311 67.9099 78.0093L107.627 23.356C108.142 22.6468 108.065 21.668 107.445 21.048Z" fill="#1B3692"/>
<path d="M59 69.4935C65.6285 69.4935 71.0019 64.1201 71.0019 57.4917C71.0019 50.8632 65.6285 45.4898 59 45.4898C52.3716 45.4898 46.9981 50.8632 46.9981 57.4917C46.9981 64.1201 52.3716 69.4935 59 69.4935Z" fill="#F3D2AB"/>
<path d="M64.9696 47.0813C65.9802 48.8401 66.5612 50.8769 66.5612 53.0509C66.5612 59.6795 61.1878 65.0528 54.5593 65.0528C52.3853 65.0528 50.3484 64.4718 48.5897 63.4612C50.6607 67.0648 54.5455 69.4935 59 69.4935C65.6285 69.4935 71.0019 64.1201 71.0019 57.4916C71.0017 53.0371 68.573 49.1523 64.9696 47.0813V47.0813Z" fill="#F3D2AB"/>
<path d="M38.837 79.0949V87.2802C38.837 88.5925 39.9008 89.6563 41.2131 89.6563H76.7869C78.0992 89.6563 79.163 88.5925 79.163 87.2802V79.0949C79.163 73.7923 74.8643 69.4933 69.5615 69.4933H48.4383C43.1357 69.4935 38.837 73.7923 38.837 79.0949Z" fill="#3570D4"/>
<path d="M69.5615 69.4935H63.8007C69.1035 69.4935 73.4022 73.7922 73.4022 79.0951V89.6568H76.7869C78.0992 89.6568 79.163 88.5929 79.163 87.2806V79.0953C79.163 73.7922 74.8643 69.4935 69.5615 69.4935Z" fill="#3570D4"/>
<path d="M76.7867 105.019H41.2131C39.9008 105.019 38.837 103.955 38.837 102.643V99.714C38.837 98.4017 39.9008 97.3379 41.2131 97.3379H76.7869C78.0992 97.3379 79.163 98.4017 79.163 99.714V102.643C79.163 103.955 78.0992 105.019 76.7867 105.019V105.019Z" fill="#2C5BC0"/>
<path d="M50.7006 89.6565V84.8557C50.7006 83.8713 49.9027 83.0734 48.9184 83.0734C47.934 83.0734 47.1362 83.8713 47.1362 84.8557V89.6565H50.7006Z" fill="#2C5BC0"/>
<path d="M70.8636 84.8556C70.8636 83.8713 70.0657 83.0734 69.0814 83.0734C68.0971 83.0734 67.2992 83.8713 67.2992 84.8556V89.6565H70.8636V84.8556Z" fill="#2C5BC0"/>
<path d="M116.218 78.7438H104.891C103.907 78.7438 103.109 77.946 103.109 76.9616C103.109 75.9773 103.907 75.1794 104.891 75.1794H116.218C117.202 75.1794 118 75.9773 118 76.9616C118 77.946 117.202 78.7438 116.218 78.7438Z" fill="#2C5BC0"/>
<path d="M113.248 86.4251H107.967C106.983 86.4251 106.185 85.6273 106.185 84.6429C106.185 83.6586 106.983 82.8607 107.967 82.8607H113.248C114.233 82.8607 115.03 83.6586 115.03 84.6429C115.03 85.6273 114.233 86.4251 113.248 86.4251Z" fill="#2C5BC0"/>
<path d="M1.78221 78.7438H13.1086C14.0929 78.7438 14.8908 77.946 14.8908 76.9616C14.8908 75.9773 14.0929 75.1794 13.1086 75.1794H1.78221C0.797883 75.1794 0 75.9773 0 76.9616C0 77.9462 0.797883 78.7438 1.78221 78.7438V78.7438Z" fill="#2C5BC0"/>
<path d="M4.7518 86.4251H10.0325C11.0169 86.4251 11.8147 85.6273 11.8147 84.6429C11.8147 83.6586 11.0169 82.8607 10.0325 82.8607H4.7518C3.76747 82.8607 2.96959 83.6586 2.96959 84.6429C2.96959 85.6273 3.76747 86.4251 4.7518 86.4251Z" fill="#2C5BC0"/>
</svg>
