<?xml version="1.0" encoding="utf-8"?>
<!-- Generator: Adobe Illustrator 26.0.3, SVG Export Plug-In . SVG Version: 6.00 Build 0)  -->
<svg version="1.1" id="Capa_1" xmlns="http://www.w3.org/2000/svg" xmlns:xlink="http://www.w3.org/1999/xlink" x="0px" y="0px"
	 viewBox="0 0 512 512" style="enable-background:new 0 0 512 512;" xml:space="preserve">
<style type="text/css">
	.st0{fill:#DEDEE8;}
	.st1{fill:#1B3692;}
	.st2{fill:#4078D6;}
	.st3{fill:#EAEAEA;}
	.st4{fill:#34A853;}
	.st5{fill:#CFCFCF;}
	.st6{fill:#EFB100;}
	.st7{fill:#A6A6A6;}
</style>
<g>
	<g>
		<path class="st0" d="M105.2,6.93h378.33v447.12H105.2V6.93z"/>
	</g>
</g>
<g>
	<g>
		<path class="st1" d="M173.98,196.1h51.59v137.58h-51.59V196.1z"/>
	</g>
</g>
<g>
	<g>
		<path class="st2" d="M268.57,153.1h51.59v180.57h-51.59V153.1z"/>
	</g>
</g>
<g>
	<circle class="st3" cx="131.8" cy="386.61" r="116.88"/>
</g>
<g>
	<g>
		<path class="st4" d="M363.15,170.3h51.59v163.37h-51.59V170.3z"/>
	</g>
</g>
<path class="st1" d="M445.95,42.41l-68.79,22.93l28.36,18.91l-19.43,24.28l-88.79-32.3c-2.52-0.9-5.29-0.61-7.56,0.83l-91.47,58.21
	l-65.2-16.3l-4.16,16.68l68.79,17.2c0.69,0.17,1.38,0.26,2.08,0.26c1.62,0,3.22-0.46,4.62-1.34l91.01-57.92l90.6,32.95
	c3.47,1.26,7.34,0.16,9.65-2.71l24.23-30.27l26.07,17.38L445.95,42.41z"/>
<path class="st5" d="M45.28,308.22c-18.81,20.74-30.37,48.18-30.37,78.39c0,64.55,52.33,116.88,116.88,116.88
	c29.86,0,57.02-11.29,77.68-29.72c2.8-3.01,5.47-6.13,7.94-9.43c-19.54,14.67-43.73,23.47-70.04,23.47
	c-64.55,0-116.88-52.33-116.88-116.88c0-26.31,8.8-50.5,23.47-70.04C50.93,303.17,48.08,305.66,45.28,308.22L45.28,308.22z"/>
<g>
	<g>
		<path class="st6" d="M160.05,332.06l-24.67,13.44l-7.6,31.22l13.79,7.25l21.4-23.97L160.05,332.06z"/>
	</g>
</g>
<g>
	<g>
		<circle class="st6" cx="131.8" cy="387.13" r="15.58"/>
	</g>
</g>
<g>
	<path class="st7" d="M124.01,300.89h15.58v-30.78c-2.59-0.16-5.16-0.39-7.79-0.39c-2.63,0-5.21,0.23-7.79,0.39V300.89z"/>
	<path class="st7" d="M46.08,394.4v-15.58H15.3c-0.16,2.59-0.39,5.16-0.39,7.79s0.23,5.21,0.39,7.79H46.08z"/>
	<path class="st7" d="M217.51,378.81v15.58h30.78c0.17-2.59,0.39-5.16,0.39-7.79s-0.23-5.21-0.39-7.79H217.51z"/>
	<path class="st7" d="M49.12,303.99c-1.83,1.83-3.51,3.79-5.22,5.74l21.78,21.78l11.02-11.02l-21.78-21.78
		c-1.95,1.71-3.91,3.39-5.74,5.22L49.12,303.99z"/>
	<path class="st7" d="M214.47,303.99l-0.06-0.06c-1.83-1.83-3.79-3.51-5.74-5.22l-21.78,21.78l11.02,11.02l21.78-21.78
		C217.99,307.78,216.3,305.82,214.47,303.99L214.47,303.99z"/>
</g>
<g>
	<path class="st7" d="M259.97,376.66h189.17v17.2H259.97V376.66z"/>
</g>
</svg>
