<svg width="104" height="94" viewBox="0 0 104 94" fill="none" xmlns="http://www.w3.org/2000/svg">
<path d="M72.2031 33.375C71.9034 33.3749 71.6104 33.286 71.3612 33.1195C71.112 32.9529 70.9178 32.7162 70.8031 32.4393C70.6884 32.1624 70.6584 31.8577 70.7169 31.5638C70.7753 31.2698 70.9196 30.9998 71.1315 30.7878L78.7097 23.2097C78.9955 22.9336 79.3784 22.7808 79.7758 22.7843C80.1731 22.7878 80.5533 22.9471 80.8343 23.2282C81.1153 23.5092 81.2747 23.8893 81.2781 24.2867C81.2816 24.6841 81.1288 25.0669 80.8528 25.3528L73.2746 32.9309C72.9905 33.2152 72.605 33.3749 72.2031 33.375Z" fill="#F2F2F7"/>
<path d="M25.2186 71.2656C24.9189 71.2656 24.6259 71.1766 24.3767 71.0101C24.1276 70.8435 23.9333 70.6069 23.8187 70.33C23.704 70.0531 23.674 69.7484 23.7324 69.4544C23.7909 69.1604 23.9352 68.8904 24.1471 68.6784L33.2408 59.5847C33.5267 59.3086 33.9095 59.1558 34.3069 59.1593C34.7043 59.1628 35.0844 59.3221 35.3654 59.6032C35.6465 59.8842 35.8059 60.2643 35.8093 60.6617C35.8128 61.0591 35.66 61.4419 35.3839 61.7278L26.2902 70.8215C26.006 71.1058 25.6205 71.2655 25.2186 71.2656Z" fill="#F2F2F7"/>
<path d="M34.3124 28.8281C33.9105 28.828 33.525 28.6683 33.2409 28.384L22.6315 17.7747C22.3471 17.4903 22.1873 17.1046 22.1873 16.7024C22.1873 16.3002 22.3471 15.9145 22.6315 15.6301C22.9159 15.3457 23.3016 15.1859 23.7038 15.1859C24.106 15.1859 24.4917 15.3457 24.7761 15.6301L35.3855 26.2394C35.598 26.4514 35.7428 26.7217 35.8015 27.0161C35.8602 27.3104 35.8302 27.6156 35.7152 27.8929C35.6003 28.1701 35.4056 28.4071 35.1559 28.5736C34.9061 28.7401 34.6126 28.8287 34.3124 28.8281Z" fill="#F2F2F7"/>
<path d="M52.4999 21.25C52.0979 21.25 51.7124 21.0903 51.4282 20.8061C51.144 20.5218 50.9843 20.1363 50.9843 19.7344V13.6719C50.9843 13.2699 51.144 12.8844 51.4282 12.6002C51.7124 12.3159 52.0979 12.1562 52.4999 12.1562C52.9019 12.1562 53.2874 12.3159 53.5716 12.6002C53.8559 12.8844 54.0155 13.2699 54.0155 13.6719V19.7344C54.0155 20.1363 53.8559 20.5218 53.5716 20.8061C53.2874 21.0903 52.9019 21.25 52.4999 21.25Z" fill="#F2F2F7"/>
<path d="M87.3593 56.1094C87.1253 56.1117 86.894 56.0598 86.6833 55.9578L74.5583 49.8953C74.1986 49.7156 73.9249 49.4004 73.7976 49.019C73.6703 48.6375 73.6997 48.2211 73.8793 47.8613C74.059 47.5016 74.3743 47.2279 74.7557 47.1006C75.1371 46.9733 75.5536 47.0027 75.9133 47.1823L88.0383 53.2448C88.3402 53.3995 88.5814 53.6508 88.7235 53.9588C88.8656 54.2667 88.9003 54.6134 88.8221 54.9434C88.7439 55.2734 88.5573 55.5676 88.2921 55.779C88.0269 55.9904 87.6984 56.1067 87.3593 56.1094Z" fill="#F2F2F7"/>
<path d="M26.7343 47.0156H20.6718C20.2698 47.0156 19.8843 46.8559 19.6001 46.5717C19.3158 46.2875 19.1562 45.902 19.1562 45.5C19.1562 45.098 19.3158 44.7125 19.6001 44.4283C19.8843 44.1441 20.2698 43.9844 20.6718 43.9844H26.7343C27.1363 43.9844 27.5218 44.1441 27.806 44.4283C28.0902 44.7125 28.2499 45.098 28.2499 45.5C28.2499 45.902 28.0902 46.2875 27.806 46.5717C27.5218 46.8559 27.1363 47.0156 26.7343 47.0156Z" fill="#F2F2F7"/>
<path d="M58.5624 83.3906C58.2248 83.3903 57.897 83.2772 57.6309 83.0694C57.3649 82.8615 57.1758 82.5708 57.0938 82.2433L54.0626 70.1183C53.9681 69.7295 54.0312 69.3192 54.2381 68.9767C54.445 68.6343 54.7789 68.3875 55.167 68.2903C55.5551 68.1931 55.9659 68.2533 56.3098 68.4577C56.6538 68.6622 56.9029 68.9943 57.0029 69.3817L60.0341 81.5067C60.1318 81.8966 60.0706 82.3094 59.8639 82.6541C59.6573 82.9989 59.3222 83.2475 58.9323 83.3452C58.8114 83.3759 58.6871 83.3911 58.5624 83.3906Z" fill="#F2F2F7"/>
<path d="M87.9122 31.7579C96.6819 31.7579 103.791 24.6487 103.791 15.879C103.791 7.10925 96.6819 0 87.9122 0C79.1425 0 72.0332 7.10925 72.0332 15.879C72.0332 24.6487 79.1425 31.7579 87.9122 31.7579Z" fill="#F2F2F7"/>
<path d="M16.9992 93.9705C25.8362 93.9705 33 86.8067 33 77.9698C33 69.1328 25.8362 61.969 16.9992 61.969C8.16228 61.969 0.998505 69.1328 0.998505 77.9698C0.998505 86.8067 8.16228 93.9705 16.9992 93.9705Z" fill="#F2F2F7"/>
<path d="M20.0138 25.9975C27.1859 25.9975 33 20.1834 33 13.0114C33 5.83931 27.1859 0.0252075 20.0138 0.0252075C12.8418 0.0252075 7.02768 5.83931 7.02768 13.0114C7.02768 20.1834 12.8418 25.9975 20.0138 25.9975Z" fill="#F2F2F7"/>
<path d="M24.8832 21.1277C22.6108 21.1296 20.3777 20.5347 18.4075 19.4025C16.4373 18.2703 14.799 16.6405 13.6565 14.6762C12.514 12.7119 11.9074 10.482 11.8975 8.20968C11.8875 5.93733 12.4746 3.70221 13.5998 1.728C11.8564 2.71269 10.3643 4.08719 9.24005 5.7441C8.11584 7.40101 7.39001 9.29544 7.11927 11.2793C6.84852 13.2633 7.0402 15.2829 7.67933 17.1804C8.31846 19.078 9.38772 20.8021 10.8036 22.2179C12.2194 23.6337 13.9435 24.703 15.841 25.3421C17.7386 25.9812 19.7582 26.1729 21.7421 25.9022C23.726 25.6314 25.6204 24.9056 27.2773 23.7814C28.9343 22.6572 30.3088 21.1651 31.2934 19.4216C29.3416 20.5385 27.132 21.1266 24.8832 21.1277Z" fill="#EAEAEA"/>
<path d="M98.484 87.1948L74.5371 63.248C74.043 62.7528 73.7352 62.102 73.6662 61.4059C73.5971 60.7098 73.771 60.0112 74.1582 59.4286C77.6029 54.0765 78.947 47.6397 77.9321 41.3563C76.9172 35.073 73.6148 29.3867 68.6602 25.3913C63.7057 21.3959 57.4488 19.3735 51.093 19.7131C44.7373 20.0527 38.7315 22.7304 34.2309 27.231C29.7303 31.7316 27.0527 37.7373 26.7131 44.0931C26.3735 50.4489 28.3959 56.7057 32.3913 61.6603C36.3866 66.6149 42.0729 69.9172 48.3563 70.9322C54.6396 71.9471 61.0764 70.603 66.4285 67.1583C67.0111 66.771 67.7097 66.5972 68.4058 66.6663C69.102 66.7353 69.7528 67.043 70.2479 67.5372L94.316 91.5902C94.6262 91.9028 95.0011 92.1439 95.4143 92.2964C95.8275 92.449 96.269 92.5093 96.708 92.4732C97.1469 92.4371 97.5727 92.3055 97.9554 92.0875C98.3382 91.8695 98.6686 91.5704 98.9235 91.2113C99.3308 90.5958 99.5098 89.8572 99.4295 89.1236C99.3492 88.39 99.0147 87.7076 98.484 87.1948ZM52.4999 65.2031C48.603 65.2031 44.7936 64.0476 41.5535 61.8826C38.3133 59.7176 35.7879 56.6403 34.2966 53.0401C32.8053 49.4398 32.4152 45.4782 33.1754 41.6561C33.9357 37.8341 35.8122 34.3233 38.5677 31.5678C41.3233 28.8123 44.834 26.9357 48.656 26.1755C52.4781 25.4152 56.4397 25.8054 60.04 27.2967C63.6403 28.788 66.7175 31.3134 68.8825 34.5535C71.0475 37.7937 72.2031 41.6031 72.2031 45.5C72.2031 50.7256 70.1272 55.7372 66.4321 59.4322C62.7371 63.1273 57.7255 65.2031 52.4999 65.2031Z" fill="#C1C9D2"/>
<path d="M74.5372 63.248C74.2859 62.9979 74.0806 62.7054 73.9309 62.3841C73.4596 62.1675 72.9409 62.0747 72.4237 62.1145C71.9065 62.1543 71.4081 62.3253 70.9754 62.6114C65.9443 65.864 59.9333 67.2528 53.9853 66.5369C50.8722 66.1666 47.855 65.2215 45.0871 63.7496C42.6644 62.7624 40.4619 61.3038 38.6074 59.4587C36.7529 57.6135 35.2832 55.4185 34.2837 53.0008C32.8258 50.2872 31.88 47.3284 31.4934 44.2724C31.0547 40.8999 31.2893 37.4739 32.1837 34.1928C33.0782 30.9116 34.6146 27.8405 36.7041 25.1573C31.4598 29.2228 27.9872 35.1559 27.0105 41.7192C26.0337 48.2826 27.6282 54.9697 31.4615 60.3862C35.2948 65.8026 41.0709 69.5303 47.5855 70.792C54.1001 72.0537 60.8503 70.752 66.4286 67.1583C67.0111 66.771 67.7097 66.5972 68.4059 66.6663C69.102 66.7353 69.7528 67.043 70.2479 67.5372L94.3161 91.5902C94.6263 91.9028 95.0011 92.1439 95.4143 92.2964C95.8275 92.449 96.269 92.5093 96.708 92.4732C97.147 92.4371 97.5727 92.3055 97.9555 92.0875C98.3382 91.8695 98.6686 91.5704 98.9236 91.2113C99.3308 90.5958 99.5098 89.8572 99.4295 89.1236C99.3493 88.39 99.0147 87.7076 98.484 87.1948L74.5372 63.248Z" fill="#8FA1B0"/>
<path d="M52.4999 40.9531C55.0111 40.9531 57.0468 38.9174 57.0468 36.4062C57.0468 33.8951 55.0111 31.8594 52.4999 31.8594C49.9888 31.8594 47.9531 33.8951 47.9531 36.4062C47.9531 38.9174 49.9888 40.9531 52.4999 40.9531Z" fill="#3570D4"/>
<path d="M50.9843 36.4062C50.986 35.4687 51.2784 34.5547 51.8213 33.7903C52.3642 33.0259 53.1309 32.4487 54.0156 32.1383C53.5302 31.9586 53.0174 31.8643 52.4999 31.8594C51.294 31.8594 50.1375 32.3384 49.2848 33.1911C48.4321 34.0438 47.9531 35.2003 47.9531 36.4062C47.9531 37.6122 48.4321 38.7687 49.2848 39.6214C50.1375 40.4741 51.294 40.9531 52.4999 40.9531C53.0174 40.9482 53.5302 40.8539 54.0156 40.6742C53.1309 40.3638 52.3642 39.7866 51.8213 39.0222C51.2784 38.2578 50.986 37.3438 50.9843 36.4062Z" fill="#2C5BC0"/>
<path d="M87.9122 13.8941C90.1046 13.8941 91.8819 12.1168 91.8819 9.92434C91.8819 7.73192 90.1046 5.95461 87.9122 5.95461C85.7198 5.95461 83.9424 7.73192 83.9424 9.92434C83.9424 12.1168 85.7198 13.8941 87.9122 13.8941Z" fill="#34A853"/>
<path d="M52.4999 40.9531C49.6862 40.9531 46.9876 42.0709 44.998 44.0605C43.0083 46.0502 41.8906 48.7487 41.8906 51.5625V54.2694C41.893 54.8482 42.059 55.4144 42.3696 55.9028C42.6802 56.3912 43.1226 56.7817 43.6457 57.0294C46.3909 58.4171 49.4239 59.1402 52.4999 59.1402C55.576 59.1402 58.609 58.4171 61.3542 57.0294C61.8773 56.7817 62.3197 56.3912 62.6303 55.9028C62.9408 55.4144 63.1069 54.8482 63.1093 54.2694V51.5625C63.1093 48.7487 61.9915 46.0502 60.0019 44.0605C58.0123 42.0709 55.3137 40.9531 52.4999 40.9531Z" fill="#3570D4"/>
<path d="M50.3296 53.3812C49.1774 52.9489 48.1859 52.1727 47.4897 51.158C46.7935 50.1432 46.4261 48.9389 46.4374 47.7083V47.0156C46.4374 45.3198 46.8461 43.6489 47.6287 42.1444C45.9002 43.0366 44.4505 44.3873 43.4384 46.0485C42.4263 47.7096 41.8908 49.6173 41.8906 51.5625V54.2694C41.893 54.8481 42.059 55.4144 42.3696 55.9028C42.6802 56.3912 43.1226 56.7817 43.6457 57.0293C46.3909 58.4171 49.4239 59.1402 52.4999 59.1402C55.576 59.1402 58.609 58.4171 61.3542 57.0293C61.8773 56.7817 62.3197 56.3912 62.6303 55.9028C62.9408 55.4144 63.1069 54.8481 63.1093 54.2694V53.5783C58.9526 54.9782 54.4412 54.9087 50.3296 53.3812Z" fill="#2C5BC0"/>
<path d="M93.8906 24.6779C90.0462 26.1784 85.7782 26.1784 81.9338 24.6779C81.3572 24.4583 80.861 24.0687 80.5108 23.5608C80.1606 23.0529 79.9729 22.4505 79.9727 21.8336C79.9727 19.7279 80.8092 17.7084 82.2981 16.2195C83.7871 14.7306 85.8065 13.8941 87.9122 13.8941C90.0179 13.8941 92.0373 14.7306 93.5262 16.2195C95.0152 17.7084 95.8517 19.7279 95.8517 21.8336C95.8515 22.4505 95.6638 23.0529 95.3136 23.5608C94.9634 24.0687 94.4672 24.4583 93.8906 24.6779Z" fill="#34A853"/>
<path d="M16.9993 75.9697C19.2086 75.9697 20.9995 74.1787 20.9995 71.9695C20.9995 69.7602 19.2086 67.9693 16.9993 67.9693C14.7901 67.9693 12.9991 69.7602 12.9991 71.9695C12.9991 74.1787 14.7901 75.9697 16.9993 75.9697Z" fill="#1A87EE"/>
<path d="M23.0236 86.8362C19.1497 88.3482 14.8489 88.3482 10.975 86.8362C10.394 86.6149 9.894 86.2223 9.54111 85.7105C9.18823 85.1987 8.99915 84.5917 8.99893 83.97C8.99893 81.8482 9.84183 79.8133 11.3422 78.3129C12.8425 76.8126 14.8775 75.9697 16.9993 75.9697C19.1211 75.9697 21.1561 76.8126 22.6564 78.3129C24.1568 79.8133 24.9997 81.8482 24.9997 83.97C24.9994 84.5917 24.8104 85.1987 24.4575 85.7105C24.1046 86.2223 23.6046 86.6149 23.0236 86.8362Z" fill="#1A87EE"/>
<path d="M20.0133 11.3881C21.8063 11.3881 23.2598 9.93456 23.2598 8.14154C23.2598 6.34853 21.8063 4.895 20.0133 4.895C18.2203 4.895 16.7668 6.34853 16.7668 8.14154C16.7668 9.93456 18.2203 11.3881 20.0133 11.3881Z" fill="#FBBC05"/>
<path d="M24.9026 20.2073C21.7586 21.4344 18.2681 21.4344 15.124 20.2073C14.6525 20.0277 14.2467 19.7091 13.9603 19.2937C13.6739 18.8783 13.5204 18.3857 13.5202 17.8812C13.5202 16.1591 14.2043 14.5076 15.422 13.2899C16.6397 12.0722 18.2912 11.3881 20.0133 11.3881C21.7354 11.3881 23.3869 12.0722 24.6046 13.2899C25.8223 14.5076 26.5064 16.1591 26.5064 17.8812C26.5062 18.3857 26.3528 18.8783 26.0664 19.2937C25.78 19.7091 25.3741 20.0277 24.9026 20.2073Z" fill="#FBBC05"/>
<path d="M22.4693 20.8956C20.7647 20.5732 19.142 19.9125 17.697 18.9526C16.2519 17.9927 15.0139 16.753 14.0559 15.3067C13.7032 16.1192 13.5209 16.9954 13.5202 17.8812C13.5204 18.3857 13.6739 18.8783 13.9603 19.2937C14.2467 19.7091 14.6525 20.0277 15.124 20.2073C17.46 21.1186 20.0047 21.357 22.4693 20.8956Z" fill="#D7A516"/>
<path d="M93.8668 25.8033C91.0882 25.8056 88.3578 25.0782 85.9487 23.6938C83.5395 22.3094 81.5363 20.3165 80.1393 17.9147C78.7423 15.5128 78.0006 12.7862 77.9885 10.0077C77.9763 7.22911 78.6941 4.4961 80.07 2.08211C77.9382 3.28615 76.1137 4.96684 74.739 6.99284C73.3644 9.01884 72.4769 11.3353 72.1458 13.7611C71.8148 16.187 72.0492 18.6565 72.8307 20.9767C73.6122 23.297 74.9196 25.4051 76.6508 27.1363C78.3821 28.8676 80.4902 30.175 82.8104 30.9565C85.1307 31.738 87.6002 31.9724 90.0261 31.6413C92.4519 31.3103 94.7683 30.4228 96.7943 29.0481C98.8203 27.6735 100.501 25.849 101.705 23.7172C99.3184 25.0829 96.6166 25.8019 93.8668 25.8033Z" fill="#EAEAEA"/>
<path d="M90.9153 25.5195C88.831 25.1253 86.8468 24.3174 85.0799 23.1437C83.3129 21.97 81.7991 20.4541 80.6277 18.6856C80.1964 19.6791 79.9735 20.7505 79.9727 21.8336C79.9729 22.4505 80.1606 23.0529 80.5108 23.5608C80.861 24.0687 81.3572 24.4583 81.9338 24.6779C84.7902 25.7921 87.9016 26.0837 90.9153 25.5195Z" fill="#23893C"/>
<path d="M22.9997 87.9702C20.1998 87.9726 17.4484 87.2396 15.0208 85.8446C12.5932 84.4495 10.5745 82.4414 9.16685 80.0211C7.75915 77.6008 7.01179 74.8533 6.99953 72.0535C6.98728 69.2536 7.71057 66.4996 9.09702 64.0671C6.94887 65.2804 5.11037 66.974 3.7252 69.0155C2.34002 71.057 1.44569 73.3912 1.1121 75.8357C0.778508 78.2801 1.01469 80.7686 1.80218 83.1067C2.58968 85.4447 3.90715 87.569 5.65166 89.3135C7.39616 91.058 9.52044 92.3755 11.8585 93.163C14.1965 93.9505 16.685 94.1866 19.1294 93.853C21.5739 93.5195 23.9081 92.6251 25.9496 91.24C27.9912 89.8548 29.6848 88.0163 30.898 85.8681C28.4931 87.2443 25.7705 87.9689 22.9997 87.9702Z" fill="#EAEAEA"/>
<path d="M20.0254 87.6842C17.9251 87.287 15.9257 86.473 14.1453 85.2902C12.3648 84.1075 10.8393 82.58 9.65896 80.7979C9.22436 81.799 8.99972 82.8786 8.99893 83.97C8.99915 84.5917 9.18823 85.1987 9.54111 85.7105C9.894 86.2223 10.394 86.6149 10.975 86.8362C13.8533 87.9589 16.9887 88.2527 20.0254 87.6842Z" fill="#0271D9"/>
<path d="M52.4999 17.0938C55.0111 17.0938 57.0468 15.058 57.0468 12.5469C57.0468 10.0357 55.0111 8 52.4999 8C49.9888 8 47.9531 10.0357 47.9531 12.5469C47.9531 15.058 49.9888 17.0938 52.4999 17.0938Z" fill="#3570D4"/>
<path d="M85.5469 58.0938C88.058 58.0938 90.0938 56.058 90.0938 53.5469C90.0938 51.0357 88.058 49 85.5469 49C83.0357 49 81 51.0357 81 53.5469C81 56.058 83.0357 58.0938 85.5469 58.0938Z" fill="#3570D4"/>
<path d="M57.5469 83.0938C60.058 83.0938 62.0938 81.058 62.0938 78.5469C62.0938 76.0357 60.058 74 57.5469 74C55.0357 74 53 76.0357 53 78.5469C53 81.058 55.0357 83.0938 57.5469 83.0938Z" fill="#3570D4"/>
<path d="M19.5469 50.0938C22.058 50.0938 24.0938 48.058 24.0938 45.5469C24.0938 43.0357 22.058 41 19.5469 41C17.0357 41 15 43.0357 15 45.5469C15 48.058 17.0357 50.0938 19.5469 50.0938Z" fill="#3570D4"/>
<path d="M64.625 27.7808C64.3391 27.7808 64.059 27.6999 63.8171 27.5474C62.913 26.9768 61.9671 26.4752 60.9875 26.047C60.804 25.968 60.638 25.8536 60.4989 25.7103C60.3598 25.567 60.2504 25.3977 60.1769 25.212C60.1035 25.0262 60.0675 24.8278 60.071 24.6282C60.0745 24.4285 60.1174 24.2315 60.1973 24.0484C60.2772 23.8654 60.3925 23.7 60.5365 23.5616C60.6805 23.4233 60.8505 23.3148 61.0366 23.2423C61.2227 23.1699 61.4213 23.1349 61.6209 23.1395C61.8206 23.144 62.0174 23.188 62.2 23.2688C63.3194 23.7586 64.4005 24.3316 65.4343 24.983C65.7124 25.1583 65.926 25.4192 66.0428 25.7264C66.1597 26.0337 66.1735 26.3706 66.0821 26.6864C65.9908 27.0021 65.7993 27.2797 65.5364 27.4771C65.2736 27.6745 64.9537 27.7811 64.625 27.7808Z" fill="white"/>
</svg>
