<svg width="89" height="89" viewBox="0 0 89 89" fill="none" xmlns="http://www.w3.org/2000/svg">
<g clip-path="url(#clip0_4927_27011)">
<path d="M44.125 14.8922C52.95 14.8922 61.0395 18.5692 66.9229 24.2688L75.3803 15.8114C67.4745 7.90579 56.4432 2.94173 44.125 2.94173C31.9906 2.94173 20.9593 7.90579 12.8698 15.8116L21.3272 24.2689C27.2104 18.3855 35.3 14.8922 44.125 14.8922Z" fill="#C2C2CA"/>
<path d="M21.327 24.2688L12.8698 15.8114C4.96406 23.9011 0 34.9324 0 47.0667C0 59.2011 4.96406 70.2324 12.8698 78.3219L21.3272 69.8645C15.4439 63.9813 11.9506 55.8916 11.9506 47.0666C11.9505 38.2417 15.4438 30.152 21.327 24.2688Z" fill="#D5D5DF"/>
<path d="M75.3802 15.8114L66.923 24.2688C72.8062 30.152 76.2995 38.2417 76.2995 47.0667C76.2995 55.8917 72.6225 63.9813 66.923 69.8647L75.3803 78.3221C83.2859 70.4161 88.25 59.3848 88.25 47.0667C88.25 34.9324 83.2859 23.9011 75.3802 15.8114Z" fill="#A8A8AF"/>
<path d="M66.923 24.2688L58.8335 32.3583C54.9725 28.6813 49.8245 26.2911 44.1252 26.2911C38.4258 26.2911 33.0939 28.6813 29.4169 32.3583L21.327 24.2688C27.2105 18.3855 35.3 14.8922 44.125 14.8922C52.95 14.8922 61.0395 18.3855 66.923 24.2688Z" fill="#DFDFED"/>
<path d="M29.4167 61.775L21.3272 69.8645C15.4439 63.9812 11.9506 55.8915 11.9506 47.0665C11.9506 38.2415 15.6276 30.152 21.3272 24.2686L29.4167 32.3581C25.7397 36.0351 23.3495 41.367 23.3495 47.0664C23.1656 52.7661 25.5558 58.098 29.4167 61.775Z" fill="#F2F2F7"/>
<path d="M76.2996 47.0667C76.2996 55.8917 72.6225 63.9812 66.923 69.8647L58.8333 61.775C62.5103 57.9141 64.9005 52.7661 64.9005 47.0667C64.9005 41.3674 62.5103 36.0355 58.8333 32.3584L66.9228 24.2689C72.8063 30.152 76.2996 38.2417 76.2996 47.0667Z" fill="#CCCCD1"/>
<path d="M72.4386 29.6005L48.5375 47.802C48.1699 50.0083 46.3313 51.479 44.125 51.479C41.5511 51.479 39.5286 49.4567 39.5286 46.8826C39.5286 44.3086 41.551 42.2862 44.125 42.2862C44.6766 42.2862 45.0443 42.2862 45.5958 42.4701L72.4386 29.6005Z" fill="#1B3692"/>
<path d="M59.9364 85.3083H28.3136C24.4526 85.3083 21.3272 82.1828 21.3272 78.3219C21.3272 74.4609 24.4526 71.3355 28.3136 71.3355H59.7526C63.6136 71.3355 66.739 74.4609 66.739 78.3219C66.923 82.1828 63.7973 85.3083 59.9364 85.3083Z" fill="#2C5BC0"/>
<path d="M44.125 48.9058C45.1405 48.9058 45.9636 48.0827 45.9636 47.0673C45.9636 46.0518 45.1405 45.2287 44.125 45.2287C43.1096 45.2287 42.2864 46.0518 42.2864 47.0673C42.2864 48.0827 43.1096 48.9058 44.125 48.9058Z" fill="white"/>
</g>
<defs>
<clipPath id="clip0_4927_27011">
<rect width="88.25" height="88.25" fill="white"/>
</clipPath>
</defs>
</svg>
