<svg width="353" height="278" viewBox="0 0 353 278" fill="none" xmlns="http://www.w3.org/2000/svg">
<path d="M335.501 77.1335C324.331 46.9368 294.034 25.2795 261.953 32.7319C231.759 39.7314 210.058 66.4942 181.227 77.1993C151.025 88.4232 124.834 80.4685 97.6176 67.1448C74.1411 55.6574 46.134 46.4468 26.529 71.6121C5.30536 98.8896 8.14726 140.668 18.6087 171.021C28.7536 200.478 48.8719 225.467 75.4879 241.671C127.832 273.618 201.681 276.228 257.188 246.571C314.57 215.909 359.834 142.966 335.501 77.1335Z" stroke="#EAEAEA" stroke-width="20" stroke-miterlimit="10"/>
<path d="M307.263 26.5557C286.802 1.67456 251.076 -8.85351 223.217 8.71935C196.998 25.2505 185.268 57.617 161.569 77.1992C136.72 97.7118 109.368 98.7865 79.2894 95.1261C53.3417 91.9722 23.8477 92.4663 13.6004 122.663C2.47993 155.408 18.8847 193.939 38.7244 219.182C57.9781 243.675 85.1852 260.676 115.645 267.248C175.576 280.259 246.208 258.503 288.898 212.281C333.038 164.487 351.873 80.7401 307.263 26.5557Z" fill="#EAEAEA"/>
<path d="M175.65 63.5378L83.7623 142.451L85.4757 178.157C85.4757 182.418 90.6158 242.799 95.5006 242.799L181.297 185.403L258.605 236.911C263.494 236.911 272.93 180.796 272.93 176.534L278.647 142.36L186.68 63.5378C185.05 62.4421 183.13 61.8569 181.165 61.8569C179.201 61.8569 177.281 62.4421 175.65 63.5378Z" fill="#236A35"/>
<path d="M235.273 91.7993H126.704C111.796 91.7993 99.71 103.881 99.71 118.784V230.072C99.71 244.976 111.796 257.058 126.704 257.058H235.273C250.181 257.058 262.267 244.976 262.267 230.072V118.784C262.267 103.881 250.181 91.7993 235.273 91.7993Z" fill="white"/>
<path d="M148.817 188.067H114.36C113.719 188.067 113.104 187.813 112.651 187.359C112.197 186.906 111.942 186.291 111.942 185.65V151.205C111.942 150.887 112.005 150.573 112.127 150.28C112.248 149.987 112.426 149.721 112.651 149.497C112.875 149.273 113.142 149.095 113.435 148.974C113.729 148.853 114.043 148.791 114.36 148.792H148.817C149.134 148.791 149.449 148.853 149.742 148.974C150.035 149.095 150.302 149.273 150.526 149.497C150.751 149.721 150.929 149.987 151.051 150.28C151.172 150.573 151.235 150.887 151.235 151.205V185.65C151.235 186.291 150.98 186.906 150.527 187.359C150.073 187.813 149.458 188.067 148.817 188.067ZM116.778 183.233H146.399V153.621H116.778V183.233Z" fill="#A8D9B5"/>
<path d="M254.239 178.647H168.245C167.604 178.647 166.989 178.392 166.535 177.939C166.082 177.486 165.827 176.871 165.827 176.23C165.827 175.589 166.082 174.974 166.535 174.521C166.989 174.068 167.604 173.813 168.245 173.813H254.239C254.88 173.813 255.495 174.068 255.949 174.521C256.402 174.974 256.657 175.589 256.657 176.23C256.657 176.871 256.402 177.486 255.949 177.939C255.495 178.392 254.88 178.647 254.239 178.647Z" fill="#50DB00" fill-opacity="0.38"/>
<path d="M129.237 180.261H129.187C128.753 180.25 128.329 180.122 127.961 179.891C127.593 179.66 127.294 179.334 127.095 178.947L122.878 170.733C122.585 170.163 122.531 169.499 122.727 168.889C122.924 168.278 123.355 167.771 123.926 167.478C124.497 167.186 125.16 167.132 125.771 167.328C126.381 167.525 126.889 167.956 127.182 168.526L129.369 172.792L138.018 157.805C138.345 157.263 138.871 156.872 139.484 156.714C140.096 156.556 140.746 156.645 141.294 156.96C141.842 157.276 142.245 157.794 142.415 158.403C142.586 159.012 142.511 159.663 142.207 160.217L131.329 179.05C131.117 179.418 130.812 179.723 130.445 179.936C130.078 180.148 129.661 180.26 129.237 180.261Z" fill="#50DB00"/>
<path d="M211.767 158.212H167.928C166.768 158.212 165.827 159.153 165.827 160.312V160.905C165.827 162.065 166.768 163.005 167.928 163.005H211.767C212.927 163.005 213.868 162.065 213.868 160.905V160.312C213.868 159.153 212.927 158.212 211.767 158.212Z" fill="#A8D9B5"/>
<path d="M148.817 143.295H114.36C113.719 143.295 113.104 143.041 112.651 142.587C112.197 142.134 111.942 141.519 111.942 140.878V106.433C111.942 105.792 112.197 105.177 112.651 104.724C113.104 104.27 113.719 104.016 114.36 104.016H148.817C149.458 104.016 150.073 104.27 150.527 104.724C150.98 105.177 151.235 105.792 151.235 106.433V140.878C151.235 141.519 150.98 142.134 150.527 142.587C150.073 143.041 149.458 143.295 148.817 143.295ZM116.778 138.461H146.399V108.849H116.778V138.461Z" fill="#A8D9B5"/>
<path d="M233.687 118.27H167.944C166.775 118.27 165.827 117.191 165.827 115.853C165.827 114.515 166.775 113.44 167.944 113.44H233.687C234.857 113.44 235.808 114.519 235.808 115.853C235.808 117.187 234.857 118.27 233.687 118.27Z" fill="#A8D9B5"/>
<path d="M249.07 133.871H168.101C167.49 133.827 166.918 133.554 166.501 133.106C166.084 132.657 165.852 132.068 165.852 131.456C165.852 130.844 166.084 130.254 166.501 129.806C166.918 129.358 167.49 129.085 168.101 129.041H249.07C249.681 129.085 250.253 129.358 250.67 129.806C251.087 130.254 251.319 130.844 251.319 131.456C251.319 132.068 251.087 132.657 250.67 133.106C250.253 133.554 249.681 133.827 249.07 133.871Z" fill="#50DB00" fill-opacity="0.38"/>
<path d="M129.237 135.489H129.187C128.753 135.477 128.33 135.349 127.961 135.118C127.593 134.887 127.294 134.561 127.095 134.175L122.878 125.961C122.585 125.391 122.531 124.727 122.727 124.117C122.924 123.506 123.355 122.999 123.926 122.706C124.497 122.414 125.16 122.36 125.771 122.556C126.381 122.753 126.889 123.184 127.182 123.754L129.369 128.016L138.018 113.033C138.345 112.491 138.871 112.1 139.484 111.942C140.096 111.784 140.746 111.873 141.294 112.188C141.842 112.504 142.245 113.022 142.415 113.631C142.586 114.24 142.511 114.891 142.207 115.445L131.329 134.278C131.117 134.646 130.812 134.951 130.445 135.164C130.078 135.376 129.661 135.488 129.237 135.489Z" fill="#50DB00"/>
<path d="M183.183 202.132L227.521 158.521C239.165 147.067 255.784 140.524 273.239 140.524C277.337 140.524 280.652 143.126 280.652 146.334V262.892C280.652 266.099 275.113 270.974 271.019 270.974H245.816L183.183 209.366C182.686 208.904 182.29 208.344 182.019 207.722C181.748 207.099 181.608 206.428 181.608 205.749C181.608 205.07 181.748 204.399 182.019 203.777C182.29 203.154 182.686 202.595 183.183 202.132Z" fill="#34A853"/>
<path d="M179.435 202.05L135.077 158.443C123.434 146.988 106.815 140.446 89.3597 140.446C85.241 140.446 81.946 143.048 81.946 146.255V263.513C81.946 266.725 86.699 270.978 90.7971 270.978L116.774 270.9L179.435 209.292C179.934 208.83 180.331 208.269 180.603 207.646C180.875 207.023 181.015 206.351 181.015 205.671C181.015 204.991 180.875 204.319 180.603 203.696C180.331 203.072 179.934 202.512 179.435 202.05Z" fill="#34A853"/>
<path d="M280.644 239.04V264.156C280.644 267.911 276.682 270.958 271.793 270.958H90.8053C85.9164 270.958 81.9542 267.911 81.9542 264.156V239.04L175.782 181.595C177.362 180.666 179.156 180.163 180.988 180.133C183.031 180.06 185.052 180.573 186.812 181.611L280.644 239.04Z" fill="#34A853"/>
<path d="M198.872 186.618L280.644 228.343V239.04L197.401 188.067L198.872 186.618Z" fill="#26773B"/>
<path d="M163.727 186.618L81.9542 228.343V239.04L165.197 188.067L163.727 186.618Z" fill="#26773B"/>
<path d="M134.575 47.5173L115.398 109.78L112.325 119.756L103.565 112.366L80.6651 93.0553L134.575 47.5173Z" fill="#FBBC05"/>
<path d="M134.575 47.5173L67.9466 85.9857L37.6412 75.9435L134.575 47.5173Z" fill="#FBBC05"/>
<path d="M134.575 47.5173L80.6651 93.0553L70.3066 113.761L67.9466 85.9858L134.575 47.5173Z" fill="#C57E2D"/>
<path d="M154.723 258.235C154.619 258.234 154.515 258.219 154.414 258.19C152.186 257.527 149.954 256.77 147.775 255.934C147.64 255.882 147.516 255.805 147.411 255.706C147.306 255.607 147.221 255.488 147.162 255.356C147.102 255.224 147.07 255.081 147.065 254.937C147.061 254.792 147.085 254.648 147.137 254.513C147.188 254.378 147.266 254.254 147.365 254.149C147.464 254.044 147.583 253.959 147.715 253.9C147.847 253.841 147.989 253.808 148.134 253.804C148.278 253.799 148.422 253.824 148.558 253.875C150.683 254.699 152.862 255.431 155.036 256.078C155.288 256.153 155.504 256.315 155.645 256.537C155.786 256.758 155.843 257.022 155.805 257.282C155.767 257.541 155.637 257.778 155.438 257.95C155.239 258.121 154.986 258.215 154.723 258.215V258.235ZM139.707 252.269C139.535 252.269 139.366 252.23 139.212 252.154C137.153 251.108 135.094 249.968 133.08 248.765C132.841 248.612 132.671 248.372 132.607 248.095C132.543 247.819 132.588 247.529 132.735 247.285C132.881 247.042 133.116 246.866 133.39 246.793C133.665 246.72 133.956 246.757 134.204 246.896C136.152 248.07 138.17 249.181 140.197 250.19C140.412 250.302 140.584 250.483 140.685 250.704C140.786 250.925 140.811 251.174 140.754 251.41C140.698 251.647 140.564 251.858 140.374 252.01C140.185 252.161 139.95 252.246 139.707 252.249V252.269ZM125.979 243.771C125.743 243.771 125.513 243.695 125.324 243.553C123.458 242.157 121.617 240.671 119.875 239.147C119.693 238.989 119.568 238.775 119.521 238.538C118.497 238.899 117.455 239.207 116.399 239.46C116.258 239.499 116.11 239.509 115.965 239.49C115.82 239.471 115.681 239.422 115.554 239.348C115.428 239.274 115.319 239.175 115.232 239.057C115.145 238.94 115.082 238.806 115.048 238.664C115.014 238.522 115.008 238.374 115.032 238.23C115.056 238.085 115.109 237.947 115.187 237.824C115.266 237.7 115.368 237.594 115.489 237.511C115.609 237.427 115.745 237.369 115.888 237.34C118.054 236.821 120.154 236.054 122.144 235.055C122.403 234.924 122.703 234.902 122.979 234.993C123.254 235.083 123.482 235.28 123.613 235.538C123.743 235.797 123.766 236.097 123.675 236.373C123.584 236.648 123.388 236.876 123.129 237.006C122.618 237.262 122.103 237.504 121.576 237.731C123.224 239.143 124.904 240.514 126.634 241.807C126.817 241.944 126.952 242.136 127.021 242.355C127.089 242.573 127.087 242.808 127.014 243.025C126.942 243.242 126.803 243.431 126.617 243.565C126.431 243.699 126.208 243.771 125.979 243.771ZM106.975 240.354H106.946C104.573 240.233 102.215 239.902 99.8994 239.366C99.617 239.301 99.372 239.126 99.2183 238.881C99.0646 238.635 99.0148 238.338 99.0798 238.056C99.1448 237.774 99.3193 237.529 99.5649 237.375C99.8105 237.222 100.107 237.172 100.39 237.237C102.57 237.752 104.792 238.07 107.029 238.188C107.318 238.195 107.593 238.317 107.793 238.526C107.992 238.736 108.101 239.016 108.094 239.306C108.086 239.595 107.965 239.87 107.755 240.07C107.545 240.269 107.265 240.377 106.975 240.37V240.354ZM91.3943 236.422C91.2396 236.422 91.0865 236.39 90.9453 236.327C88.8048 235.362 86.7214 234.274 84.7055 233.07C84.4565 232.922 84.2764 232.681 84.205 232.401C84.1335 232.12 84.1765 231.822 84.3245 231.573C84.4726 231.324 84.7134 231.144 84.9942 231.073C85.275 231.002 85.5726 231.045 85.8217 231.193C87.7683 232.357 89.7817 233.406 91.8515 234.334C92.0798 234.436 92.2661 234.613 92.3795 234.836C92.4929 235.059 92.5263 235.313 92.4742 235.558C92.4221 235.802 92.2877 236.021 92.0934 236.179C91.899 236.336 91.6566 236.422 91.4066 236.422H91.3943ZM113.948 232.996C113.794 232.999 113.64 232.968 113.498 232.907C113.356 232.846 113.229 232.756 113.125 232.642C111.532 230.9 110.077 229.037 108.771 227.071C108.626 226.83 108.58 226.543 108.642 226.269C108.703 225.995 108.868 225.755 109.102 225.6C109.336 225.445 109.621 225.385 109.898 225.435C110.175 225.484 110.422 225.638 110.587 225.865C111.843 227.744 113.242 229.524 114.772 231.188C114.916 231.346 115.011 231.542 115.045 231.753C115.079 231.963 115.05 232.179 114.962 232.374C114.875 232.568 114.732 232.733 114.552 232.847C114.371 232.961 114.162 233.02 113.948 233.017V232.996ZM130.011 231.637C129.799 231.638 129.591 231.576 129.413 231.46C129.235 231.344 129.095 231.179 129.009 230.984C128.924 230.79 128.897 230.574 128.933 230.365C128.968 230.155 129.064 229.961 129.208 229.805C129.885 229.075 130.512 228.299 131.082 227.483C131.76 226.505 132.345 225.466 132.828 224.378C132.946 224.114 133.164 223.908 133.435 223.804C133.705 223.701 134.006 223.709 134.27 223.827C134.534 223.945 134.741 224.163 134.844 224.433C134.948 224.703 134.94 225.003 134.822 225.268C134.286 226.474 133.641 227.629 132.894 228.718C132.267 229.621 131.579 230.479 130.835 231.287C130.731 231.401 130.603 231.491 130.461 231.552C130.319 231.612 130.166 231.641 130.011 231.637ZM77.6461 227.997C77.4023 227.997 77.1657 227.914 76.9747 227.763C75.146 226.33 73.3544 224.786 71.6534 223.176C71.4515 222.975 71.3361 222.704 71.3317 222.419C71.3273 222.135 71.4343 221.86 71.6299 221.653C71.8255 221.446 72.0942 221.324 72.3786 221.312C72.6631 221.301 72.9408 221.401 73.1526 221.591C74.8001 223.155 76.5464 224.654 78.3215 226.046C78.5011 226.186 78.6325 226.378 78.6971 226.597C78.7617 226.815 78.7564 227.048 78.682 227.263C78.6075 227.478 78.4676 227.665 78.2819 227.796C78.0961 227.928 77.8738 227.998 77.6461 227.997ZM105.653 219.285C105.42 219.285 105.193 219.21 105.006 219.072C104.818 218.933 104.68 218.738 104.611 218.515C103.973 216.518 103.639 214.436 103.619 212.339C103.619 211.989 103.619 211.639 103.652 211.298C103.672 211.011 103.805 210.744 104.021 210.555C104.237 210.366 104.519 210.269 104.806 210.286C105.093 210.304 105.361 210.434 105.553 210.647C105.745 210.861 105.844 211.142 105.83 211.429C105.81 211.73 105.801 212.035 105.801 212.339C105.822 214.217 106.124 216.08 106.695 217.869C106.78 218.146 106.752 218.445 106.617 218.701C106.482 218.957 106.251 219.149 105.974 219.236C105.864 219.27 105.748 219.287 105.633 219.285H105.653ZM135.72 216.922C135.577 216.922 135.435 216.895 135.303 216.841C135.171 216.787 135.051 216.707 134.95 216.606C134.848 216.506 134.768 216.386 134.713 216.255C134.657 216.123 134.629 215.982 134.628 215.839C134.63 213.649 134.256 211.475 133.52 209.412C133.472 209.277 133.45 209.133 133.457 208.99C133.464 208.846 133.499 208.705 133.56 208.575C133.621 208.445 133.707 208.329 133.813 208.232C133.92 208.135 134.044 208.061 134.179 208.012C134.314 207.963 134.458 207.942 134.602 207.948C134.745 207.955 134.886 207.99 135.016 208.051C135.146 208.113 135.263 208.199 135.359 208.305C135.456 208.411 135.531 208.535 135.58 208.671C136.398 210.968 136.816 213.388 136.815 215.827C136.816 215.97 136.788 216.112 136.734 216.244C136.679 216.377 136.599 216.498 136.498 216.599C136.397 216.701 136.277 216.782 136.145 216.837C136.013 216.893 135.871 216.921 135.728 216.922H135.72ZM66.1137 216.741C65.9563 216.739 65.8011 216.703 65.6589 216.636C65.5166 216.568 65.3908 216.47 65.29 216.35C63.799 214.558 62.374 212.677 61.0436 210.758C60.9532 210.641 60.8876 210.506 60.8509 210.363C60.8142 210.219 60.8072 210.069 60.8302 209.923C60.8532 209.777 60.9058 209.636 60.9848 209.511C61.0639 209.386 61.1676 209.278 61.2897 209.194C61.4118 209.11 61.5498 209.051 61.6952 209.022C61.8406 208.993 61.9904 208.994 62.1354 209.025C62.2804 209.056 62.4176 209.116 62.5386 209.202C62.6597 209.287 62.762 209.397 62.8394 209.523C64.1327 211.392 65.5207 213.229 66.9581 214.962C67.1426 215.185 67.231 215.472 67.204 215.76C67.177 216.048 67.0367 216.313 66.8139 216.498C66.609 216.665 66.3495 216.752 66.0849 216.741H66.1137ZM108.149 204.059C107.937 204.06 107.73 204 107.551 203.886C107.373 203.771 107.232 203.608 107.145 203.415C107.058 203.222 107.028 203.008 107.06 202.798C107.092 202.589 107.184 202.393 107.325 202.235C109.026 200.404 111.163 199.032 113.536 198.25C113.675 198.19 113.823 198.16 113.974 198.161C114.124 198.162 114.273 198.193 114.41 198.254C114.548 198.315 114.671 198.404 114.773 198.515C114.874 198.626 114.952 198.756 115.001 198.899C115.049 199.041 115.068 199.192 115.056 199.342C115.043 199.491 115 199.637 114.929 199.769C114.857 199.902 114.759 200.018 114.641 200.111C114.523 200.203 114.386 200.271 114.241 200.308C112.212 200.978 110.387 202.151 108.936 203.717C108.83 203.827 108.704 203.914 108.563 203.973C108.423 204.032 108.272 204.061 108.12 204.059H108.149ZM57.1103 203.339C56.9114 203.339 56.7163 203.285 56.5458 203.183C56.3753 203.08 56.2358 202.934 56.1424 202.758C55.0468 200.699 54.0377 198.563 53.1316 196.417C53.0191 196.15 53.0173 195.85 53.1266 195.581C53.2359 195.313 53.4473 195.099 53.7144 194.987C53.9815 194.874 54.2823 194.872 54.5507 194.982C54.8191 195.091 55.0331 195.302 55.1457 195.569C56.0229 197.657 57.0073 199.732 58.074 201.745C58.2093 202.001 58.2376 202.3 58.1526 202.576C58.0677 202.852 57.8765 203.084 57.621 203.219C57.4628 203.3 57.2876 203.34 57.1103 203.339ZM129.262 202.705C129.022 202.704 128.788 202.625 128.598 202.478C126.875 201.181 124.886 200.28 122.775 199.839C122.633 199.81 122.499 199.753 122.38 199.672C122.26 199.591 122.158 199.487 122.08 199.366C122.001 199.245 121.947 199.11 121.921 198.968C121.894 198.826 121.897 198.68 121.927 198.539C121.958 198.398 122.016 198.265 122.098 198.147C122.181 198.028 122.286 197.927 122.408 197.85C122.529 197.772 122.665 197.72 122.807 197.695C122.95 197.67 123.095 197.674 123.236 197.706C125.663 198.215 127.948 199.253 129.929 200.745C130.111 200.883 130.245 201.076 130.312 201.295C130.379 201.514 130.376 201.748 130.302 201.965C130.228 202.182 130.088 202.37 129.901 202.503C129.714 202.635 129.491 202.706 129.262 202.705ZM51.0682 188.368C50.8304 188.368 50.5992 188.29 50.4096 188.147C50.22 188.003 50.0825 187.802 50.0179 187.573C49.3754 185.321 48.8358 183.02 48.4116 180.734C48.3846 180.594 48.3855 180.449 48.4145 180.308C48.4434 180.168 48.4997 180.034 48.5802 179.916C48.6607 179.797 48.7638 179.695 48.8837 179.616C49.0035 179.538 49.1377 179.483 49.2786 179.456C49.4195 179.429 49.5643 179.43 49.7048 179.459C49.8454 179.488 49.9788 179.544 50.0976 179.625C50.2163 179.705 50.3181 179.808 50.397 179.928C50.4759 180.048 50.5304 180.182 50.5574 180.323C50.9693 182.542 51.4924 184.774 52.1184 186.964C52.197 187.242 52.1618 187.541 52.0204 187.793C51.8791 188.046 51.6432 188.232 51.3647 188.31C51.2691 188.344 51.1693 188.363 51.0682 188.368ZM48.3704 172.463C48.0924 172.463 47.8248 172.357 47.6226 172.166C47.4204 171.976 47.2989 171.715 47.2831 171.437C47.1966 169.963 47.1513 168.469 47.1513 166.987C47.1513 166.134 47.1513 165.27 47.1966 164.413C47.194 164.265 47.2216 164.118 47.2777 163.981C47.3337 163.844 47.4171 163.72 47.5226 163.617C47.6282 163.513 47.7537 163.432 47.8917 163.378C48.0296 163.324 48.177 163.299 48.325 163.304C48.4729 163.309 48.6183 163.344 48.7523 163.407C48.8862 163.47 49.006 163.56 49.1042 163.67C49.2025 163.781 49.2772 163.91 49.3238 164.051C49.3704 164.191 49.388 164.34 49.3754 164.487C49.3507 165.311 49.3342 166.159 49.3342 166.987C49.3342 168.428 49.3795 169.869 49.4619 171.31C49.4776 171.598 49.3787 171.881 49.1866 172.097C48.9945 172.313 48.7248 172.445 48.4363 172.463H48.3704ZM49.1447 156.351C49.0899 156.356 49.0348 156.356 48.98 156.351C48.6954 156.308 48.4397 156.153 48.2684 155.922C48.0971 155.691 48.0243 155.401 48.0656 155.116C48.4198 152.815 48.8894 150.497 49.4372 148.232C49.4712 148.093 49.5324 147.962 49.6172 147.846C49.702 147.73 49.8087 147.633 49.9313 147.558C50.0538 147.484 50.1899 147.434 50.3316 147.413C50.4733 147.391 50.6179 147.397 50.7572 147.431C50.8965 147.465 51.0277 147.526 51.1433 147.611C51.2589 147.696 51.3567 147.803 51.4311 147.925C51.5055 148.048 51.555 148.184 51.5768 148.325C51.5987 148.467 51.5924 148.612 51.5583 148.751C51.0187 150.954 50.5698 153.21 50.2238 155.446C50.1827 155.702 50.0514 155.935 49.8536 156.104C49.6558 156.272 49.4045 156.364 49.1447 156.364V156.351ZM53.2263 140.743C53.0954 140.744 52.9654 140.72 52.8433 140.673C52.7089 140.623 52.5857 140.547 52.4807 140.449C52.3758 140.351 52.2912 140.234 52.2319 140.103C52.1725 139.973 52.1396 139.832 52.135 139.689C52.1304 139.545 52.1541 139.403 52.2049 139.269C53.0286 137.082 53.9512 134.908 54.9603 132.813C55.0168 132.675 55.1008 132.551 55.2071 132.447C55.3134 132.343 55.4398 132.262 55.5786 132.209C55.7173 132.156 55.8655 132.131 56.014 132.137C56.1625 132.143 56.3082 132.179 56.4422 132.244C56.5762 132.308 56.6956 132.399 56.7932 132.511C56.8907 132.623 56.9644 132.754 57.0096 132.896C57.0548 133.037 57.0706 133.186 57.056 133.334C57.0415 133.482 56.9969 133.625 56.9249 133.755C55.9447 135.793 55.0468 137.906 54.2478 140.034C54.1724 140.245 54.0338 140.427 53.851 140.556C53.6682 140.685 53.4501 140.754 53.2263 140.755V140.743ZM60.4382 126.332C60.2423 126.332 60.0501 126.279 59.8817 126.179C59.7133 126.079 59.5748 125.936 59.4809 125.764C59.387 125.592 59.341 125.398 59.3478 125.203C59.3547 125.007 59.414 124.817 59.5197 124.652C60.7842 122.676 62.1516 120.749 63.5849 118.916C63.6723 118.801 63.7819 118.704 63.9072 118.631C64.0325 118.559 64.1711 118.512 64.3148 118.493C64.4585 118.474 64.6045 118.484 64.7442 118.523C64.8839 118.561 65.0146 118.627 65.1286 118.716C65.2426 118.806 65.3377 118.917 65.4083 119.043C65.4789 119.17 65.5236 119.309 65.5398 119.453C65.5559 119.597 65.5433 119.743 65.5025 119.882C65.4617 120.021 65.3937 120.15 65.3024 120.263C63.9144 122.037 62.584 123.911 61.3566 125.825C61.2579 125.979 61.1221 126.106 60.9616 126.194C60.8011 126.282 60.6211 126.328 60.4382 126.328V126.332Z" fill="#FBBC05"/>
<path d="M287.473 178.894C300.107 178.894 310.348 168.656 310.348 156.026C310.348 143.397 300.107 133.158 287.473 133.158C274.839 133.158 264.598 143.397 264.598 156.026C264.598 168.656 274.839 178.894 287.473 178.894Z" fill="#739CD2"/>
<path d="M296.275 158.966V153.782C296.273 151.449 295.346 149.212 293.695 147.563C292.045 145.914 289.807 144.988 287.473 144.988C285.143 144.993 282.911 145.922 281.265 147.571C279.62 149.219 278.696 151.453 278.696 153.782V158.949C278.696 161.762 277.926 162.836 276.468 165.237H298.519C297.045 162.84 296.275 161.778 296.275 158.966Z" fill="white"/>
<path d="M287.473 169.737C286.593 169.737 285.748 169.387 285.126 168.765C284.503 168.142 284.153 167.298 284.153 166.418H290.797C290.797 166.854 290.711 167.286 290.544 167.689C290.377 168.092 290.132 168.458 289.823 168.766C289.514 169.074 289.148 169.319 288.745 169.485C288.341 169.652 287.909 169.737 287.473 169.737Z" fill="white"/>
<path d="M287.473 142.311C286.94 142.312 286.42 142.47 285.978 142.767C285.535 143.063 285.19 143.484 284.987 143.976C284.784 144.468 284.731 145.01 284.836 145.532C284.94 146.054 285.197 146.533 285.574 146.909C285.951 147.285 286.431 147.542 286.953 147.645C287.475 147.749 288.017 147.695 288.509 147.491C289.001 147.287 289.421 146.942 289.717 146.499C290.013 146.057 290.171 145.536 290.171 145.004C290.171 144.65 290.101 144.299 289.965 143.972C289.83 143.645 289.631 143.348 289.38 143.098C289.13 142.848 288.832 142.65 288.505 142.515C288.178 142.38 287.827 142.31 287.473 142.311ZM287.473 146.622C287.153 146.622 286.84 146.527 286.574 146.349C286.307 146.171 286.1 145.919 285.977 145.623C285.855 145.327 285.823 145.002 285.885 144.688C285.948 144.374 286.102 144.086 286.328 143.86C286.555 143.633 286.843 143.479 287.157 143.417C287.471 143.354 287.797 143.386 288.092 143.509C288.388 143.631 288.641 143.839 288.819 144.105C288.997 144.371 289.092 144.684 289.092 145.004C289.092 145.433 288.921 145.844 288.617 146.148C288.314 146.451 287.902 146.622 287.473 146.622Z" fill="white"/>
<path d="M287.473 183.987C281.002 183.989 274.73 181.747 269.726 177.645C264.723 173.542 261.297 167.832 260.034 161.487C258.77 155.142 259.746 148.556 262.795 142.85C265.845 137.144 270.779 132.672 276.758 130.195C282.736 127.719 289.389 127.391 295.582 129.268C301.774 131.146 307.125 135.112 310.72 140.49C314.316 145.869 315.935 152.328 315.3 158.766C314.666 165.204 311.819 171.223 307.243 175.798C304.652 178.401 301.572 180.466 298.178 181.871C294.785 183.277 291.146 183.996 287.473 183.987ZM287.473 130.243C281.506 130.243 275.724 132.312 271.111 136.096C266.499 139.88 263.342 145.146 262.178 150.997C261.014 156.847 261.915 162.92 264.728 168.181C267.541 173.441 272.092 177.564 277.604 179.847C283.117 182.129 289.251 182.43 294.961 180.699C300.671 178.967 305.604 175.31 308.919 170.35C312.234 165.39 313.726 159.435 313.141 153.498C312.556 147.562 309.93 142.012 305.71 137.795C303.321 135.392 300.479 133.488 297.349 132.192C294.218 130.895 290.861 130.233 287.473 130.243Z" fill="#739CD2"/>
<path d="M266.875 87.4392C266.732 87.4401 266.591 87.4124 266.458 87.358C266.326 87.3036 266.206 87.2234 266.105 87.1222C266.003 87.0212 265.922 86.9009 265.867 86.7684C265.812 86.6359 265.783 86.4938 265.783 86.3502C265.783 86.2067 265.812 86.0645 265.867 85.932C265.922 85.7995 266.003 85.6793 266.105 85.5782L273.255 78.4346C273.462 78.2424 273.735 78.1378 274.018 78.1427C274.3 78.1477 274.569 78.2618 274.769 78.4611C274.969 78.6604 275.084 78.9295 275.09 79.2117C275.095 79.4939 274.991 79.7673 274.8 79.9745L267.65 87.1222C267.548 87.2236 267.427 87.3038 267.294 87.3582C267.161 87.4126 267.019 87.4401 266.875 87.4392Z" fill="#009CDE"/>
<path d="M266.875 87.7151C266.695 87.7132 266.518 87.6759 266.352 87.6052C266.187 87.5346 266.037 87.432 265.912 87.3034C265.656 87.0471 265.512 86.6999 265.512 86.3379C265.512 85.9759 265.656 85.6286 265.912 85.3724L273.066 78.2246C273.321 77.9692 273.668 77.8257 274.029 77.8257C274.391 77.8257 274.738 77.9692 274.993 78.2246C275.249 78.4802 275.392 78.8268 275.392 79.1881C275.392 79.5494 275.249 79.896 274.993 80.1516L267.843 87.3034C267.717 87.4323 267.566 87.5351 267.4 87.6057C267.234 87.6764 267.056 87.7136 266.875 87.7151ZM274.029 78.3811C273.811 78.382 273.603 78.4694 273.449 78.624L266.299 85.7718C266.146 85.9261 266.06 86.1348 266.06 86.3523C266.06 86.5707 266.147 86.7801 266.301 86.9346C266.456 87.089 266.665 87.1758 266.884 87.1758C267.101 87.1759 267.31 87.0901 267.464 86.937L274.614 79.7892C274.769 79.6355 274.856 79.4267 274.857 79.2087C274.857 78.9903 274.771 78.7808 274.616 78.6264C274.462 78.472 274.252 78.3852 274.034 78.3852L274.029 78.3811Z" fill="#739CD2"/>
<path d="M282.168 97.6749C282.115 97.6789 282.061 97.6789 282.007 97.6749L270.104 95.8838C269.961 95.8647 269.822 95.8172 269.697 95.744C269.572 95.6708 269.463 95.5735 269.376 95.4577C269.289 95.3419 269.226 95.2099 269.19 95.0694C269.155 94.929 269.148 94.7829 269.169 94.6396C269.191 94.4964 269.241 94.3589 269.316 94.2351C269.391 94.1114 269.491 94.0038 269.608 93.9188C269.725 93.8338 269.858 93.773 269.999 93.74C270.141 93.7069 270.287 93.7023 270.43 93.7263L282.333 95.5133C282.601 95.5599 282.842 95.7048 283.009 95.9195C283.177 96.1343 283.258 96.4036 283.237 96.675C283.217 96.9464 283.096 97.2004 282.898 97.3875C282.701 97.5746 282.44 97.6815 282.168 97.6872V97.6749Z" fill="#739CD2"/>
<path d="M282.168 97.9468C282.101 97.9529 282.033 97.9529 281.966 97.9468L270.047 96.1392C269.87 96.1122 269.7 96.0506 269.546 95.9578C269.393 95.8651 269.259 95.7431 269.153 95.5987C268.939 95.3072 268.849 94.9426 268.904 94.585C268.958 94.2273 269.153 93.906 269.445 93.6918C269.736 93.4775 270.101 93.3878 270.459 93.4424L282.362 95.2293C282.706 95.2757 283.02 95.4518 283.239 95.7216C283.457 95.9914 283.565 96.3346 283.539 96.681C283.513 97.0274 283.356 97.3509 283.1 97.5854C282.844 97.8199 282.507 97.9477 282.16 97.9426L282.168 97.9468ZM270.265 93.9776C270.067 93.9909 269.88 94.0753 269.74 94.2152C269.599 94.3551 269.513 94.5411 269.499 94.739C269.484 94.9369 269.542 95.1333 269.661 95.2923C269.779 95.4512 269.952 95.5619 270.146 95.604L282.049 97.3909C282.088 97.3949 282.128 97.3949 282.168 97.3909C282.366 97.3784 282.553 97.2946 282.695 97.155C282.836 97.0154 282.922 96.8295 282.937 96.6315C282.952 96.4334 282.895 96.2366 282.777 96.0773C282.658 95.918 282.486 95.8069 282.292 95.7646L270.389 93.9776C270.348 93.9735 270.306 93.9735 270.265 93.9776Z" fill="#739CD2"/>
<path d="M258.428 84.0549C258.167 84.0539 257.914 83.9596 257.716 83.789C257.518 83.6183 257.388 83.3826 257.349 83.1243L255.561 71.2252C255.524 70.9416 255.599 70.6544 255.771 70.4257C255.943 70.1969 256.197 70.0448 256.48 70.0022C256.764 69.9595 257.052 70.0297 257.284 70.1976C257.515 70.3656 257.672 70.6178 257.72 70.8999L259.507 82.7991C259.548 83.0839 259.475 83.3735 259.304 83.6049C259.133 83.8362 258.877 83.9906 258.593 84.0343L258.428 84.0549Z" fill="#739CD2"/>
<path d="M258.428 84.3266C258.102 84.3246 257.787 84.2067 257.541 83.9939C257.294 83.7811 257.131 83.4875 257.081 83.1655L255.294 71.2664C255.267 71.0893 255.275 70.9087 255.318 70.7348C255.361 70.5609 255.438 70.3972 255.544 70.253C255.65 70.1088 255.784 69.987 255.938 69.8946C256.091 69.8021 256.261 69.7408 256.439 69.7142C256.616 69.6873 256.796 69.6956 256.97 69.7386C257.144 69.7815 257.308 69.8584 257.452 69.9647C257.596 70.071 257.718 70.2047 257.811 70.3581C257.903 70.5115 257.965 70.6817 257.991 70.8588L259.779 82.7579C259.806 82.935 259.797 83.1156 259.754 83.2894C259.711 83.4631 259.634 83.6267 259.528 83.7708C259.422 83.9156 259.289 84.038 259.135 84.1306C258.982 84.2232 258.811 84.2843 258.634 84.3102C258.566 84.3218 258.497 84.3273 258.428 84.3266ZM256.644 70.2453H256.521C256.307 70.2788 256.115 70.3953 255.986 70.5695C255.857 70.7436 255.802 70.9615 255.833 71.1758L257.621 83.075C257.651 83.2706 257.751 83.4486 257.903 83.5764C258.054 83.7042 258.246 83.7732 258.444 83.7708C258.485 83.7749 258.527 83.7749 258.568 83.7708C258.782 83.7381 258.974 83.6228 259.103 83.4496C259.233 83.2746 259.287 83.0555 259.256 82.8403L257.468 70.9411C257.435 70.7268 257.318 70.5345 257.143 70.4059C257 70.2973 256.824 70.2407 256.644 70.2453Z" fill="#739CD2"/>
</svg>
