<?xml version="1.0" encoding="utf-8"?>
<!-- Generator: Adobe Illustrator 26.0.3, SVG Export Plug-In . SVG Version: 6.00 Build 0)  -->
<svg version="1.1" id="Capa_1" xmlns="http://www.w3.org/2000/svg" xmlns:xlink="http://www.w3.org/1999/xlink" x="0px" y="0px"
	 viewBox="0 0 512 512" style="enable-background:new 0 0 512 512;" xml:space="preserve">
<style type="text/css">
	.st0{fill:#F4C94B;}
	.st1{fill:#EAB14D;}
	.st2{fill:#F2F2F7;}
	.st3{fill:#8FA1B0;}
	.st4{fill:#34A853;}
	.st5{fill:#F6F9F9;}
	.st6{fill:#4279D7;}
	.st7{fill:#3570D4;}
	.st8{fill:#C9E2E7;}
	.st9{fill:#1B3692;}
</style>
<g>
	<g>
		<g>
			<g>
				<path class="st0" d="M337.01,493.09V61.04c0-10.45-8.47-18.91-18.91-18.91H53.95c-10.45,0-18.91,8.47-18.91,18.91v432.05
					c0,10.45,8.47,18.91,18.91,18.91H318.1C328.54,512,337.01,503.53,337.01,493.09L337.01,493.09z"/>
				<path class="st1" d="M380.11,42.12h-63.3c10.45,0,18.91,8.47,18.91,18.91v432.05c0,10.45-8.47,18.91-18.91,18.91h63.3
					c10.45,0,18.91-8.47,18.91-18.91V61.04C399.02,50.59,390.55,42.12,380.11,42.12z"/>
				<path class="st2" d="M65.96,474.33V79.8c0-3.73,3.03-6.76,6.76-6.76h288.63c3.73,0,6.76,3.03,6.76,6.76v394.53
					c0,3.73-3.03,6.76-6.76,6.76H72.71C68.98,481.09,65.95,478.06,65.96,474.33z"/>
				<path class="st2" d="M361.35,73.04h-63.3c3.73,0,6.76,3.03,6.76,6.76v394.53c0,3.73-3.03,6.76-6.76,6.76h63.3
					c3.73,0,6.76-3.03,6.76-6.76V79.8C368.11,76.07,365.08,73.04,361.35,73.04z"/>
				<path class="st3" d="M257.21,23.54v-9.96c0-7.5-6.08-13.58-13.58-13.58h-53.2c-7.5,0-13.58,6.08-13.58,13.58v9.96
					c0,3.07-2.49,5.55-5.55,5.55h-22.14c-7.37,0-13.34,5.97-13.34,13.34v30.61h162.42V42.43c0-7.36-5.97-13.34-13.34-13.34h-22.14
					C259.7,29.09,257.21,26.61,257.21,23.54L257.21,23.54z"/>
			</g>
			<g>
				<g>
					<path class="st4" d="M105.28,182.79v-59.54c0-6.6,5.35-11.94,11.94-11.94h59.54c6.6,0,11.94,5.35,11.94,11.94v59.54
						c0,6.6-5.35,11.94-11.94,11.94h-59.54C110.62,194.74,105.28,189.39,105.28,182.79z"/>
					<path class="st4" d="M105.28,306.83v-59.54c0-6.6,5.35-11.94,11.94-11.94h59.54c6.6,0,11.94,5.35,11.94,11.94v59.54
						c0,6.6-5.35,11.94-11.94,11.94h-59.54C110.62,318.78,105.28,313.43,105.28,306.83z"/>
					<path class="st4" d="M105.28,430.87v-59.54c0-6.6,5.35-11.94,11.94-11.94h59.54c6.6,0,11.94,5.35,11.94,11.94v59.54
						c0,6.6-5.35,11.94-11.94,11.94h-59.54C110.62,442.82,105.28,437.47,105.28,430.87z"/>
				</g>
				<g>
					<path class="st5" d="M141.95,174.34c-0.01,0-0.02,0-0.03,0c-3.41-0.01-6.65-1.66-8.65-4.42l-9.02-12.39
						c-2.51-3.45-1.75-8.28,1.7-10.79c3.45-2.51,8.28-1.75,10.79,1.7l5.23,7.18l15.29-20.78c2.53-3.44,7.37-4.17,10.8-1.64
						c3.44,2.53,4.17,7.37,1.64,10.8l-19.11,25.96C148.58,172.71,145.35,174.34,141.95,174.34z"/>
				</g>
				<g>
					<path class="st5" d="M141.95,301.08c-0.01,0-0.02,0-0.03,0c-3.41-0.01-6.65-1.66-8.65-4.42l-9.02-12.39
						c-2.51-3.45-1.75-8.28,1.7-10.8c3.45-2.51,8.28-1.75,10.79,1.7l5.23,7.18l15.29-20.78c2.53-3.44,7.37-4.17,10.8-1.64
						c3.44,2.53,4.17,7.37,1.64,10.8l-19.11,25.96C148.58,299.45,145.35,301.08,141.95,301.08L141.95,301.08z"/>
				</g>
				<g>
					<path class="st5" d="M141.95,422.42c-0.01,0-0.02,0-0.03,0c-3.41-0.01-6.65-1.66-8.65-4.42l-9.02-12.39
						c-2.51-3.45-1.75-8.28,1.7-10.79c3.45-2.51,8.28-1.75,10.79,1.7l5.23,7.18l15.3-20.78c2.53-3.44,7.37-4.17,10.8-1.64
						c3.44,2.53,4.17,7.37,1.64,10.8l-19.11,25.96C148.58,420.79,145.35,422.42,141.95,422.42L141.95,422.42z"/>
				</g>
			</g>
			<g>
				<g>
					<g>
						<g>
							<path class="st6" d="M322.69,144.6h-95.51c-4.27,0-7.73-3.46-7.73-7.73s3.46-7.73,7.73-7.73h95.51
								c4.27,0,7.73,3.46,7.73,7.73S326.96,144.6,322.69,144.6z"/>
						</g>
					</g>
					<g>
						<g>
							<path class="st6" d="M274.93,176.89h-47.76c-4.27,0-7.73-3.46-7.73-7.73s3.46-7.73,7.73-7.73h47.76
								c4.27,0,7.73,3.46,7.73,7.73S279.2,176.89,274.93,176.89z"/>
						</g>
					</g>
				</g>
			</g>
			<g>
				<g>
					<g>
						<g>
							<path class="st6" d="M291.26,268.64h-64.09c-4.27,0-7.73-3.46-7.73-7.73s3.46-7.73,7.73-7.73h64.09
								c4.27,0,7.73,3.46,7.73,7.73S295.53,268.64,291.26,268.64z"/>
						</g>
					</g>
				</g>
				<g>
					<g>
						<g>
							<path class="st6" d="M274.93,300.93h-47.76c-4.27,0-7.73-3.46-7.73-7.73s3.46-7.73,7.73-7.73h47.76
								c4.27,0,7.73,3.46,7.73,7.73S279.2,300.93,274.93,300.93z"/>
						</g>
					</g>
				</g>
			</g>
		</g>
		<g>
			<g>
				<path class="st7" d="M446.91,201.72l-7.59-9.99l-28.39-17.98l-10.91-1.72L254.68,401.7c-3.51,5.54-6.08,11.61-7.62,17.99
					c17.68,0.22,33.74,10.38,41.49,26.28c5.1-4.11,9.5-9.04,13-14.58L446.91,201.72z"/>
				<path class="st3" d="M467.43,130.99l-12.27-7.77c-9.56-6.06-22.22-3.21-28.27,6.35l-11.25,17.77l3.59,7.23l34.13,21.61
					l9.17,0.84l11.25-17.78C479.83,149.7,476.99,137.04,467.43,130.99z"/>
			</g>
			<path class="st8" d="M400.04,171.96l15.62-24.68l46.89,29.69l-15.62,24.68L400.04,171.96z"/>
			<path class="st3" d="M288.56,445.97l-41.38,33.35c-5.84,4.7-14.32-0.67-12.56-7.95l12.45-51.67
				C264.75,419.91,280.8,430.07,288.56,445.97L288.56,445.97z"/>
			<path class="st9" d="M277.71,431.65l152.36-240.6l-13.05-8.27l-152.36,240.6C269.43,425.4,273.84,428.19,277.71,431.65z"/>
		</g>
	</g>
</g>
</svg>
