<svg width="97" height="97" viewBox="0 0 97 97" fill="none" xmlns="http://www.w3.org/2000/svg">
<path d="M91.6111 6.47347V63.2292C91.6111 63.5101 91.4996 63.7794 91.301 63.978C91.1024 64.1766 90.8331 64.2882 90.5522 64.2882H6.44783C6.16699 64.2882 5.89765 64.1766 5.69907 63.978C5.50048 63.7794 5.38892 63.5101 5.38892 63.2292V6.47347C5.38892 5.88877 5.86314 5.41455 6.44783 5.41455H90.5522C91.1369 5.41455 91.6111 5.88877 91.6111 6.47347Z" fill="#8FA1B0"/>
<path d="M8.98193 9.00757H88.0194V60.6964H8.98193V9.00757Z" fill="white"/>
<path d="M37.1995 91.5843V74.0798H36.472C35.0762 74.0798 33.7991 74.5365 32.7604 75.3031C32.7604 75.3031 32.7536 75.3031 32.7536 75.3112C31.9766 75.8902 31.3458 76.6428 30.9114 77.509C30.477 78.3752 30.2511 79.331 30.2518 80.3V91.587H37.1995V91.5843Z" fill="#F4C94B"/>
<path d="M65.0749 76.2245V91.5815H31.9265V76.2231C31.9265 76.1598 31.9265 76.0952 31.9359 76.0494C32.1834 75.776 32.4568 75.5274 32.7524 75.307C32.7524 75.2976 32.7618 75.2976 32.7618 75.2976C33.8344 74.5051 35.133 74.0777 36.4667 74.0784H60.5253C61.8662 74.0784 63.1715 74.5091 64.2491 75.307C64.5428 75.5266 64.8176 75.7745 65.0655 76.0494C65.0737 76.1074 65.0769 76.166 65.0749 76.2245Z" fill="#F1D281"/>
<path d="M37.1995 91.5843V74.0798H36.472C35.0763 74.0798 33.7991 74.5365 32.7604 75.3031C32.7604 75.3031 32.7536 75.3031 32.7536 75.3112C32.4565 75.5292 32.1813 75.7755 31.9318 76.0468C30.8486 77.1975 30.2474 78.7196 30.2519 80.3V91.587H37.1995V91.5843Z" fill="#F1D281"/>
<path d="M37.8339 91.5841V85.5957C37.8336 85.5117 37.8001 85.4312 37.7409 85.3717C37.6816 85.3122 37.6013 85.2784 37.5173 85.2777C37.4754 85.2772 37.4338 85.285 37.395 85.3008C37.3562 85.3166 37.3209 85.34 37.2913 85.3697C37.2616 85.3993 37.2382 85.4345 37.2225 85.4734C37.2067 85.5122 37.1988 85.5538 37.1994 85.5957V91.5854L37.8339 91.5841Z" fill="#DDC47C"/>
<path d="M59.8005 91.5843V74.0798H60.528C61.8678 74.0787 63.1721 74.5106 64.2464 75.3112C65.0234 75.8902 65.6542 76.6428 66.0886 77.509C66.523 78.3752 66.7488 79.331 66.7482 80.3V91.587H59.8005V91.5843Z" fill="#F4C94B"/>
<path d="M59.8005 91.5843V74.0798H60.528C61.8678 74.0787 63.1721 74.5106 64.2464 75.3112C64.5401 75.5268 64.8189 75.776 65.0682 76.0468C66.1514 77.1975 66.7526 78.7196 66.7482 80.3V91.587H59.8005V91.5843Z" fill="#F1D281"/>
<path d="M59.1647 91.5841V85.5957C59.1647 85.4178 59.3129 85.2777 59.4826 85.2777C59.6605 85.2777 59.8006 85.4178 59.8006 85.5957V91.5854L59.1647 91.5841Z" fill="#DDC47C"/>
<path d="M56.2358 60.1535V62.2929C56.2368 63.3091 56.0375 64.3155 55.6491 65.2545C55.2607 66.1935 54.6909 67.0467 53.9724 67.7653C53.2539 68.4838 52.4007 69.0536 51.4616 69.442C50.5226 69.8303 49.5162 70.0297 48.5 70.0286C46.4741 70.0297 44.5286 69.2357 43.0819 67.8173C41.6353 66.3989 40.8031 64.4694 40.7643 62.4438V60.1535C40.7643 55.8855 44.2213 52.407 48.5 52.407C50.634 52.407 52.5659 53.2827 53.9738 54.6797C54.6935 55.3977 55.2639 56.251 55.6524 57.1905C56.0408 58.1299 56.2382 59.1369 56.2358 60.1535Z" fill="#FFCCCB"/>
<path d="M53.7853 74.0783H43.215L44.6565 67.2506H52.3424L53.7853 74.0783Z" fill="#FDC7B4"/>
<path d="M54.8332 74.0783H42.1653C42.1653 73.1663 42.9049 72.428 43.8156 72.428H53.1829C54.0949 72.428 54.8332 73.1663 54.8332 74.0783Z" fill="#D7E9F9"/>
<path d="M48.5607 71.2034C38.982 71.2034 37.8045 54.7929 39.4885 52.6374C42.4645 48.849 54.6555 48.849 57.6316 52.6374C59.3156 54.7929 57.0765 71.2034 48.5607 71.2034Z" fill="#34324C"/>
<path d="M5.63953 91.5842H7.69539L7.63207 76.3296H6.77793C6.36972 76.3296 5.99654 76.3606 5.63953 76.4104V91.5842ZM34.268 91.5842V83.6235C34.268 81.2254 33.1134 79.1089 31.3324 77.7738C31.3324 77.7644 31.3243 77.7644 31.3243 77.7644C30.0659 76.8306 28.5399 76.3274 26.9728 76.3296H26.1187V91.5842H34.268Z" fill="#E28086"/>
<path d="M14.5823 69.7982V76.7417L14.783 76.7916L22.4218 78.6184L22.3881 75.6788L22.4218 75.1507L22.4891 74.0702L22.5471 73.1231L22.6818 71.0134L22.8744 69.7982H14.5823Z" fill="#FDC7B4"/>
<path d="M18.0918 71.6829C18.0918 71.6829 20.2783 73.7846 22.4891 74.0702L22.5471 73.1231L22.6818 71.0134L22.8744 69.7982H19.1965L18.0918 71.6829Z" fill="#EFB5A3"/>
<path d="M32.2943 78.64C32.004 78.3197 31.6822 78.0295 31.3337 77.7737C31.3337 77.7643 31.3243 77.7643 31.3243 77.7643C30.065 76.8324 28.5394 76.3303 26.9728 76.3322H6.84529C6.34817 76.3322 5.9696 76.3887 5.63953 76.483V91.5814H32.3037V78.8474C32.3037 78.772 32.3037 78.6965 32.2943 78.64Z" fill="#34A853"/>
<path d="M31.4375 82.7935C29.9459 81.4368 28.4231 80.1149 26.8704 78.8286C25.9004 81.3156 23.9779 83.4334 21.7375 84.9221C18.7332 86.9093 15.19 87.9075 11.6778 88.6984C9.67697 89.1406 7.66331 89.5225 5.63953 89.8435V91.5814H32.3037V83.5937C32.0208 83.3216 31.7298 83.0575 31.4375 82.7935Z" fill="#23893C"/>
<path d="M26.7209 61.7472V66.6457C26.6881 68.3754 25.9775 70.023 24.7422 71.2342C23.5069 72.4453 21.8455 73.1231 20.1155 73.1218C19.2474 73.123 18.3875 72.9531 17.5851 72.6218C16.7827 72.2905 16.0535 71.8042 15.4391 71.1909C14.8248 70.5775 14.3373 69.8491 14.0047 69.0472C13.6721 68.2454 13.5008 67.3858 13.5006 66.5177V61.7472C13.5009 59.9952 14.1962 58.3149 15.4339 57.075C16.6762 55.835 18.3602 55.1391 20.1155 55.1404C21.8672 55.1415 23.5469 55.8379 24.7855 57.0767C26.0241 58.3155 26.7202 59.9954 26.7209 61.7472Z" fill="#FDC7B4"/>
<path d="M13.964 70.6847C11.6535 68.3918 8.42017 62.9746 8.42017 60.2168C8.42017 56.1401 13.7269 54.5679 16.839 54.5679C19.951 54.5679 22.8745 59.9097 22.8745 63.9877C22.8745 65.2635 22.7465 67.0001 22.4138 68.5036C21.9557 70.5689 19.8271 72.1061 17.4385 71.9633C16.0374 71.8797 14.6996 71.454 13.9626 70.6834L13.964 70.6847Z" fill="#34324C"/>
<path d="M21.1205 61.9061C25.5839 61.9061 29.383 58.7914 29.383 55.7978C29.383 52.7935 25.755 50.3685 21.2916 50.3685C16.8188 50.3685 10.7617 53.6342 10.7617 56.6372C10.7617 59.6307 16.6477 61.9061 21.1219 61.9061H21.1205Z" fill="#34324C"/>
<path d="M23.2759 66.0531C24.3682 66.0531 25.2537 65.0005 25.2537 63.7022C25.2537 62.4038 24.3682 61.3513 23.2759 61.3513C22.1837 61.3513 21.2982 62.4038 21.2982 63.7022C21.2982 65.0005 22.1837 66.0531 23.2759 66.0531Z" fill="#FDC7B4"/>
<path d="M23.7258 60.6074L24.871 65.5922C25.5096 65.5922 26.0148 65.1395 26.0148 64.5858V60.6074C26.0148 60.0551 25.5096 59.6024 24.8696 59.6024C24.231 59.6024 23.7258 60.0551 23.7258 60.6074Z" fill="#34324C"/>
<path d="M34.2665 91.5842V83.6235C34.2713 81.7701 33.566 79.9854 32.2955 78.636C32.0031 78.3181 31.6805 78.0294 31.3323 77.7738C31.3323 77.7644 31.3242 77.7644 31.3242 77.7644C30.0657 76.8306 28.5397 76.3274 26.9727 76.3296H26.1185V91.5842H34.2665Z" fill="#34A853"/>
<path d="M13.2916 76.3296H23.6006C23.6006 75.9734 23.4591 75.6318 23.2072 75.3799C22.9553 75.128 22.6136 74.9865 22.2574 74.9865H14.6348C14.2786 74.9865 13.9369 75.128 13.685 75.3799C13.4331 75.6318 13.2916 75.9734 13.2916 76.3296Z" fill="#4E3D7C"/>
<path d="M25.4342 91.5842V87.6179C25.4342 87.4091 25.6066 87.2461 25.806 87.2461C26.0162 87.2461 26.1792 87.4078 26.1792 87.6179V91.5855L25.4342 91.5842Z" fill="#247638"/>
<path d="M91.0452 84.5126H91.5517V91.5841H91.0452V84.5126Z" fill="#FDC7B4"/>
<path d="M91.5518 91.5815V74.2509H71.5321C69.8602 74.2509 68.3702 75.2909 67.7693 76.8483C67.2911 78.1282 66.7279 79.6263 66.3844 80.7054C65.9735 81.957 65.8778 83.055 65.9735 84.0007C66.022 84.4291 66.0974 84.8225 66.2119 85.1836C66.833 87.3324 68.3607 88.4034 68.3607 88.4034V91.5829L91.5518 91.5815Z" fill="#1A87EE"/>
<path d="M91.5517 91.5815V89.7452C88.7697 89.7196 85.9688 89.2306 83.3148 88.402C78.1388 86.7692 73.4504 83.9427 69.0005 80.8387C67.559 81.8519 66.585 83.447 66.2118 85.1835C66.8329 87.3324 68.3606 88.4034 68.3606 88.4034V91.5828L91.5517 91.5815Z" fill="#166DBE"/>
<path d="M76.9601 65.3214H84.0074V74.2494H76.9601V65.3214Z" fill="#FDC7B4"/>
<path d="M80.9519 68.7151C80.9519 68.7151 78.9634 70.6281 76.9506 70.8868L76.8981 70.0246L76.7768 68.1061L76.6017 67.0014H79.9455L80.9519 68.7151Z" fill="#FFAD80"/>
<path d="M84.1474 59.8975V64.3864C84.1476 65.2038 83.9867 66.0133 83.674 66.7685C83.3613 67.5237 82.9028 68.21 82.3248 68.788C81.7468 69.366 81.0606 69.8244 80.3054 70.1372C79.5501 70.4499 78.7407 70.6108 77.9233 70.6106C76.4755 70.612 75.0727 70.1081 73.9569 69.1858C72.841 68.2635 72.082 66.9806 71.8109 65.5585C71.739 65.2328 71.702 64.9004 71.7004 64.5669V59.8961C71.7001 58.2445 72.3555 56.6603 73.5226 55.4917C74.6897 54.3231 76.273 53.6657 77.9246 53.6639C79.6477 53.6639 81.201 54.3752 82.3233 55.488C82.9033 56.066 83.3631 56.7531 83.6762 57.5096C83.9893 58.2662 84.1494 59.0787 84.1474 59.8975Z" fill="#FDC7B4"/>
<path d="M83.1115 78.0622H79.3056C78.4004 78.0618 77.5324 77.702 76.8925 77.0618C76.2526 76.4216 75.8931 75.5535 75.8931 74.6483V58.7659C75.8931 57.0812 76.5623 55.4655 77.7536 54.2743C78.9448 53.083 80.5605 52.4138 82.2452 52.4138C83.9299 52.4138 85.5456 53.083 86.7369 54.2743C87.9281 55.4655 88.5974 57.0812 88.5974 58.7659V72.579C88.5974 73.2993 88.4555 74.0126 88.1798 74.6781C87.904 75.3436 87.4999 75.9483 86.9905 76.4576C86.4811 76.9669 85.8763 77.3709 85.2107 77.6464C84.5452 77.922 83.8318 78.0624 83.1115 78.0622Z" fill="#062557"/>
<path d="M78.3424 60.0793C78.8365 60.0793 79.237 59.6788 79.237 59.1847C79.237 58.6907 78.8365 58.2902 78.3424 58.2902C77.8484 58.2902 77.4479 58.6907 77.4479 59.1847C77.4479 59.6788 77.8484 60.0793 78.3424 60.0793Z" fill="#062557"/>
<path d="M65.2676 83.3917H73.5261V91.5855H65.2676V83.3917Z" fill="#FDC7B4"/>
<path d="M91.5518 74.4367C90.6918 74.6851 89.9341 75.2029 89.3902 75.9139C88.8462 76.6249 88.5447 77.4917 88.53 78.3867L88.429 85.8504C88.4263 85.9891 89.8678 86.0875 91.5518 86.1333V74.4367ZM73.6459 78.4999L73.5449 85.9635C73.5395 86.2963 65.1638 86.1831 65.1678 85.8517L65.2689 78.3881C65.3228 75.1804 68.7771 74.2198 71.0916 74.2521C72.2488 74.2656 71.7153 74.7466 72.4617 75.5131C73.2351 76.3134 73.6608 77.3871 73.6459 78.4999Z" fill="#1A87EE"/>
<path d="M88.5487 59.073H73.2443C70.7358 59.073 68.5088 57.0198 68.6031 54.514C68.6404 53.4098 69.0982 52.3615 69.883 51.5838C70.7095 50.763 71.8262 50.3012 72.991 50.2985H79.812C87.2109 50.5666 88.9192 54.227 88.5959 59.0245C88.5959 59.0514 88.5757 59.073 88.5487 59.073Z" fill="#062557"/>
<path d="M88.5973 59.0218V73.5529C88.5973 76.0386 86.5751 78.0607 84.0787 78.0607H77.2954C76.5515 78.0604 75.8381 77.7648 75.312 77.2389C74.7858 76.713 74.4899 75.9997 74.4892 75.2558V59.0716H73.2443C70.7385 59.0716 68.5048 57.0198 68.6018 54.5153C68.6438 53.4104 69.1036 52.3627 69.8884 51.5838C70.296 51.1758 70.7801 50.8521 71.313 50.6313C71.8458 50.4106 72.417 50.297 72.9937 50.2972H79.8134C87.2137 50.568 88.9166 54.223 88.5973 59.0218Z" fill="#34324C"/>
<path d="M76.219 60.7948C76.219 61.7567 75.4457 62.5166 74.4972 62.5166H74.4838V59.0865L74.4972 59.0731C74.9537 59.0738 75.3912 59.2554 75.7139 59.5781C76.0367 59.9009 76.2183 60.3384 76.219 60.7948Z" fill="#FDC7B4"/>
<path d="M73.7631 86.1642C73.6995 86.1642 73.6384 86.1392 73.593 86.0946C73.5477 86.05 73.5217 85.9894 73.5206 85.9257L73.4236 79.8228C73.4229 79.7587 73.4476 79.697 73.4922 79.651C73.5369 79.6051 73.598 79.5787 73.6621 79.5776H73.6648C73.7284 79.5776 73.7894 79.6026 73.8348 79.6472C73.8802 79.6918 73.9062 79.7525 73.9073 79.8161L74.0043 85.9163C74.0053 85.9804 73.981 86.0423 73.9366 86.0885C73.8921 86.1347 73.8312 86.1614 73.7671 86.1629L73.7631 86.1642Z" fill="#166DBE"/>
<path fill-rule="evenodd" clip-rule="evenodd" d="M32.099 31.6476L36.0073 17.0154C40.4275 18.178 44.0569 21.3184 45.9188 25.4355L32.099 31.6476Z" fill="#F4C94B"/>
<path fill-rule="evenodd" clip-rule="evenodd" d="M29.6336 33.2305L41.0096 43.2094C39.5927 44.8334 37.8442 46.1348 35.8818 47.0258C33.9194 47.9168 31.7888 48.3768 29.6336 48.3746C21.2809 48.3746 14.4882 41.5819 14.4882 33.2305C14.4882 24.8548 21.2822 18.085 29.6336 18.085C30.9822 18.085 32.2863 18.2709 33.5419 18.597L29.6336 33.2305Z" fill="#166DBE"/>
<path fill-rule="evenodd" clip-rule="evenodd" d="M47.7322 32.9045C47.7322 36.7427 46.3378 40.2334 43.9869 42.8847L32.611 32.9045L46.4065 26.7153C47.2687 28.6014 47.7322 30.6937 47.7322 32.9045Z" fill="#E28086"/>
<path fill-rule="evenodd" clip-rule="evenodd" d="M81.4935 18.2118V26.1065C81.4935 26.6103 81.0893 27.0145 80.5868 27.0145H53.8485C53.7292 27.0149 53.611 26.9916 53.5008 26.9461C53.3905 26.9006 53.2903 26.8337 53.2061 26.7493C53.1218 26.6649 53.055 26.5646 53.0097 26.4543C52.9643 26.344 52.9412 26.2258 52.9418 26.1065V18.2118C52.9418 17.7093 53.3459 17.2957 53.8485 17.2957H80.5868C81.0893 17.2957 81.4935 17.7093 81.4935 18.2118ZM52.9418 30.0673H81.4935V32.5193H52.9418V30.0673ZM52.9418 34.8001H81.4935V37.2521H52.9418V34.8001ZM52.9418 39.5329H81.4935V41.9848H52.9418V39.5329ZM52.9418 44.2657H63.3235V46.7176H52.9418V44.2657Z" fill="#DCDCE1"/>
</svg>
