<svg width="10" height="10" viewBox="0 0 10 10" fill="none" xmlns="http://www.w3.org/2000/svg">
<path d="M5 0C2.24 0 0 2.24 0 5C0 7.76 2.24 10 5 10C7.76 10 10 7.76 10 5C10 2.24 7.76 0 5 0ZM8.73 3.56L7.34 4.135C7.085 3.455 6.55 2.915 5.865 2.665L6.44 1.275C7.49 1.675 8.325 2.51 8.73 3.56ZM5 6.5C4.17 6.5 3.5 5.83 3.5 5C3.5 4.17 4.17 3.5 5 3.5C5.83 3.5 6.5 4.17 6.5 5C6.5 5.83 5.83 6.5 5 6.5ZM3.565 1.27L4.15 2.66C3.46 2.91 2.915 3.455 2.66 4.145L1.27 3.565C1.675 2.51 2.51 1.675 3.565 1.27ZM1.27 6.435L2.66 5.86C2.915 6.55 3.455 7.09 4.145 7.34L3.56 8.73C2.51 8.325 1.675 7.49 1.27 6.435ZM6.44 8.73L5.865 7.34C6.55 7.085 7.09 6.545 7.34 5.855L8.73 6.44C8.325 7.49 7.49 8.325 6.44 8.73Z" fill="#101828"/>
</svg>
