<svg width="56" height="56" viewBox="0 0 56 56" fill="none" xmlns="http://www.w3.org/2000/svg">
<rect width="56" height="56" rx="28" fill="#F2F2F7"/>
<path d="M41.4974 14.7859H24.3882C24.0521 14.7859 23.7297 14.9208 23.492 15.161C23.2542 15.4012 23.1207 15.727 23.1207 16.0667V19.6933C24.0482 20.6783 24.5648 21.9864 24.5632 23.3461V25.373H24.6874C24.8964 25.3893 25.0949 25.4721 25.2546 25.6094C25.4142 25.7468 25.5267 25.9317 25.5759 26.1376C25.619 26.3149 25.6255 26.4993 25.5952 26.6793C25.5649 26.8593 25.4983 27.0311 25.3997 27.1841C25.301 27.337 25.1723 27.4679 25.0215 27.5686C24.8708 27.6692 24.7012 27.7376 24.5232 27.7693V28.4277C24.525 29.7546 24.0228 31.0316 23.1201 31.9953L23.1207 31.996V35.7602L25.1969 36.6555C25.5723 36.845 25.8999 37.1184 26.1551 37.4549C26.4103 37.7915 26.5863 38.1823 26.6698 38.5978H41.4974C41.6639 38.5979 41.8287 38.5648 41.9825 38.5004C42.1363 38.4361 42.2761 38.3418 42.3938 38.2228C42.5115 38.1039 42.6049 37.9627 42.6685 37.8072C42.7322 37.6518 42.765 37.4852 42.7649 37.317V16.0667C42.7649 15.727 42.6314 15.4012 42.3937 15.161C42.156 14.9208 41.8336 14.7859 41.4974 14.7859Z" fill="#C3C3DC"/>
<path d="M40.8906 15.8738H25.0727C24.7619 15.8738 24.4638 15.9973 24.244 16.2171C24.0242 16.4368 23.9008 16.7349 23.9008 17.0457V20.3639C24.7583 21.2652 25.2359 22.462 25.2344 23.7061V25.5606H25.3492C25.5425 25.5755 25.726 25.6513 25.8736 25.7769C26.0212 25.9026 26.1252 26.0718 26.1707 26.2602C26.2105 26.4224 26.2166 26.5911 26.1885 26.7558C26.1605 26.9205 26.099 27.0777 26.0078 27.2177C25.9165 27.3576 25.7975 27.4773 25.6582 27.5694C25.5188 27.6616 25.362 27.7241 25.1975 27.7531V28.3555C25.1991 29.5696 24.7348 30.738 23.9002 31.6197L23.9008 31.6203V35.0645L25.8203 35.8836C26.1673 36.057 26.4703 36.3071 26.7062 36.6151C26.9422 36.923 27.1049 37.2806 27.182 37.6608H40.8906C41.0445 37.6608 41.1969 37.6305 41.3391 37.5716C41.4813 37.5128 41.6105 37.4265 41.7194 37.3176C41.8282 37.2088 41.9145 37.0796 41.9734 36.9374C42.0323 36.7952 42.0625 36.6428 42.0625 36.4889V17.0457C42.0625 16.7349 41.939 16.4368 41.7193 16.2171C41.4995 15.9973 41.2014 15.8738 40.8906 15.8738Z" fill="white"/>
<path d="M27.182 37.6607C27.1049 37.2805 26.9422 36.9229 26.7062 36.615C26.4703 36.3071 26.1673 36.057 25.8203 35.8836L22.8338 34.6086V34.5306C22.1286 34.8603 21.3596 35.0312 20.5812 35.0312C19.8027 35.0312 19.0337 34.8603 18.3285 34.5306V34.6086L15.342 35.8836C14.9495 36.0797 14.6141 36.3735 14.3682 36.7368C14.1222 37.1001 13.9739 37.5206 13.9375 37.9578V41.2051H27.2248V37.9578C27.2168 37.858 27.2026 37.7587 27.182 37.6607Z" fill="#3571D5"/>
<path d="M17.0998 35.8836L19.4053 34.8993C19.0342 34.8153 18.6732 34.6917 18.3285 34.5306V34.6086L15.342 35.8836C14.9495 36.0797 14.6141 36.3735 14.3681 36.7368C14.1222 37.1001 13.9738 37.5206 13.9375 37.9578V41.2051H15.6953V37.9578C15.7317 37.5206 15.88 37.1001 16.126 36.7368C16.372 36.3736 16.7073 36.0797 17.0998 35.8836Z" fill="#3571D5"/>
<path d="M25.2344 25.5606V25.6145C25.2344 25.6145 21.0854 26.3457 18.3033 23.8666C17.732 23.9147 17.1584 23.9292 16.5854 23.91L16.4559 26.0352C16.4546 26.0513 16.4494 26.0669 16.4406 26.0806C16.4319 26.0942 16.4199 26.1055 16.4058 26.1134C16.3916 26.1212 16.3757 26.1255 16.3595 26.1258C16.3433 26.126 16.3273 26.1223 16.3129 26.1149L15.7387 25.8202C15.6781 25.7889 15.6265 25.7426 15.5889 25.6856C15.5514 25.6287 15.5291 25.563 15.5242 25.495V23.7061C15.5242 22.4184 16.0358 21.1835 16.9463 20.273C17.8568 19.3625 19.0917 18.851 20.3793 18.851C21.667 18.851 22.9019 19.3625 23.8124 20.273C24.7229 21.1835 25.2344 22.4184 25.2344 23.7061V25.5606Z" fill="#4A5160"/>
<path d="M18.1182 20.2731C18.886 19.504 19.8903 19.0157 20.9694 18.8869C20.7736 18.8631 20.5765 18.8511 20.3793 18.851C19.0917 18.8511 17.8568 19.3626 16.9463 20.2731C16.0358 21.1836 15.5243 22.4185 15.5242 23.7061V25.495C15.5291 25.563 15.5514 25.6287 15.5889 25.6856C15.6265 25.7426 15.6781 25.7889 15.7387 25.8202L16.3129 26.1149C16.3273 26.1223 16.3433 26.126 16.3595 26.1257C16.3757 26.1255 16.3916 26.1212 16.4057 26.1133C16.4199 26.1054 16.4319 26.0942 16.4406 26.0805C16.4494 26.0669 16.4546 26.0513 16.4559 26.0352C16.4559 26.0352 16.2035 22.1875 18.1182 20.2731Z" fill="#4A5160"/>
<path d="M22.8338 32.4676V34.5307C22.1286 34.8603 21.3596 35.0312 20.5811 35.0312C19.8027 35.0312 19.0337 34.8603 18.3285 34.5307V32.6211C19.0337 32.9696 19.8143 33.1379 20.6005 33.1111C21.3866 33.0843 22.1539 32.8632 22.8338 32.4676Z" fill="#EFC597"/>
<path d="M19.5004 34.5306V33.0208C19.0939 32.9395 18.6999 32.8051 18.3285 32.6211V34.5306C19.2137 34.9445 20.1959 35.1064 21.1671 34.9987C20.5897 34.9348 20.0266 34.7767 19.5004 34.5306Z" fill="#EFC597"/>
<path d="M22.8338 32.4676C22.1107 32.8889 21.2893 33.112 20.4524 33.1145C19.6155 33.1169 18.7928 32.8986 18.0672 32.4815C17.3417 32.0644 16.739 31.4633 16.32 30.7389C15.901 30.0145 15.6804 29.1923 15.6807 28.3554V27.7531C15.5163 27.7238 15.3596 27.6611 15.2203 27.5689C15.0811 27.4768 14.9622 27.357 14.8709 27.2172C14.7797 27.0773 14.7181 26.9202 14.6899 26.7556C14.6616 26.591 14.6674 26.4224 14.7068 26.2601C14.7525 26.0717 14.8566 25.9025 15.0043 25.7769C15.1519 25.6512 15.3356 25.5755 15.5289 25.5605L15.5342 25.5594C15.5475 25.615 15.5726 25.6671 15.6079 25.7121C15.6432 25.7571 15.6878 25.7939 15.7387 25.8201L16.3129 26.1148C16.3273 26.1222 16.3433 26.126 16.3595 26.1257C16.3757 26.1255 16.3916 26.1212 16.4057 26.1133C16.4199 26.1054 16.4319 26.0941 16.4406 26.0805C16.4494 26.0669 16.4546 26.0513 16.4559 26.0351L16.5853 23.9099C17.1584 23.9291 17.732 23.9147 18.3033 23.8666C21.0853 26.3457 25.2344 25.6144 25.2344 25.6144V25.5605H25.3492C25.5425 25.5755 25.726 25.6512 25.8736 25.7769C26.0212 25.9026 26.1252 26.0717 26.1707 26.2601C26.2105 26.4224 26.2166 26.5911 26.1885 26.7558C26.1605 26.9205 26.099 27.0777 26.0078 27.2176C25.9165 27.3576 25.7975 27.4773 25.6582 27.5694C25.5188 27.6615 25.362 27.724 25.1975 27.7531V28.3554C25.1991 29.5695 24.7347 30.7379 23.9002 31.6197C23.8691 31.6537 23.8363 31.6871 23.8035 31.7199C23.5138 32.0098 23.1879 32.2611 22.8338 32.4676Z" fill="#FFD8B7"/>
<path d="M19.5004 32.6211C18.7052 32.2276 18.0359 31.6197 17.568 30.866C17.1002 30.1122 16.8523 29.2427 16.8525 28.3555V27.7531C16.6881 27.7238 16.5315 27.6611 16.3922 27.569C16.2529 27.4768 16.134 27.3571 16.0428 27.2172C15.9516 27.0773 15.8899 26.9203 15.8617 26.7557C15.8335 26.5911 15.8393 26.4225 15.8787 26.2602C15.9047 26.1531 15.9497 26.0514 16.0115 25.9602L15.7386 25.8203C15.6878 25.7942 15.6432 25.7573 15.6079 25.7123C15.5726 25.6673 15.5474 25.6152 15.5342 25.5596L15.5289 25.5607C15.3356 25.5757 15.1519 25.6514 15.0043 25.7771C14.8566 25.9027 14.7525 26.0719 14.7068 26.2604C14.667 26.4226 14.661 26.5914 14.6891 26.7561C14.7172 26.9208 14.7788 27.078 14.8701 27.218C14.9613 27.3579 15.0804 27.4776 15.2198 27.5697C15.3592 27.6618 15.5161 27.7243 15.6806 27.7533V28.3557C15.6803 28.9806 15.8032 29.5995 16.0422 30.177C16.2812 30.7544 16.6317 31.2791 17.0737 31.721C17.5156 32.163 18.0403 32.5135 18.6177 32.7525C19.1952 32.9915 19.8141 33.1144 20.439 33.1141C20.6346 33.1139 20.83 33.1018 21.024 33.0779C20.494 33.0127 19.9788 32.8583 19.5004 32.6211Z" fill="#FFD8B7"/>
<path d="M39.167 26.3949H36.5967C36.5824 26.3949 36.5687 26.3892 36.5586 26.3791C36.5485 26.369 36.5428 26.3553 36.5428 26.341C36.5428 26.3267 36.5485 26.313 36.5586 26.3029C36.5687 26.2928 36.5824 26.2871 36.5967 26.2871H39.167C39.1813 26.2871 39.195 26.2928 39.2051 26.3029L39.4156 26.0924L39.2051 26.3029C39.2152 26.313 39.2209 26.3267 39.2209 26.341C39.2209 26.3553 39.2152 26.369 39.2051 26.3791L39.4124 26.5864L39.2051 26.3791C39.195 26.3892 39.1813 26.3949 39.167 26.3949Z" fill="#CECEE4" stroke="#CECEE4" stroke-width="0.595299"/>
<path d="M35.0823 26.3949H34.2201C34.2058 26.3949 34.1921 26.3892 34.182 26.3791C34.1719 26.369 34.1662 26.3553 34.1662 26.341C34.1662 26.3267 34.1719 26.313 34.182 26.3029C34.1921 26.2928 34.2058 26.2871 34.2201 26.2871H35.0823C35.0966 26.2871 35.1103 26.2928 35.1204 26.3029C35.1305 26.313 35.1362 26.3267 35.1362 26.341C35.1362 26.3553 35.1305 26.369 35.1204 26.3791C35.1103 26.3892 35.0966 26.3949 35.0823 26.3949Z" fill="#CECEE4" stroke="#CECEE4" stroke-width="0.595299"/>
<path d="M39.167 30.1973H38.2943C38.28 30.1973 38.2662 30.1917 38.2561 30.1816C38.246 30.1714 38.2403 30.1577 38.2403 30.1434C38.2403 30.1291 38.246 30.1154 38.2561 30.1053C38.2662 30.0952 38.28 30.0895 38.2943 30.0895H39.167C39.1813 30.0895 39.195 30.0952 39.2051 30.1053C39.2152 30.1154 39.2209 30.1291 39.2209 30.1434C39.2209 30.1577 39.2152 30.1714 39.2051 30.1816C39.195 30.1917 39.1813 30.1973 39.167 30.1973Z" fill="#CECEE4" stroke="#CECEE4" stroke-width="0.595299"/>
<path d="M37.0783 30.1973H32.4225C32.4082 30.1973 32.3945 30.1917 32.3844 30.1816C32.3743 30.1714 32.3686 30.1577 32.3686 30.1434C32.3686 30.1291 32.3743 30.1154 32.3844 30.1053C32.3945 30.0952 32.4082 30.0895 32.4225 30.0895H37.0783C37.0926 30.0895 37.1063 30.0952 37.1165 30.1053C37.1266 30.1154 37.1322 30.1291 37.1322 30.1434C37.1322 30.1577 37.1266 30.1714 37.1165 30.1816C37.1063 30.1917 37.0926 30.1973 37.0783 30.1973Z" fill="#CECEE4" stroke="#CECEE4" stroke-width="0.595299"/>
<path d="M31.1897 30.1973H30.8755C30.8612 30.1973 30.8475 30.1917 30.8374 30.1816C30.8273 30.1714 30.8216 30.1577 30.8216 30.1434C30.8216 30.1291 30.8273 30.1154 30.8374 30.1053C30.8475 30.0952 30.8612 30.0895 30.8755 30.0895H31.1897C31.204 30.0895 31.2177 30.0952 31.2278 30.1053C31.2379 30.1154 31.2436 30.1291 31.2436 30.1434C31.2436 30.1577 31.2379 30.1714 31.2278 30.1816C31.2177 30.1917 31.204 30.1973 31.1897 30.1973Z" fill="#CECEE4" stroke="#CECEE4" stroke-width="0.595299"/>
<path d="M29.3611 30.1973H27.3678C27.3535 30.1973 27.3398 30.1917 27.3297 30.1816C27.3196 30.1714 27.3139 30.1577 27.3139 30.1434C27.3139 30.1291 27.3196 30.1154 27.3297 30.1053C27.3398 30.0952 27.3535 30.0895 27.3678 30.0895H29.3611C29.3754 30.0895 29.3891 30.0952 29.3992 30.1053C29.4093 30.1154 29.415 30.1291 29.415 30.1434C29.415 30.1577 29.4093 30.1714 29.3992 30.1816C29.3891 30.1917 29.3754 30.1973 29.3611 30.1973Z" fill="#CECEE4" stroke="#CECEE4" stroke-width="0.595299"/>
<path d="M39.167 33.7119H37.1552C37.1409 33.7119 37.1272 33.7062 37.1171 33.6961C37.1069 33.686 37.1013 33.6723 37.1013 33.658C37.1013 33.6437 37.1069 33.6299 37.1171 33.6198C37.1272 33.6097 37.1409 33.604 37.1552 33.604H39.167C39.1813 33.604 39.195 33.6097 39.2051 33.6198C39.2152 33.63 39.2209 33.6437 39.2209 33.658C39.2209 33.6723 39.2152 33.686 39.2051 33.6961C39.195 33.7062 39.1813 33.7119 39.167 33.7119Z" fill="#CECEE4" stroke="#CECEE4" stroke-width="0.595299"/>
<path d="M35.8932 33.7119H35.6406C35.6263 33.7119 35.6126 33.7062 35.6025 33.6961C35.5924 33.686 35.5867 33.6723 35.5867 33.658C35.5867 33.6437 35.5924 33.6299 35.6025 33.6198C35.6126 33.6097 35.6263 33.604 35.6406 33.604H35.8932C35.9075 33.604 35.9212 33.6097 35.9313 33.6198C35.9414 33.6299 35.9471 33.6437 35.9471 33.658C35.9471 33.6723 35.9414 33.686 35.9313 33.6961C35.9212 33.7062 35.9075 33.7119 35.8932 33.7119Z" fill="#CECEE4" stroke="#CECEE4" stroke-width="0.595299"/>
<path d="M34.6512 33.7119H32.7402C32.726 33.7119 32.7122 33.7062 32.7021 33.6961C32.692 33.686 32.6863 33.6723 32.6863 33.658C32.6863 33.6437 32.692 33.6299 32.7021 33.6198C32.7122 33.6097 32.726 33.604 32.7402 33.604H34.6513C34.6656 33.604 34.6793 33.6097 34.6894 33.6198L34.8999 33.4094L34.6894 33.6198C34.6995 33.63 34.7052 33.6437 34.7052 33.658C34.7052 33.6723 34.6995 33.686 34.6894 33.6961L34.8966 33.9033L34.6894 33.6961C34.6793 33.7062 34.6656 33.7119 34.6513 33.7119H34.6512Z" fill="#CECEE4" stroke="#CECEE4" stroke-width="0.595299"/>
<path d="M31.1896 33.7119H27.3678C27.3535 33.7119 27.3398 33.7062 27.3297 33.6961C27.3196 33.686 27.3139 33.6723 27.3139 33.658C27.3139 33.6437 27.3196 33.6299 27.3297 33.6198C27.3398 33.6097 27.3535 33.604 27.3678 33.604H31.1896C31.2039 33.604 31.2176 33.6097 31.2277 33.6198C31.2379 33.63 31.2435 33.6437 31.2435 33.658C31.2435 33.6723 31.2379 33.686 31.2277 33.6961C31.2176 33.7062 31.2039 33.7119 31.1896 33.7119Z" fill="#CECEE4" stroke="#CECEE4" stroke-width="0.595299"/>
<path d="M39.167 23.4016H38.9401C38.9258 23.4016 38.9121 23.3959 38.902 23.3858C38.8919 23.3757 38.8862 23.362 38.8862 23.3477C38.8862 23.3334 38.8919 23.3196 38.902 23.3095C38.9121 23.2994 38.9258 23.2937 38.9401 23.2937H39.167C39.1813 23.2937 39.195 23.2994 39.2051 23.3095C39.2152 23.3196 39.2209 23.3334 39.2209 23.3477C39.2209 23.362 39.2152 23.3757 39.2051 23.3858C39.195 23.3959 39.1813 23.4016 39.167 23.4016Z" fill="#CECEE4" stroke="#CECEE4" stroke-width="0.595299"/>
<path d="M37.4258 23.4016H34.9339C34.9196 23.4016 34.9059 23.3959 34.8958 23.3858C34.8857 23.3757 34.88 23.362 34.88 23.3477C34.88 23.3334 34.8857 23.3196 34.8958 23.3095C34.9059 23.2994 34.9196 23.2937 34.9339 23.2937H37.4258C37.4401 23.2937 37.4538 23.2994 37.4639 23.3095L37.6744 23.0991L37.4639 23.3095C37.474 23.3196 37.4797 23.3334 37.4797 23.3477C37.4797 23.362 37.474 23.3757 37.4639 23.3858L37.6712 23.593L37.4639 23.3858C37.4538 23.3959 37.4401 23.4016 37.4258 23.4016Z" fill="#CECEE4" stroke="#CECEE4" stroke-width="0.595299"/>
<path d="M39.167 20.4719H36.6553C36.641 20.4719 36.6273 20.4662 36.6172 20.4561C36.6071 20.446 36.6014 20.4323 36.6014 20.418C36.6014 20.4037 36.6071 20.39 36.6172 20.3798C36.6273 20.3697 36.641 20.3641 36.6553 20.3641H39.167C39.1813 20.3641 39.1951 20.3697 39.2052 20.3798C39.2153 20.39 39.221 20.4037 39.221 20.418C39.221 20.4323 39.2153 20.446 39.2052 20.4561C39.1951 20.4662 39.1813 20.4719 39.167 20.4719Z" fill="#CECEE4" stroke="#CECEE4" stroke-width="0.595299"/>
<path d="M35.1409 20.4719H34.9339C34.9196 20.4719 34.9059 20.4662 34.8958 20.4561C34.8857 20.446 34.88 20.4323 34.88 20.418C34.88 20.4037 34.8857 20.39 34.8958 20.3798C34.9059 20.3697 34.9196 20.3641 34.9339 20.3641H35.1409C35.1552 20.3641 35.169 20.3697 35.1791 20.3798C35.1892 20.39 35.1949 20.4037 35.1949 20.418C35.1949 20.4323 35.1892 20.446 35.1791 20.4561C35.169 20.4662 35.1552 20.4719 35.1409 20.4719Z" fill="#CECEE4" stroke="#CECEE4" stroke-width="0.595299"/>
<path d="M27.9678 14.1998H38.5815V16.2143H27.9678V14.1998Z" fill="#475673"/>
<path d="M29.9668 26.7287C31.7749 26.7287 33.2406 25.263 33.2406 23.455C33.2406 21.6469 31.7749 20.1812 29.9668 20.1812C28.1588 20.1812 26.693 21.6469 26.693 23.455C26.693 25.263 28.1588 26.7287 29.9668 26.7287Z" fill="#254AB0"/>
<path d="M32.6449 23.1583C32.6449 22.6072 32.5055 22.065 32.2397 21.5822C31.9739 21.0995 31.5903 20.6917 31.1247 20.397C30.3671 20.1089 29.5294 20.1125 28.7743 20.4069C28.0191 20.7014 27.4002 21.2658 27.0375 21.9907C26.6748 22.7155 26.5943 23.5493 26.8114 24.3302C27.0286 25.1111 27.528 25.7836 28.2128 26.2172C28.708 26.4063 29.2418 26.472 29.7681 26.4087C30.2944 26.3454 30.7974 26.1549 31.2337 25.8538C31.6699 25.5527 32.0264 25.15 32.2723 24.6804C32.5181 24.2108 32.646 23.6884 32.6449 23.1583Z" fill="#254AB0"/>
<path d="M27.883 23.7525L29.3711 25.2406L32.0497 22.562L31.1568 21.6692L29.3711 23.4549L28.7759 22.8597L27.883 23.7525Z" fill="#F2F2F2"/>
</svg>
