<svg width="56" height="56" viewBox="0 0 56 56" fill="none" xmlns="http://www.w3.org/2000/svg">
<path d="M56 28C56 12.536 43.464 0 28 0C12.536 0 0 12.536 0 28C0 43.464 12.536 56 28 56C43.464 56 56 43.464 56 28Z" fill="#F2F2F7"/>
<path d="M40.6869 17H14.3336C14.1501 17 14 17.1501 14 17.3336V23.5633C14 23.7468 14.1501 23.8969 14.3336 23.8969H40.6869C40.8704 23.8969 41.0205 23.7468 41.0205 23.5633V17.3336C41.0205 17.1501 40.8704 17 40.6869 17Z" fill="#254AB0"/>
<path d="M39.5019 18.7002H15.5254V22.2029H39.5019V18.7002Z" fill="#3571D5"/>
<path d="M19.9124 39.9553H20.0041L21.0382 38.9212L22.0723 39.9553H22.1641L23.1899 38.9212L24.224 39.9553H24.3157L25.3498 38.9212L26.384 39.9553H26.4757L27.5098 38.9212L28.5439 39.9553H28.6357L29.6698 38.9212L30.7039 39.9553H30.7956L31.8298 38.9212L32.8555 39.9553H32.9473L33.9814 38.9212L35.0155 39.9553H35.1072L36.1414 38.9212L36.917 39.6885V20.4489H18.1027V39.6885L18.8783 38.9212L19.9124 39.9553Z" fill="white"/>
<path d="M33.8077 25.2374H21.2231V26.405H33.8077V25.2374Z" fill="#26B86E"/>
<path d="M33.8077 28.8746H21.2231V30.0422H33.8077V28.8746Z" fill="#26B86E"/>
<path d="M28.7789 32.501H21.2231V33.6685H28.7789V32.501Z" fill="#26B86E"/>
</svg>
