<svg width="56" height="56" viewBox="0 0 56 56" fill="none" xmlns="http://www.w3.org/2000/svg">
<rect width="56" height="56" rx="28" fill="#F2F2F7"/>
<path d="M38.4763 32.7822C38.4768 32.5406 38.4101 32.304 38.2832 32.0982L37.0532 30.1181C36.8998 29.8136 36.8204 29.4771 36.8215 29.1362V23.0356C36.8215 19.0752 33.6112 15.865 29.6508 15.865H26.3413C22.3808 15.865 19.1706 19.0752 19.1706 23.0356V29.1362C19.1717 29.4771 19.0923 29.8136 18.9389 30.1181L17.7089 32.0982C17.582 32.304 17.5152 32.5406 17.5158 32.7822C17.5185 33.491 18.0922 34.0647 18.801 34.0674H37.191C37.8998 34.0647 38.4735 33.491 38.4763 32.7822Z" fill="#34A853"/>
<path d="M29.6509 15.865L32.4088 12.0039H23.5834L26.3413 15.865V16.9682H29.6509V15.865Z" fill="#34A853"/>
<path d="M38.2832 32.0982L37.0531 30.1181C36.8998 29.8136 36.8204 29.4771 36.8215 29.1363V23.0357C36.8253 21.4382 36.2953 19.885 35.3156 18.6229C33.8429 26.7368 28.658 31.4143 23.7874 34.0674H37.1911C37.9037 34.0702 38.484 33.4949 38.4868 32.7817C38.4879 32.5401 38.4211 32.3034 38.2943 32.0982H38.2832Z" fill="#007B55"/>
<path d="M30.754 24.1389V23.7859C30.7512 22.7638 29.9227 21.9353 28.9006 21.9325H28.5476V20.8293H27.4444V21.9325H27.0914C26.0677 21.9292 25.2353 22.756 25.232 23.7798C25.2293 24.557 25.7119 25.2531 26.4406 25.5233L27.4444 25.8984V27.9999H27.0914C26.6772 27.9999 26.3413 27.664 26.3413 27.2498V26.8968H25.2381V27.2498C25.2408 28.2719 26.0693 29.1003 27.0914 29.1031H28.9007C29.9244 29.1064 30.7568 28.2796 30.7601 27.2559C30.7629 26.4787 30.2802 25.7826 29.5516 25.5123L28.5477 25.1373V23.0357H28.9007C29.3149 23.0357 29.6509 23.3716 29.6509 23.7859V24.1389H30.754ZM29.1654 26.5438C29.4567 26.6569 29.6492 26.9371 29.6508 27.2499C29.6508 27.6641 29.3149 28.0001 28.9006 28.0001H28.5476V26.3122L29.1654 26.5438ZM27.4445 24.7236L26.8267 24.4919C26.5354 24.3788 26.3429 24.0986 26.3413 23.7858C26.3413 23.3716 26.6773 23.0357 27.0915 23.0357H27.4445V24.7236Z" fill="white"/>
<path d="M39.0278 17.5198C38.8403 16.3879 37.9533 15.501 36.8215 15.3134C37.9533 15.1259 38.8403 14.2389 39.0278 13.1071C39.2154 14.2389 40.1023 15.1259 41.2342 15.3134C40.1023 15.501 39.2154 16.388 39.0278 17.5198Z" fill="#FDB62F"/>
<path d="M14.2064 28.5516C14.0188 27.4198 13.1319 26.5328 12 26.3453C13.1319 26.1577 14.0188 25.2708 14.2064 24.1389C14.3939 25.2708 15.2809 26.1577 16.4127 26.3453C15.2809 26.5328 14.3939 27.4198 14.2064 28.5516Z" fill="#FDB62F"/>
<path d="M43.7549 31.2489C43.3021 30.4866 42.3291 30.2169 41.5486 30.6367L33.7215 33.9793C33.5837 34.0377 33.4353 34.0681 33.2858 34.0676H23.5833C22.9738 34.0676 22.4801 33.5739 22.4801 32.9644C22.4801 32.3549 22.9738 31.8612 23.5833 31.8612H27.9961C29.8241 31.8612 31.3056 30.3796 31.3056 28.5516H22.1271C20.6058 28.5528 19.1673 29.245 18.2164 30.4326L14.7579 34.6191L18.6522 41.7566L33.6389 38.1548C34.2864 38.0053 34.913 37.7759 35.5032 37.4708L43.2254 33.5159C43.9938 33.0333 44.2299 32.0222 43.7549 31.2489Z" fill="#F0D5C5"/>
<path d="M17.4111 39.4841L18.6522 41.7566L33.6389 38.1548C34.2864 38.0053 34.913 37.7758 35.5032 37.4708L39.6788 35.3251C32.7397 37.4487 23.5282 38.7725 17.4111 39.4841Z" fill="#EBC4A6"/>
<path d="M12 34.0675V43.9961H19.1707L20.8254 42.3413L14.2064 32.4127L12 34.0675Z" fill="#3571D5"/>
<path d="M12 43.9961H19.1707L20.8254 42.3414L19.6119 40.5211C17.1585 41.5338 14.6079 42.2934 12 42.7882V43.9961Z" fill="#193097"/>
<path d="M16.9643 42.343C17.5736 42.343 18.0675 41.849 18.0675 41.2398C18.0675 40.6305 17.5736 40.1366 16.9643 40.1366C16.355 40.1366 15.8611 40.6305 15.8611 41.2398C15.8611 41.849 16.355 42.343 16.9643 42.343Z" fill="#F2F2F7"/>
</svg>
