<svg width="9" height="12" viewBox="0 0 9 12" fill="none" xmlns="http://www.w3.org/2000/svg">
<path d="M5.74501 2.74001C6.29501 2.74001 6.74501 2.29001 6.74501 1.74001C6.74501 1.19001 6.29501 0.740005 5.74501 0.740005C5.19501 0.740005 4.74501 1.19001 4.74501 1.74001C4.74501 2.29001 5.19501 2.74001 5.74501 2.74001ZM3.94501 9.69001L4.44501 7.49001L5.49501 8.49001V11.49H6.49501V7.74001L5.44501 6.74001L5.74501 5.24001C6.39501 5.99001 7.39501 6.49001 8.49501 6.49001V5.49001C7.54501 5.49001 6.74501 4.99001 6.34501 4.29001L5.84501 3.49001C5.64501 3.19001 5.34501 2.99001 4.99501 2.99001C4.84501 2.99001 4.74501 3.04001 4.59501 3.04001L1.99501 4.14001V6.49001H2.99501V4.79001L3.89501 4.44001L3.09501 8.49001L0.645007 7.99001L0.445007 8.99001L3.94501 9.69001Z" fill="#101828"/>
</svg>
