<svg width="56" height="56" viewBox="0 0 56 56" fill="none" xmlns="http://www.w3.org/2000/svg">
<path d="M56 28C56 12.536 43.464 0 28 0C12.536 0 0 12.536 0 28C0 43.464 12.536 56 28 56C43.464 56 56 43.464 56 28Z" fill="#F2F2F7"/>
<path d="M37.9136 19.8793H17.5043C16.6749 19.8793 16.001 20.5458 16.001 21.3752V38.504C16.001 39.3334 16.6749 39.9999 17.5043 39.9999H37.9136C38.743 39.9999 39.4169 39.3334 39.4169 38.504V21.3752C39.4169 20.5532 38.743 19.8793 37.9136 19.8793Z" fill="#3571D5"/>
<path d="M39.4243 21.9968H16.001V23.9H39.4243V21.9968Z" fill="#254AB0"/>
<path d="M39.4243 35.9849H16.001V37.8881H39.4243V35.9849Z" fill="#254AB0"/>
<path d="M32.9059 19.8804H31.7359V17.5625C31.7359 17.3404 31.5581 17.1627 31.336 17.1627H24.0935C23.8713 17.1627 23.6936 17.3404 23.6936 17.5625V19.8804H22.5235V17.5625C22.5235 16.6961 23.2271 16 24.0935 16H31.336C32.2024 16 32.9059 16.7035 32.9059 17.5625V19.8804ZM20.6352 19.8804H18.4061V19.1769C18.4061 19.1251 18.4432 19.0881 18.495 19.0881H20.5463C20.5981 19.0881 20.6352 19.1251 20.6352 19.1769V19.8804ZM37.0085 19.8804H34.7795V19.1769C34.7795 19.1251 34.8165 19.0881 34.8684 19.0881H36.9197C36.9715 19.0881 37.0085 19.1251 37.0085 19.1769V19.8804Z" fill="#324A5E"/>
<path d="M27.7094 34.9103C30.4497 34.9103 32.6711 32.6889 32.6711 29.9487C32.6711 27.2085 30.4497 24.9871 27.7094 24.9871C24.9692 24.9871 22.7478 27.2085 22.7478 29.9487C22.7478 32.6889 24.9692 34.9103 27.7094 34.9103Z" fill="white"/>
<path d="M31.4544 29.0106H28.6403V26.2188H26.7741V29.0106H23.9601V30.8768H26.7741V33.6686H28.6403V30.8768H31.4544V29.0106Z" fill="#F1543F"/>
</svg>
