<svg width="12" height="12" viewBox="0 0 12 12" fill="none" xmlns="http://www.w3.org/2000/svg">
<path d="M8.54504 5.49999H10.975C10.895 4.69499 10.62 3.94499 10.205 3.29999C9.34004 3.71499 8.71004 4.52499 8.54504 5.49999Z" fill="#323232"/>
<path d="M3.45502 5.49999C3.29002 4.52499 2.66002 3.71499 1.79502 3.29999C1.38002 3.94499 1.10502 4.69499 1.02502 5.49999H3.45502Z" fill="#323232"/>
<path d="M7.535 5.49999C7.695 4.20499 8.475 3.10499 9.565 2.49999C8.765 1.68499 7.695 1.14499 6.5 1.02499V5.49999H7.535Z" fill="#323232"/>
<path d="M4.465 5.49999H5.5V1.02499C4.305 1.14499 3.23 1.68499 2.435 2.49999C3.525 3.10499 4.305 4.20499 4.465 5.49999Z" fill="#323232"/>
<path d="M7.535 6.5H6.5V10.975C7.695 10.855 8.77 10.315 9.565 9.5C8.475 8.895 7.695 7.795 7.535 6.5Z" fill="#323232"/>
<path d="M1.79502 8.7C2.65502 8.285 3.29002 7.47 3.45502 6.5H1.02502C1.10502 7.305 1.38002 8.055 1.79502 8.7Z" fill="#323232"/>
<path d="M8.54504 6.5C8.71004 7.475 9.34004 8.285 10.205 8.7C10.62 8.055 10.895 7.305 10.975 6.5H8.54504Z" fill="#323232"/>
<path d="M4.465 6.5C4.305 7.795 3.525 8.895 2.435 9.5C3.235 10.315 4.305 10.855 5.5 10.975V6.5H4.465Z" fill="#323232"/>
</svg>
