<svg width="56" height="56" viewBox="0 0 56 56" fill="none" xmlns="http://www.w3.org/2000/svg">
<path d="M56 28C56 12.536 43.464 0 28 0C12.536 0 0 12.536 0 28C0 43.464 12.536 56 28 56C43.464 56 56 43.464 56 28Z" fill="#F2F2F7"/>
<path d="M29.9807 41.569V40.118C28.7044 39.9075 27.6608 39.4505 26.9039 38.6937C26.1067 37.8965 25.6319 36.7769 25.5245 35.2765L25.5198 35.2629C25.516 35.1565 25.5493 35.052 25.614 34.9674C25.6836 34.8796 25.7819 34.8194 25.8917 34.7972L27.746 34.4389C27.8667 34.421 27.9788 34.4478 28.0729 34.5106C28.1713 34.5778 28.2431 34.6808 28.2655 34.8017V34.8106C28.3596 35.4465 28.5207 36.1004 28.8252 36.6244C29.0851 37.0635 29.4523 37.4172 29.9807 37.6054V32.737C28.1355 32.1771 26.9219 31.1247 26.2993 29.9242C25.9186 29.1898 25.7529 28.397 25.8021 27.6312C25.8513 26.8608 26.1067 26.1174 26.568 25.4724C27.2622 24.4961 28.4088 23.7525 29.9807 23.5153V23.0405C29.9807 22.9151 30.03 22.7986 30.1107 22.718C30.1957 22.6329 30.3077 22.5837 30.4331 22.5837H31.5258C31.6468 22.5837 31.7634 22.6329 31.8439 22.718C31.929 22.7987 31.9783 22.9151 31.9783 23.0405V23.5153C32.7172 23.6317 33.3936 23.8646 33.9758 24.2407C34.5626 24.6214 35.0551 25.15 35.418 25.8441C35.5551 26.1048 35.6675 26.3776 35.7539 26.6592C35.8415 26.9541 35.9074 27.255 35.951 27.5595L35.9554 27.5729C35.9689 27.6938 35.933 27.8058 35.8658 27.8999C35.7942 27.9894 35.6867 28.0566 35.5658 28.0746L33.6847 28.3657C33.6259 28.3746 33.5658 28.3717 33.5081 28.3571C33.4505 28.3425 33.3963 28.3165 33.3488 28.2806L33.3353 28.2717C33.2456 28.2007 33.1863 28.0982 33.1696 27.985L33.1651 27.976C33.0936 27.4923 32.9636 27.0624 32.7353 26.722C32.5561 26.4578 32.3142 26.2427 31.9783 26.086V30.4214C34.034 30.9947 35.3239 32.1189 35.9555 33.4043C36.3272 34.1657 36.4705 34.9808 36.4079 35.7736C36.3406 36.5664 36.072 37.3367 35.6151 38.0041C34.8671 39.1012 33.6176 39.9255 31.9784 40.1224V41.5691C31.9784 41.6945 31.9291 41.8064 31.844 41.8915C31.7634 41.9721 31.6514 42.0215 31.5259 42.0215H30.4332C30.3078 42.0215 30.1957 41.9721 30.1107 41.8915C30.03 41.8063 29.9807 41.6945 29.9807 41.569ZM27.8624 34.8733L27.8443 34.8509C27.8533 34.8554 27.8578 34.8643 27.8624 34.8733ZM25.9678 35.1958L25.9409 35.2136C25.9454 35.2047 25.9544 35.2002 25.9678 35.1958ZM30.3884 41.569L30.4018 41.6005C30.4103 41.6086 30.4215 41.6133 30.4332 41.6138L30.4018 41.6005C30.3937 41.592 30.3889 41.5808 30.3884 41.569ZM31.5258 41.6137L31.5574 41.6005C31.5655 41.5919 31.5703 41.5807 31.5708 41.5689L31.5574 41.6005C31.5488 41.6086 31.5376 41.6133 31.5258 41.6137ZM33.5728 27.9223L33.5862 27.9492C33.5772 27.9447 33.5728 27.9358 33.5728 27.9223ZM35.5075 27.6714L35.5389 27.6536C35.5299 27.6625 35.521 27.667 35.5075 27.6714ZM35.5478 27.6222V27.6177V27.6222ZM31.5708 23.0404L31.5573 23.0045C31.5488 22.9964 31.5376 22.9916 31.5258 22.9911L31.5573 23.0045C31.5663 23.0136 31.5708 23.027 31.5708 23.0404ZM30.4331 22.9912L30.4018 23.0046C30.3928 23.0144 30.388 23.0273 30.3883 23.0405L30.4018 23.0046C30.4103 22.9965 30.4214 22.9917 30.4331 22.9912ZM29.9807 26.0233C29.5911 26.1621 29.2642 26.3861 29.0268 26.6771C28.7492 27.0175 28.5879 27.4565 28.5879 27.9536C28.5879 28.5179 28.7403 28.939 29.0178 29.2524C29.2509 29.5167 29.5777 29.7183 29.9807 29.8705V26.0233ZM31.9783 37.6097C32.4173 37.4619 32.7755 37.1933 33.0352 36.8485C33.3622 36.4185 33.5368 35.8631 33.5368 35.2718C33.5368 34.6225 33.3847 34.1925 33.089 33.8924C32.8292 33.6237 32.4575 33.44 31.9782 33.2789V37.6097H31.9783Z" fill="#26B86E"/>
<path fill-rule="evenodd" clip-rule="evenodd" d="M25.8022 27.6312C25.8514 26.8608 26.1068 26.1174 26.5681 25.4724C27.1726 24.617 28.1312 23.9407 29.4166 23.6272L24.8528 14.9786L18.578 26.8698H22.2103V38.9086H27.1369C27.0564 38.8415 26.9802 38.7654 26.9041 38.6936C26.1068 37.8964 25.6321 36.7768 25.5247 35.2764L25.52 35.2629C25.5162 35.1564 25.5494 35.0519 25.6142 34.9673C25.6837 34.8796 25.7821 34.8193 25.8919 34.7971L27.7461 34.4389C27.8669 34.421 27.9789 34.4478 28.073 34.5105C28.1715 34.5777 28.2433 34.6807 28.2656 34.8017V34.8106C28.3598 35.4464 28.5208 36.1004 28.8254 36.6243C29.0852 37.0635 29.4525 37.4171 29.9809 37.6054V32.737C28.1357 32.177 26.922 31.1246 26.2994 29.9241C25.9186 29.1898 25.753 28.397 25.8022 27.6312Z" fill="#3571D5"/>
<path fill-rule="evenodd" clip-rule="evenodd" d="M20.3963 26.8698L25.6051 16.403L24.8528 14.9786L18.578 26.8698H20.3963Z" fill="#254AB0"/>
</svg>
