<svg width="56" height="56" viewBox="0 0 56 56" fill="none" xmlns="http://www.w3.org/2000/svg">
<rect width="56" height="56" rx="28" fill="#F2F2F7"/>
<path d="M20.5 13.9375H39.25V39.25H20.5V13.9375Z" fill="#C3C3DC"/>
<path d="M42.0625 37.375V16.75H23.3125V42.0625H37.375L42.0625 37.375Z" fill="#CECEE4"/>
<path d="M40.6563 38.7812V16.75H23.3125V40.1448H39.2927L40.6563 38.7812Z" fill="white"/>
<path d="M14.875 39.25V36.4375C14.875 35.9402 15.0726 35.4633 15.4242 35.1117C15.7758 34.76 16.2527 34.5625 16.75 34.5625H22.375C22.8723 34.5625 23.3492 34.76 23.7008 35.1117C24.0525 35.4633 24.25 35.9402 24.25 36.4375V39.25" fill="#2A57BC"/>
<path d="M22.8438 37.9267V34.6286C22.691 34.5867 22.5334 34.5645 22.375 34.5625H16.75C16.2527 34.5625 15.7758 34.76 15.4242 35.1117C15.0726 35.4633 14.875 35.9402 14.875 36.4375V37.9267H22.8438Z" fill="#254AB0"/>
<path d="M37.375 42.0625V37.375H42.0625" fill="#CECEE4"/>
<path d="M32.6875 29.875C35.5352 29.875 37.8438 27.5665 37.8438 24.7188C37.8438 21.871 35.5352 19.5625 32.6875 19.5625C29.8398 19.5625 27.5313 21.871 27.5313 24.7188C27.5313 27.5665 29.8398 29.875 32.6875 29.875Z" fill="#254AB0"/>
<path d="M36.9063 24.25C36.9062 23.382 36.6866 22.5281 36.268 21.7677C35.8494 21.0073 35.2453 20.3652 34.5119 19.9009C33.3186 19.4472 31.9994 19.4528 30.81 19.9166C29.6206 20.3803 28.6458 21.2693 28.0746 22.411C27.5034 23.5527 27.3765 24.8658 27.7185 26.0958C28.0605 27.3257 28.8471 28.3848 29.9257 29.0678C30.7056 29.3655 31.5464 29.469 32.3753 29.3693C33.2042 29.2696 33.9964 28.9697 34.6836 28.4955C35.3707 28.0213 35.9321 27.3869 36.3193 26.6473C36.7066 25.9076 36.908 25.0849 36.9063 24.25Z" fill="#254AB0"/>
<path d="M29.4063 25.1875L31.75 27.5312L35.9688 23.3125L34.5625 21.9062L31.75 24.7188L30.8125 23.7812L29.4063 25.1875Z" fill="#F2F2F2"/>
<path d="M24.7188 31.2812H40.6562V32.2188H24.7188V31.2812Z" fill="#CECEE4"/>
<path d="M24.7188 33.1562H40.6562V34.0938H24.7188V33.1562Z" fill="#CECEE4"/>
<path d="M14.875 39.25H24.25C24.4987 39.25 24.7371 39.3488 24.9129 39.5246C25.0887 39.7004 25.1875 39.9389 25.1875 40.1875V42.0625H13.9375V40.1875C13.9375 39.9389 14.0363 39.7004 14.2121 39.5246C14.3879 39.3488 14.6264 39.25 14.875 39.25Z" fill="#2A56BC"/>
<path d="M18.1563 34.5625L17.8427 31.7416C17.7394 30.8104 17.6876 29.8743 17.6875 28.9375C17.6875 28.4402 17.8851 27.9633 18.2367 27.6117C18.5883 27.26 19.0652 27.0625 19.5625 27.0625C20.0598 27.0625 20.5367 27.26 20.8883 27.6117C21.24 27.9633 21.4375 28.4402 21.4375 28.9375C21.4374 29.8743 21.3856 30.8104 21.2824 31.7416L20.9688 34.5625" fill="#637381"/>
<path d="M20.5 28.9376C20.4993 28.5228 20.3608 28.1201 20.1062 27.7926C19.8517 27.4652 19.4955 27.2316 19.0938 27.1287C18.692 27.2316 18.3359 27.4652 18.0813 27.7926C17.8268 28.1201 17.6882 28.5228 17.6875 28.9376C17.6876 29.8744 17.7394 30.8105 17.8427 31.7416L18.1563 34.5626H20.0313L20.3449 31.7416C20.4481 30.8105 20.4999 29.8744 20.5 28.9376Z" fill="#CECEE0"/>
<path d="M19.0937 28.4688H20.0312V29.4062H19.0937V28.4688Z" fill="black" fill-opacity="0.7"/>
<path d="M16.2812 36.9062H22.8437V37.8438H16.2812V36.9062Z" fill="#E2E7F6"/>
<path d="M24.25 40.1748V39.25H14.875C14.6264 39.25 14.3879 39.3488 14.2121 39.5246C14.0363 39.7004 13.9375 39.9389 13.9375 40.1875V41.1123H23.3125C23.5612 41.1123 23.7996 41.0136 23.9754 40.8378C24.1512 40.6619 24.25 40.4235 24.25 40.1748Z" fill="#3571D5"/>
</svg>
