<svg width="56" height="56" viewBox="0 0 56 56" fill="none" xmlns="http://www.w3.org/2000/svg">
<rect width="56" height="56" rx="28" fill="#F2F2F7"/>
<path d="M40.1525 19.238L35.7932 14.8786C35.6582 14.7437 35.498 14.6367 35.3217 14.5636C35.1454 14.4906 34.9565 14.453 34.7656 14.453C34.5748 14.453 34.3858 14.4906 34.2095 14.5636C34.0332 14.6367 33.873 14.7437 33.7381 14.8786L29.3787 19.238C29.1062 19.5105 28.9531 19.8802 28.9531 20.2656C28.9531 20.651 29.1062 21.0206 29.3787 21.2931C29.6512 21.5656 30.0208 21.7187 30.4062 21.7187C30.7916 21.7187 31.1613 21.5656 31.4338 21.2931L33.3125 19.4143V24.6479C33.3153 25.5131 33.0574 26.359 32.5723 27.0754C32.0873 27.7918 31.3976 28.3454 30.5932 28.664C29.3641 29.1541 28.2939 29.9735 27.5 31.0321C26.7061 29.9735 25.6358 29.1541 24.4067 28.664C23.6024 28.3454 22.9127 27.7918 22.4276 27.0754C21.9426 26.359 21.6846 25.5131 21.6875 24.6479V19.4143L23.5662 21.2931C23.8387 21.5656 24.2083 21.7187 24.5937 21.7187C24.9791 21.7187 25.3488 21.5656 25.6213 21.2931C25.8938 21.0206 26.0469 20.651 26.0469 20.2656C26.0469 19.8802 25.8938 19.5105 25.6213 19.238L21.2619 14.8786C21.127 14.7437 20.9668 14.6367 20.7905 14.5636C20.6142 14.4906 20.4252 14.453 20.2344 14.453C20.0435 14.453 19.8546 14.4906 19.6783 14.5636C19.502 14.6367 19.3418 14.7437 19.2068 14.8786L14.8475 19.238C14.5749 19.5105 14.4218 19.8802 14.4218 20.2656C14.4218 20.651 14.5749 21.0206 14.8475 21.2931C15.12 21.5656 15.4896 21.7187 15.875 21.7187C16.2604 21.7187 16.63 21.5656 16.9025 21.2931L18.7812 19.4143V24.6479C18.7812 26.0933 19.2143 27.5056 20.0247 28.7025C20.8351 29.8993 21.9855 30.8259 23.3276 31.3626C24.1319 31.6812 24.8216 32.2347 25.3066 32.9511C25.7917 33.6674 26.0496 34.5133 26.0469 35.3784V41.0937C26.0469 41.4791 26.2 41.8487 26.4725 42.1212C26.745 42.3937 27.1146 42.5468 27.5 42.5468C27.8854 42.5468 28.255 42.3937 28.5275 42.1212C28.8 41.8487 28.9531 41.4791 28.9531 41.0937V35.3784C28.9503 34.5133 29.2083 33.6674 29.6933 32.951C30.1784 32.2347 30.868 31.6811 31.6723 31.3624C33.0144 30.8258 34.1649 29.8992 34.9752 28.7024C35.7856 27.5056 36.2188 26.0933 36.2187 24.6479V19.4143L38.0975 21.2931C38.37 21.5656 38.7396 21.7187 39.125 21.7187C39.5104 21.7187 39.88 21.5656 40.1525 21.2931C40.4251 21.0206 40.5782 20.651 40.5782 20.2656C40.5782 19.8802 40.4251 19.5105 40.1525 19.238Z" fill="#254AB0"/>
</svg>
